SplineFontDB: 3.2
FontName: RobotoLegacy-MediumItalic
FullName: Roboto Legacy Medium Italic
FamilyName: Roboto Legacy Medium
Weight: Medium
Copyright: Font data copyright Google 2011
Version: 1.00000; 2011
ItalicAngle: 0
UnderlinePosition: -200
UnderlineWidth: 100
Ascent: 1536
Descent: 512
InvalidEm: 0
sfntRevision: 0x00010000
LayerCount: 2
Layer: 0 1 "Back" 1
Layer: 1 1 "Fore" 0
XUID: [1021 474 -1613799265 27500]
StyleMap: 0x0001
FSType: 4
OS2Version: 3
OS2_WeightWidthSlopeOnly: 0
OS2_UseTypoMetrics: 0
CreationTime: 1221222574
ModificationTime: 1744076065
PfmFamily: 81
TTFWeight: 500
TTFWidth: 5
LineGap: 0
VLineGap: 0
Panose: 0 0 0 0 0 0 0 0 0 0
OS2TypoAscent: 1536
OS2TypoAOffset: 0
OS2TypoDescent: -512
OS2TypoDOffset: 0
OS2TypoLinegap: 102
OS2WinAscent: 1946
OS2WinAOffset: 0
OS2WinDescent: 512
OS2WinDOffset: 0
HheadAscent: 1900
HheadAOffset: 0
HheadDescent: -500
HheadDOffset: 0
OS2SubXSize: 1434
OS2SubYSize: 1331
OS2SubXOff: 0
OS2SubYOff: 287
OS2SupXSize: 1434
OS2SupYSize: 1331
OS2SupXOff: 0
OS2SupYOff: 977
OS2StrikeYSize: 102
OS2StrikeYPos: 512
OS2CapHeight: 1456
OS2XHeight: 1082
OS2Vendor: 'pyrs'
OS2CodePages: 2000019f.4f010000
OS2UnicodeRanges: e00002ef.5000205b.00000020.00000000
Lookup: 1 0 0 "'smcp' Lowercase to Small Capitals lookup 0" { "'smcp' Lowercase to Small Capitals lookup 0 subtable"  } ['smcp' ('DFLT' <'dflt' > ) ]
Lookup: 4 0 1 "'liga' Standard Ligatures lookup 1" { "'liga' Standard Ligatures lookup 1 subtable"  } ['liga' ('DFLT' <'dflt' > ) ]
Lookup: 258 0 0 "'kern' Horizontal Kerning lookup 0" { "'kern' Horizontal Kerning lookup 0 per glyph data 0"  "'kern' Horizontal Kerning lookup 0 per glyph data 1"  "'kern' Horizontal Kerning lookup 0 per glyph data 2"  "'kern' Horizontal Kerning lookup 0 kerning class 3"  } ['kern' ('DFLT' <'dflt' > ) ]
MarkAttachClasses: 1
DEI: 91125
KernClass2: 32+ 29 "'kern' Horizontal Kerning lookup 0 kerning class 3"

StartChar: exclam
Encoding: 33 33 4
Width: 549
GlyphClass: 1
Flags: W
LayerCount: 2
Fore
SplineSet
391 491 m 1,0,-1
 148 491 l 1,1,-1
 292 1456 l 1,2,-1
 535 1456 l 1,3,-1
 391 491 l 1,0,-1
317 0 m 1,4,-1
 74 0 l 1,5,-1
 109 234 l 1,6,-1
 352 234 l 1,7,-1
 317 0 l 1,4,-1
EndSplineSet
Validated: 1
EndChar

StartChar: quotedbl
Encoding: 34 34 5
Width: 781
GlyphClass: 1
Flags: W
LayerCount: 2
Fore
SplineSet
437 1181 m 1,0,-1
 300 932 l 1,1,-1
 188 932 l 1,2,-1
 222 1169 l 1,3,-1
 262 1456 l 1,4,-1
 476 1456 l 1,5,-1
 437 1181 l 1,0,-1
762 1181 m 1,6,-1
 625 932 l 1,7,-1
 513 932 l 1,8,-1
 548 1177 l 1,9,-1
 587 1456 l 1,10,-1
 801 1456 l 1,11,-1
 762 1181 l 1,6,-1
EndSplineSet
Validated: 1
EndChar

StartChar: numbersign
Encoding: 35 35 6
Width: 1250
GlyphClass: 1
Flags: W
LayerCount: 2
Fore
SplineSet
664 410 m 1,0,-1
 440 410 l 1,1,-1
 302 0 l 1,2,-1
 135 0 l 1,3,-1
 273 410 l 1,4,-1
 42 410 l 1,5,-1
 65 568 l 1,6,-1
 326 568 l 1,7,-1
 431 881 l 1,8,-1
 188 881 l 1,9,-1
 212 1040 l 1,10,-1
 485 1040 l 1,11,-1
 625 1456 l 1,12,-1
 792 1456 l 1,13,-1
 652 1040 l 1,14,-1
 876 1040 l 1,15,-1
 1016 1456 l 1,16,-1
 1184 1456 l 1,17,-1
 1044 1040 l 1,18,-1
 1252 1040 l 1,19,-1
 1228 881 l 1,20,-1
 990 881 l 1,21,-1
 885 568 l 1,22,-1
 1106 568 l 1,23,-1
 1083 410 l 1,24,-1
 832 410 l 1,25,-1
 694 0 l 1,26,-1
 527 0 l 1,27,-1
 664 410 l 1,0,-1
493 568 m 1,28,-1
 717 568 l 1,29,-1
 822 881 l 1,30,-1
 598 881 l 1,31,-1
 493 568 l 1,28,-1
EndSplineSet
Validated: 1
EndChar

StartChar: dollar
Encoding: 36 36 7
Width: 1205
GlyphClass: 1
Flags: W
LayerCount: 2
Fore
SplineSet
819 380 m 0,0,1
 831 469 831 469 784.5 522.5 c 128,-1,2
 738 576 738 576 608 623 c 0,3,4
 405 691 405 691 313.5 793.5 c 128,-1,5
 222 896 222 896 247 1073 c 0,6,7
 271 1247 271 1247 386.5 1350.5 c 128,-1,8
 502 1454 502 1454 681 1473 c 1,9,-1
 712 1691 l 1,10,-1
 871 1691 l 1,11,-1
 840 1471 l 1,12,13
 1005 1446 1005 1446 1088 1329.5 c 128,-1,14
 1171 1213 1171 1213 1146 1025 c 1,15,-1
 904 1025 l 1,16,17
 920 1146 920 1146 874 1211 c 128,-1,18
 828 1276 828 1276 726 1276 c 256,19,20
 624 1276 624 1276 563 1221 c 128,-1,21
 502 1166 502 1166 490 1075 c 0,22,23
 477 986 477 986 522 935.5 c 128,-1,24
 567 885 567 885 704 832 c 1,25,26
 907 764 907 764 997 661.5 c 128,-1,27
 1087 559 1087 559 1062 382 c 0,28,29
 1037 201 1037 201 918.5 100.5 c 128,-1,30
 800 0 800 0 611 -17 c 1,31,-1
 584 -211 l 1,32,-1
 425 -211 l 1,33,-1
 452 -17 l 1,34,35
 279 2 279 2 175.5 112.5 c 128,-1,36
 72 223 72 223 102 436 c 1,37,-1
 344 436 l 1,38,39
 324 291 324 291 385 235 c 128,-1,40
 446 179 446 179 555 179 c 256,41,42
 664 179 664 179 735 233.5 c 128,-1,43
 806 288 806 288 819 380 c 0,0,1
EndSplineSet
Validated: 33
EndChar

StartChar: percent
Encoding: 37 37 8
Width: 1504
GlyphClass: 1
Flags: W
LayerCount: 2
Fore
SplineSet
196 1176 m 2,0,1
 215 1309 215 1309 310.5 1393 c 128,-1,2
 406 1477 406 1477 550 1477 c 0,3,4
 688 1477 688 1477 760 1390 c 128,-1,5
 832 1303 832 1303 813 1176 c 2,6,-1
 802 1099 l 2,7,8
 781 966 781 966 687 883 c 128,-1,9
 593 800 593 800 450 800 c 0,10,11
 312 800 312 800 238.5 886.5 c 128,-1,12
 165 973 165 973 185 1099 c 2,13,-1
 196 1176 l 2,0,1
354 1099 m 2,14,15
 343 1033 343 1033 373 989.5 c 128,-1,16
 403 946 403 946 472 946 c 0,17,18
 535 946 535 946 578.5 990.5 c 128,-1,19
 622 1035 622 1035 632 1099 c 2,20,-1
 643 1176 l 2,21,22
 653 1243 653 1243 624 1287 c 128,-1,23
 595 1331 595 1331 528 1331 c 0,24,25
 464 1331 464 1331 419.5 1285.5 c 128,-1,26
 375 1240 375 1240 365 1176 c 2,27,-1
 354 1099 l 2,14,15
774 357 m 2,28,29
 793 489 793 489 888 573 c 128,-1,30
 983 657 983 657 1127 657 c 0,31,32
 1265 657 1265 657 1337 570 c 128,-1,33
 1409 483 1409 483 1391 357 c 2,34,-1
 1379 279 l 2,35,36
 1358 146 1358 146 1264.5 62.5 c 128,-1,37
 1171 -21 1171 -21 1027 -21 c 0,38,39
 889 -21 889 -21 815.5 66 c 128,-1,40
 742 153 742 153 762 279 c 2,41,-1
 774 357 l 2,28,29
931 279 m 2,42,43
 920 213 920 213 951.5 169 c 128,-1,44
 983 125 983 125 1049 125 c 0,45,46
 1116 125 1116 125 1158 169 c 128,-1,47
 1200 213 1200 213 1210 279 c 2,48,-1
 1222 357 l 2,49,50
 1231 424 1231 424 1201.5 467.5 c 128,-1,51
 1172 511 1172 511 1105 511 c 0,52,53
 1041 511 1041 511 996.5 465.5 c 128,-1,54
 952 420 952 420 943 357 c 2,55,-1
 931 279 l 2,42,43
396 109 m 1,56,-1
 282 181 l 1,57,-1
 1164 1319 l 1,58,-1
 1278 1247 l 1,59,-1
 396 109 l 1,56,-1
EndSplineSet
Validated: 33
EndChar

StartChar: ampersand
Encoding: 38 38 9
Width: 1309
GlyphClass: 1
Flags: W
LayerCount: 2
Fore
SplineSet
41 393 m 0,0,1
 59 519 59 519 138 604 c 128,-1,2
 217 689 217 689 369 783 c 1,3,4
 311 877 311 877 286.5 953 c 128,-1,5
 262 1029 262 1029 275 1109 c 0,6,7
 302 1292 302 1292 417.5 1384.5 c 128,-1,8
 533 1477 533 1477 712 1477 c 0,9,10
 864 1477 864 1477 952 1380.5 c 128,-1,11
 1040 1284 1040 1284 1021 1151 c 0,12,13
 1004 1046 1004 1046 946.5 974.5 c 128,-1,14
 889 903 889 903 783 831 c 2,15,-1
 668 756 l 1,16,-1
 915 399 l 1,17,18
 965 462 965 462 998.5 536.5 c 128,-1,19
 1032 611 1032 611 1045 694 c 1,20,-1
 1249 694 l 1,21,22
 1227 550 1227 550 1173 435.5 c 128,-1,23
 1119 321 1119 321 1030 232 c 1,24,-1
 1192 0 l 1,25,-1
 911 0 l 1,26,-1
 844 95 l 1,27,28
 754 38 754 38 656 8.5 c 128,-1,29
 558 -21 558 -21 454 -21 c 0,30,31
 245 -21 245 -21 129 95.5 c 128,-1,32
 13 212 13 212 41 393 c 0,0,1
490 173 m 0,33,34
 550 173 550 173 613.5 191.5 c 128,-1,35
 677 210 677 210 739 246 c 1,36,-1
 472 628 l 1,37,-1
 443 609 l 2,38,39
 359 553 359 553 325.5 500.5 c 128,-1,40
 292 448 292 448 285 401 c 0,41,42
 269 298 269 298 322.5 235.5 c 128,-1,43
 376 173 376 173 490 173 c 0,33,34
504 1112 m 0,44,45
 496 1063 496 1063 512.5 1013.5 c 128,-1,46
 529 964 529 964 567 903 c 1,47,-1
 687 976 l 2,48,49
 750 1013 750 1013 775 1053 c 128,-1,50
 800 1093 800 1093 808 1143 c 0,51,52
 816 1199 816 1199 781.5 1240.5 c 128,-1,53
 747 1282 747 1282 678 1282 c 0,54,55
 611 1282 611 1282 562.5 1232 c 128,-1,56
 514 1182 514 1182 504 1112 c 0,44,45
EndSplineSet
Validated: 33
EndChar

StartChar: quotesingle
Encoding: 39 39 10
Width: 444
GlyphClass: 1
Flags: W
LayerCount: 2
Fore
SplineSet
432 1207 m 1,0,-1
 290 924 l 1,1,-1
 163 924 l 1,2,-1
 201 1191 l 1,3,-1
 238 1456 l 1,4,-1
 467 1456 l 1,5,-1
 432 1207 l 1,0,-1
EndSplineSet
Validated: 1
EndChar

StartChar: parenleft
Encoding: 40 40 11
Width: 695
GlyphClass: 1
Flags: W
LayerCount: 2
Fore
SplineSet
136 592 m 1,0,1
 193 1003 193 1003 384.5 1270 c 128,-1,2
 576 1537 576 1537 775 1624 c 1,3,-1
 781 1623 l 1,4,-1
 807 1489 l 1,5,6
 659 1387 659 1387 531.5 1162 c 128,-1,7
 404 937 404 937 357 594 c 1,8,-1
 354 574 l 2,9,10
 304 216 304 216 367 0 c 128,-1,11
 430 -216 430 -216 553 -328 c 1,12,-1
 489 -456 l 1,13,-1
 483 -456 l 1,14,15
 313 -370 313 -370 195.5 -94 c 128,-1,16
 78 182 78 182 134 576 c 1,17,-1
 136 592 l 1,0,1
EndSplineSet
Validated: 33
EndChar

StartChar: parenright
Encoding: 41 41 12
Width: 700
GlyphClass: 1
Flags: W
LayerCount: 2
Fore
SplineSet
577 576 m 1,0,1
 519 170 519 170 324 -99 c 128,-1,2
 129 -368 129 -368 -70 -456 c 1,3,-1
 -76 -455 l 1,4,-1
 -104 -328 l 1,5,6
 43 -226 43 -226 170.5 2 c 128,-1,7
 298 230 298 230 347 574 c 2,8,-1
 350 594 l 1,9,10
 399 948 399 948 333.5 1168 c 128,-1,11
 268 1388 268 1388 151 1495 c 1,12,-1
 216 1624 l 1,13,-1
 222 1624 l 1,14,15
 392 1540 392 1540 512 1260 c 128,-1,16
 632 980 632 980 579 592 c 1,17,-1
 577 576 l 1,0,1
EndSplineSet
Validated: 33
EndChar

StartChar: asterisk
Encoding: 42 42 13
Width: 872
GlyphClass: 1
Flags: W
LayerCount: 2
Fore
SplineSet
324 678 m 1,0,-1
 103 751 l 1,1,-1
 178 915 l 1,2,-1
 404 832 l 1,3,-1
 436 1081 l 1,4,-1
 605 1081 l 1,5,-1
 565 824 l 1,6,-1
 808 907 l 1,7,-1
 834 740 l 1,8,-1
 585 667 l 1,9,-1
 701 467 l 1,10,-1
 548 365 l 1,11,-1
 435 576 l 1,12,-1
 265 373 l 1,13,-1
 141 472 l 1,14,-1
 324 678 l 1,0,-1
EndSplineSet
Validated: 1
EndChar

StartChar: plus
Encoding: 43 43 14
Width: 1141
GlyphClass: 1
Flags: W
LayerCount: 2
Fore
SplineSet
726 801 m 1,0,-1
 1106 801 l 1,1,-1
 1073 579 l 1,2,-1
 693 579 l 1,3,-1
 628 146 l 1,4,-1
 392 146 l 1,5,-1
 457 579 l 1,6,-1
 75 579 l 1,7,-1
 108 801 l 1,8,-1
 490 801 l 1,9,-1
 551 1206 l 1,10,-1
 787 1206 l 1,11,-1
 726 801 l 1,0,-1
EndSplineSet
Validated: 1
EndChar

StartChar: comma
Encoding: 44 44 15
Width: 462
GlyphClass: 1
Flags: W
LayerCount: 2
Fore
SplineSet
288 31 m 1,0,-1
 86 -281 l 1,1,-1
 -68 -281 l 1,2,-1
 50 40 l 1,3,-1
 80 238 l 1,4,-1
 319 238 l 1,5,-1
 288 31 l 1,0,-1
EndSplineSet
Validated: 1
EndChar

StartChar: hyphen
Encoding: 45 45 16
Width: 910
GlyphClass: 1
Flags: W
LayerCount: 2
Fore
SplineSet
746 521 m 1,0,-1
 156 521 l 1,1,-1
 186 717 l 1,2,-1
 776 717 l 1,3,-1
 746 521 l 1,0,-1
EndSplineSet
Validated: 1
EndChar

StartChar: period
Encoding: 46 46 17
Width: 572
GlyphClass: 1
Flags: W
LayerCount: 2
Fore
SplineSet
315 0 m 1,0,-1
 73 0 l 1,1,-1
 108 233 l 1,2,-1
 350 233 l 1,3,-1
 315 0 l 1,0,-1
EndSplineSet
Validated: 1
EndChar

StartChar: slash
Encoding: 47 47 18
Width: 839
GlyphClass: 1
Flags: W
LayerCount: 2
Fore
SplineSet
126 -125 m 1,0,-1
 -97 -125 l 1,1,-1
 713 1456 l 1,2,-1
 936 1456 l 1,3,-1
 126 -125 l 1,0,-1
EndSplineSet
Validated: 1
EndChar

StartChar: zero
Encoding: 48 48 19
Width: 1164
GlyphClass: 1
Flags: W
LayerCount: 2
Fore
SplineSet
1057 521 m 2,0,1
 1018 259 1018 259 868.5 119 c 128,-1,2
 719 -21 719 -21 500 -21 c 0,3,4
 291 -21 291 -21 177.5 125.5 c 128,-1,5
 64 272 64 272 102 521 c 2,6,-1
 164 934 l 2,7,8
 202 1194 202 1194 352.5 1335.5 c 128,-1,9
 503 1477 503 1477 723 1477 c 0,10,11
 932 1477 932 1477 1044 1329.5 c 128,-1,12
 1156 1182 1156 1182 1119 934 c 2,13,-1
 1057 521 l 2,0,1
882 971 m 2,14,15
 904 1123 904 1123 855 1202.5 c 128,-1,16
 806 1282 806 1282 693 1282 c 0,17,18
 585 1282 585 1282 509.5 1198.5 c 128,-1,19
 434 1115 434 1115 413 971 c 2,20,-1
 340 486 l 2,21,22
 316 333 316 333 366 253 c 128,-1,23
 416 173 416 173 529 173 c 0,24,25
 636 173 636 173 711.5 256 c 128,-1,26
 787 339 787 339 809 486 c 2,27,-1
 882 971 l 2,14,15
EndSplineSet
Validated: 33
EndChar

StartChar: one
Encoding: 49 49 20
Width: 1164
GlyphClass: 1
Flags: W
LayerCount: 2
Fore
SplineSet
671 0 m 1,0,-1
 428 0 l 1,1,-1
 613 1232 l 1,2,-1
 304 1232 l 1,3,-1
 333 1425 l 1,4,-1
 893 1477 l 1,5,-1
 671 0 l 1,0,-1
EndSplineSet
Validated: 1
EndChar

StartChar: two
Encoding: 50 50 21
Width: 1164
GlyphClass: 1
Flags: W
LayerCount: 2
Fore
SplineSet
998 0 m 1,0,-1
 59 0 l 1,1,-1
 82 167 l 1,2,-1
 611 693 l 2,3,4
 740 824 740 824 795 909 c 128,-1,5
 850 994 850 994 861 1072 c 0,6,7
 874 1168 874 1168 830.5 1225 c 128,-1,8
 787 1282 787 1282 689 1282 c 0,9,10
 581 1282 581 1282 508 1208 c 128,-1,11
 435 1134 435 1134 421 1025 c 1,12,-1
 187 1025 l 1,13,-1
 185 1031 l 1,14,15
 207 1225 207 1225 352 1351 c 128,-1,16
 497 1477 497 1477 717 1477 c 0,17,18
 918 1477 918 1477 1023.5 1364 c 128,-1,19
 1129 1251 1129 1251 1104 1071 c 0,20,21
 1085 943 1085 943 1008 840.5 c 128,-1,22
 931 738 931 738 750 551 c 1,23,-1
 394 200 l 1,24,-1
 396 194 l 1,25,-1
 1025 194 l 1,26,-1
 998 0 l 1,0,-1
EndSplineSet
Validated: 33
EndChar

StartChar: three
Encoding: 51 51 22
Width: 1164
GlyphClass: 1
Flags: W
LayerCount: 2
Fore
SplineSet
465 844 m 1,0,-1
 627 844 l 2,1,2
 741 844 741 844 803.5 904 c 128,-1,3
 866 964 866 964 882 1068 c 0,4,5
 896 1166 896 1166 849.5 1224 c 128,-1,6
 803 1282 803 1282 696 1282 c 0,7,8
 602 1282 602 1282 526 1223 c 128,-1,9
 450 1164 450 1164 438 1077 c 1,10,-1
 205 1077 l 1,11,-1
 204 1083 l 1,12,13
 224 1256 224 1256 372.5 1366.5 c 128,-1,14
 521 1477 521 1477 726 1477 c 0,15,16
 932 1477 932 1477 1042.5 1371.5 c 128,-1,17
 1153 1266 1153 1266 1124 1068 c 0,18,19
 1108 963 1108 963 1041.5 880.5 c 128,-1,20
 975 798 975 798 870 752 c 1,21,22
 973 707 973 707 1019.5 619 c 128,-1,23
 1066 531 1066 531 1048 408 c 0,24,25
 1016 199 1016 199 866.5 89 c 128,-1,26
 717 -21 717 -21 501 -21 c 0,27,28
 315 -21 315 -21 183.5 88.5 c 128,-1,29
 52 198 52 198 85 384 c 1,30,-1
 87 390 l 1,31,-1
 322 390 l 1,32,33
 307 295 307 295 364.5 234 c 128,-1,34
 422 173 422 173 530 173 c 0,35,36
 636 173 636 173 712.5 239.5 c 128,-1,37
 789 306 789 306 805 407 c 0,38,39
 824 536 824 536 773.5 594.5 c 128,-1,40
 723 653 723 653 598 653 c 2,41,-1
 436 653 l 1,42,-1
 443 703 l 1,43,-1
 456 786 l 1,44,-1
 457 793 l 1,45,-1
 465 844 l 1,0,-1
EndSplineSet
Validated: 33
EndChar

StartChar: four
Encoding: 52 52 23
Width: 1164
GlyphClass: 1
Flags: W
LayerCount: 2
Fore
SplineSet
920 519 m 1,0,-1
 1104 519 l 1,1,-1
 1074 323 l 1,2,-1
 890 323 l 1,3,-1
 842 0 l 1,4,-1
 600 0 l 1,5,-1
 648 323 l 1,6,-1
 39 323 l 1,7,-1
 56 472 l 1,8,-1
 811 1456 l 1,9,-1
 1060 1456 l 1,10,-1
 920 519 l 1,0,-1
304 524 m 1,11,-1
 307 519 l 1,12,-1
 678 519 l 1,13,-1
 767 1111 l 1,14,-1
 761 1113 l 1,15,-1
 730 1058 l 1,16,-1
 304 524 l 1,11,-1
EndSplineSet
Validated: 1
EndChar

StartChar: five
Encoding: 53 53 24
Width: 1164
GlyphClass: 1
Flags: W
LayerCount: 2
Fore
SplineSet
175 644 m 1,0,-1
 380 1456 l 1,1,-1
 1148 1456 l 1,2,-1
 1117 1246 l 1,3,-1
 551 1246 l 1,4,-1
 451 875 l 1,5,6
 500 906 500 906 562 927 c 128,-1,7
 624 948 624 948 696 949 c 0,8,9
 899 951 899 951 993 822.5 c 128,-1,10
 1087 694 1087 694 1053 465 c 0,11,12
 1019 242 1019 242 881 110.5 c 128,-1,13
 743 -21 743 -21 505 -21 c 0,14,15
 320 -21 320 -21 199.5 83.5 c 128,-1,16
 79 188 79 188 112 378 c 1,17,-1
 115 383 l 1,18,-1
 345 390 l 1,19,20
 329 284 329 284 381.5 228.5 c 128,-1,21
 434 173 434 173 534 173 c 0,22,23
 644 173 644 173 716.5 251 c 128,-1,24
 789 329 789 329 809 463 c 0,25,26
 829 598 829 598 780.5 675.5 c 128,-1,27
 732 753 732 753 618 753 c 0,28,29
 522 753 522 753 466 720 c 128,-1,30
 410 687 410 687 380 627 c 1,31,-1
 175 644 l 1,0,-1
EndSplineSet
Validated: 33
EndChar

StartChar: six
Encoding: 54 54 25
Width: 1164
GlyphClass: 1
Flags: W
LayerCount: 2
Fore
SplineSet
796 1477 m 0,0,1
 878 1477 878 1477 956.5 1460.5 c 128,-1,2
 1035 1444 1035 1444 1093 1417 c 1,3,-1
 1017 1229 l 1,4,5
 960 1253 960 1253 903 1266.5 c 128,-1,6
 846 1280 846 1280 767 1280 c 0,7,8
 639 1280 639 1280 538.5 1172 c 128,-1,9
 438 1064 438 1064 413 890 c 2,10,-1
 402 819 l 1,11,12
 470 876 470 876 556 907.5 c 128,-1,13
 642 939 642 939 740 939 c 0,14,15
 920 939 920 939 1011 808.5 c 128,-1,16
 1102 678 1102 678 1072 472 c 0,17,18
 1037 242 1037 242 890 110.5 c 128,-1,19
 743 -21 743 -21 528 -21 c 0,20,21
 321 -21 321 -21 200.5 135 c 128,-1,22
 80 291 80 291 121 558 c 2,23,-1
 168 875 l 2,24,25
 210 1153 210 1153 386.5 1315 c 128,-1,26
 563 1477 563 1477 796 1477 c 0,0,1
633 750 m 0,27,28
 549 750 549 750 482 717.5 c 128,-1,29
 415 685 415 685 373 629 c 1,30,-1
 361 545 l 2,31,32
 333 364 333 364 389 268.5 c 128,-1,33
 445 173 445 173 557 173 c 0,34,35
 660 173 660 173 735 258 c 128,-1,36
 810 343 810 343 830 472 c 0,37,38
 850 605 850 605 798.5 677.5 c 128,-1,39
 747 750 747 750 633 750 c 0,27,28
EndSplineSet
Validated: 33
EndChar

StartChar: seven
Encoding: 55 55 26
Width: 1164
GlyphClass: 1
Flags: W
LayerCount: 2
Fore
SplineSet
1187 1261 m 1,0,1
 878 951 878 951 749.5 712 c 128,-1,2
 621 473 621 473 576 171 c 2,3,-1
 550 0 l 1,4,-1
 307 0 l 1,5,-1
 333 171 l 2,6,7
 382 499 382 499 533 745.5 c 128,-1,8
 684 992 684 992 951 1261 c 1,9,-1
 194 1261 l 1,10,-1
 223 1456 l 1,11,-1
 1216 1456 l 1,12,-1
 1187 1261 l 1,0,1
EndSplineSet
Validated: 1
EndChar

StartChar: eight
Encoding: 56 56 27
Width: 1164
GlyphClass: 1
Flags: W
LayerCount: 2
Fore
SplineSet
1114 1080 m 0,0,1
 1096 965 1096 965 1024.5 880.5 c 128,-1,2
 953 796 953 796 846 753 c 1,3,4
 957 705 957 705 1015.5 613.5 c 128,-1,5
 1074 522 1074 522 1057 404 c 0,6,7
 1025 193 1025 193 875.5 86 c 128,-1,8
 726 -21 726 -21 513 -21 c 0,9,10
 299 -21 299 -21 171 91 c 128,-1,11
 43 203 43 203 74 404 c 0,12,13
 92 530 92 530 179.5 621.5 c 128,-1,14
 267 713 267 713 401 758 c 1,15,16
 302 804 302 804 252.5 888 c 128,-1,17
 203 972 203 972 220 1080 c 0,18,19
 250 1280 250 1280 389.5 1378.5 c 128,-1,20
 529 1477 529 1477 736 1477 c 0,21,22
 922 1477 922 1477 1032 1373.5 c 128,-1,23
 1142 1270 1142 1270 1114 1080 c 0,0,1
816 413 m 0,24,25
 832 524 832 524 774 590.5 c 128,-1,26
 716 657 716 657 613 657 c 0,27,28
 505 657 505 657 419.5 588 c 128,-1,29
 334 519 334 519 318 413 c 0,30,31
 301 300 301 300 363.5 236.5 c 128,-1,32
 426 173 426 173 542 173 c 0,33,34
 640 173 640 173 719.5 239 c 128,-1,35
 799 305 799 305 816 413 c 0,24,25
870 1071 m 0,36,37
 884 1169 884 1169 838 1225.5 c 128,-1,38
 792 1282 792 1282 706 1282 c 0,39,40
 614 1282 614 1282 545 1225 c 128,-1,41
 476 1168 476 1168 462 1071 c 0,42,43
 446 969 446 969 497 910.5 c 128,-1,44
 548 852 548 852 644 852 c 0,45,46
 725 852 725 852 790 913 c 128,-1,47
 855 974 855 974 870 1071 c 0,36,37
EndSplineSet
Validated: 33
EndChar

StartChar: nine
Encoding: 57 57 28
Width: 1164
GlyphClass: 1
Flags: W
LayerCount: 2
Fore
SplineSet
461 173 m 0,0,1
 582 173 582 173 676.5 262.5 c 128,-1,2
 771 352 771 352 795 512 c 2,3,-1
 810 611 l 1,4,5
 752 546 752 546 678 514 c 128,-1,6
 604 482 604 482 523 482 c 0,7,8
 324 482 324 482 222 614.5 c 128,-1,9
 120 747 120 747 155 974 c 0,10,11
 189 1202 189 1202 340.5 1339.5 c 128,-1,12
 492 1477 492 1477 693 1477 c 0,13,14
 904 1477 904 1477 1021.5 1333 c 128,-1,15
 1139 1189 1139 1189 1101 934 c 2,16,-1
 1039 521 l 2,17,18
 999 258 999 258 832.5 118.5 c 128,-1,19
 666 -21 666 -21 432 -21 c 0,20,21
 358 -21 358 -21 278 -5 c 128,-1,22
 198 11 198 11 133 42 c 1,23,-1
 200 227 l 1,24,25
 261 198 261 198 321 185.5 c 128,-1,26
 381 173 381 173 461 173 c 0,0,1
575 671 m 0,27,28
 659 671 659 671 727.5 708.5 c 128,-1,29
 796 746 796 746 839 806 c 1,30,-1
 864 976 l 2,31,32
 887 1129 887 1129 834.5 1205.5 c 128,-1,33
 782 1282 782 1282 667 1282 c 0,34,35
 573 1282 573 1282 495 1194 c 128,-1,36
 417 1106 417 1106 397 974 c 0,37,38
 375 832 375 832 420.5 751.5 c 128,-1,39
 466 671 466 671 575 671 c 0,27,28
EndSplineSet
Validated: 33
EndChar

StartChar: less
Encoding: 60 60 31
Width: 1041
GlyphClass: 1
Flags: W
LayerCount: 2
Fore
SplineSet
326 559 m 1,0,-1
 306 556 l 1,1,-1
 306 550 l 1,2,-1
 324 547 l 1,3,-1
 869 329 l 1,4,-1
 833 86 l 1,5,-1
 52 458 l 1,6,-1
 61 519 l 1,7,-1
 72 590 l 1,8,-1
 81 651 l 1,9,-1
 973 1023 l 1,10,-1
 937 781 l 1,11,-1
 326 559 l 1,0,-1
EndSplineSet
Validated: 1
EndChar

StartChar: equal
Encoding: 61 61 32
Width: 1166
GlyphClass: 1
Flags: W
LayerCount: 2
Fore
SplineSet
1046 790 m 1,0,-1
 184 790 l 1,1,-1
 214 992 l 1,2,-1
 1076 992 l 1,3,-1
 1046 790 l 1,0,-1
982 366 m 1,4,-1
 120 366 l 1,5,-1
 150 567 l 1,6,-1
 1012 567 l 1,7,-1
 982 366 l 1,4,-1
EndSplineSet
Validated: 1
EndChar

StartChar: greater
Encoding: 62 62 33
Width: 1066
GlyphClass: 1
Flags: W
LayerCount: 2
Fore
SplineSet
164 770 m 1,0,-1
 199 1009 l 1,1,-1
 1008 637 l 1,2,-1
 988 505 l 1,3,-1
 979 444 l 1,4,-1
 59 72 l 1,5,-1
 95 311 l 1,6,-1
 734 537 l 1,7,-1
 753 540 l 1,8,-1
 753 546 l 1,9,-1
 735 549 l 1,10,-1
 164 770 l 1,0,-1
EndSplineSet
Validated: 1
EndChar

StartChar: question
Encoding: 63 63 34
Width: 996
GlyphClass: 1
Flags: W
LayerCount: 2
Fore
SplineSet
322 412 m 1,0,1
 345 555 345 555 386 616.5 c 128,-1,2
 427 678 427 678 551 771 c 1,3,4
 641 848 641 848 697 917 c 128,-1,5
 753 986 753 986 766 1070 c 0,6,7
 780 1170 780 1170 736 1222 c 128,-1,8
 692 1274 692 1274 594 1274 c 0,9,10
 513 1274 513 1274 447 1228.5 c 128,-1,11
 381 1183 381 1183 368 1094 c 1,12,-1
 134 1094 l 1,13,-1
 132 1100 l 1,14,15
 156 1278 156 1278 293.5 1377.5 c 128,-1,16
 431 1477 431 1477 625 1477 c 0,17,18
 827 1477 827 1477 932 1368.5 c 128,-1,19
 1037 1260 1037 1260 1009 1073 c 0,20,21
 989 941 989 941 901.5 836 c 128,-1,22
 814 731 814 731 685 639 c 0,23,24
 621 590 621 590 599.5 544.5 c 128,-1,25
 578 499 578 499 565 412 c 1,26,-1
 322 412 l 1,0,1
507 0 m 1,27,-1
 259 0 l 1,28,-1
 294 233 l 1,29,-1
 542 233 l 1,30,-1
 507 0 l 1,27,-1
EndSplineSet
Validated: 33
EndChar

StartChar: at
Encoding: 64 64 35
Width: 1825
GlyphClass: 1
Flags: W
LayerCount: 2
Fore
SplineSet
1727 507 m 0,0,1
 1686 292 1686 292 1547.5 135.5 c 128,-1,2
 1409 -21 1409 -21 1180 -21 c 0,3,4
 1109 -21 1109 -21 1060 21.5 c 128,-1,5
 1011 64 1011 64 997 141 c 1,6,7
 938 60 938 60 862.5 20.5 c 128,-1,8
 787 -19 787 -19 695 -19 c 0,9,10
 568 -19 568 -19 511.5 101.5 c 128,-1,11
 455 222 455 222 502 416 c 0,12,13
 565 672 565 672 704.5 827 c 128,-1,14
 844 982 844 982 1010 982 c 0,15,16
 1116 982 1116 982 1183 955 c 128,-1,17
 1250 928 1250 928 1319 876 c 1,18,-1
 1315 872 l 1,19,-1
 1321 872 l 1,20,-1
 1183 293 l 2,21,22
 1160 192 1160 192 1180 154 c 128,-1,23
 1200 116 1200 116 1243 116 c 0,24,25
 1357 116 1357 116 1448 228 c 128,-1,26
 1539 340 1539 340 1572 507 c 0,27,28
 1644 874 1644 874 1518.5 1079 c 128,-1,29
 1393 1284 1393 1284 1065 1284 c 0,30,31
 771 1284 771 1284 547.5 1060.5 c 128,-1,32
 324 837 324 837 256 478 c 0,33,34
 183 113 183 113 317 -97 c 128,-1,35
 451 -307 451 -307 761 -307 c 0,36,37
 844 -307 844 -307 939.5 -286.5 c 128,-1,38
 1035 -266 1035 -266 1103 -234 c 1,39,-1
 1121 -364 l 1,40,41
 1048 -406 1048 -406 941 -429.5 c 128,-1,42
 834 -453 834 -453 735 -453 c 0,43,44
 363 -453 363 -453 182.5 -201 c 128,-1,45
 2 51 2 51 83 478 c 0,46,47
 165 902 165 902 437.5 1163 c 128,-1,48
 710 1424 710 1424 1090 1424 c 0,49,50
 1458 1424 1458 1424 1632 1175.5 c 128,-1,51
 1806 927 1806 927 1727 507 c 0,0,1
703 416 m 0,52,53
 673 283 673 283 693 214 c 128,-1,54
 713 145 713 145 782 145 c 0,55,56
 840 145 840 145 893.5 169.5 c 128,-1,57
 947 194 947 194 997 258 c 1,58,59
 998 268 998 268 999.5 276 c 128,-1,60
 1001 284 1001 284 1004 293 c 2,61,-1
 1127 808 l 1,62,63
 1104 817 1104 817 1079 822.5 c 128,-1,64
 1054 828 1054 828 1026 828 c 0,65,66
 912 828 912 828 832.5 724 c 128,-1,67
 753 620 753 620 703 416 c 0,52,53
EndSplineSet
Validated: 33
EndChar

StartChar: A
Encoding: 65 65 36
Width: 1300
GlyphClass: 1
Flags: W
LayerCount: 2
Fore
SplineSet
882 340 m 1,0,-1
 366 340 l 1,1,-1
 203 0 l 1,2,-1
 -48 0 l 1,3,-1
 678 1456 l 1,4,-1
 909 1456 l 1,5,-1
 1193 0 l 1,6,-1
 942 0 l 1,7,-1
 882 340 l 1,0,-1
464 543 m 1,8,-1
 846 543 l 1,9,-1
 746 1115 l 1,10,-1
 740 1116 l 1,11,-1
 464 543 l 1,8,-1
EndSplineSet
Validated: 1
Substitution2: "'smcp' Lowercase to Small Capitals lookup 0 subtable" A.smcp
EndChar

StartChar: B
Encoding: 66 66 37
Width: 1304
GlyphClass: 1
Flags: W
LayerCount: 2
Fore
SplineSet
73 0 m 1,0,-1
 291 1456 l 1,1,-1
 768 1456 l 2,2,3
 1000 1456 1000 1456 1125.5 1355.5 c 128,-1,4
 1251 1255 1251 1255 1222 1059 c 0,5,6
 1207 959 1207 959 1142 883.5 c 128,-1,7
 1077 808 1077 808 975 769 c 1,8,9
 1110 745 1110 745 1170 647 c 128,-1,10
 1230 549 1230 549 1211 418 c 0,11,12
 1178 205 1178 205 1031 102.5 c 128,-1,13
 884 0 884 0 644 0 c 2,14,-1
 73 0 l 1,0,-1
415 662 m 1,15,-1
 345 194 l 1,16,-1
 673 194 l 2,17,18
 794 194 794 194 873 252 c 128,-1,19
 952 310 952 310 969 418 c 0,20,21
 985 532 985 532 928 595 c 128,-1,22
 871 658 871 658 749 662 c 1,23,-1
 737 662 l 1,24,-1
 415 662 l 1,15,-1
442 843 m 1,25,-1
 702 843 l 2,26,27
 811 843 811 843 886.5 897 c 128,-1,28
 962 951 962 951 977 1048 c 0,29,30
 993 1160 993 1160 933 1210.5 c 128,-1,31
 873 1261 873 1261 739 1261 c 2,32,-1
 505 1261 l 1,33,-1
 442 843 l 1,25,-1
EndSplineSet
Validated: 33
Substitution2: "'smcp' Lowercase to Small Capitals lookup 0 subtable" B.smcp
EndChar

StartChar: C
Encoding: 67 67 38
Width: 1300
GlyphClass: 1
Flags: W
LayerCount: 2
Fore
SplineSet
1207 476 m 1,0,-1
 1209 470 l 1,1,2
 1179 242 1179 242 1014 110.5 c 128,-1,3
 849 -21 849 -21 596 -21 c 0,4,5
 352 -21 352 -21 214.5 152 c 128,-1,6
 77 325 77 325 117 589 c 2,7,-1
 159 866 l 2,8,9
 200 1143 200 1143 380 1310 c 128,-1,10
 560 1477 560 1477 814 1477 c 0,11,12
 1061 1477 1061 1477 1193.5 1344.5 c 128,-1,13
 1326 1212 1326 1212 1288 987 c 1,14,-1
 1285 981 l 1,15,-1
 1050 981 l 1,16,17
 1073 1132 1073 1132 1006 1207 c 128,-1,18
 939 1282 939 1282 784 1282 c 0,19,20
 642 1282 642 1282 534.5 1163 c 128,-1,21
 427 1044 427 1044 401 868 c 2,22,-1
 359 589 l 2,23,24
 331 401 331 401 401.5 287 c 128,-1,25
 472 173 472 173 625 173 c 0,26,27
 768 173 768 173 860 252 c 128,-1,28
 952 331 952 331 974 476 c 1,29,-1
 1207 476 l 1,0,-1
EndSplineSet
Validated: 33
Substitution2: "'smcp' Lowercase to Small Capitals lookup 0 subtable" C.smcp
EndChar

StartChar: D
Encoding: 68 68 39
Width: 1372
GlyphClass: 1
Flags: W
LayerCount: 2
Fore
SplineSet
73 0 m 1,0,-1
 291 1456 l 1,1,-1
 772 1456 l 2,2,3
 1038 1456 1038 1456 1191 1281.5 c 128,-1,4
 1344 1107 1344 1107 1304 838 c 2,5,-1
 1271 617 l 2,6,7
 1228 334 1228 334 1031.5 167 c 128,-1,8
 835 0 835 0 554 0 c 2,9,-1
 73 0 l 1,0,-1
505 1261 m 1,10,-1
 345 194 l 1,11,-1
 583 194 l 2,12,13
 751 194 751 194 875 314 c 128,-1,14
 999 434 999 434 1028 617 c 2,15,-1
 1061 840 l 2,16,17
 1089 1031 1089 1031 1004.5 1146 c 128,-1,18
 920 1261 920 1261 743 1261 c 2,19,-1
 505 1261 l 1,10,-1
EndSplineSet
Validated: 33
Substitution2: "'smcp' Lowercase to Small Capitals lookup 0 subtable" D.smcp
EndChar

StartChar: E
Encoding: 69 69 40
Width: 1134
GlyphClass: 1
Flags: W
LayerCount: 2
Fore
SplineSet
984 655 m 1,0,-1
 414 655 l 1,1,-1
 345 194 l 1,2,-1
 1017 194 l 1,3,-1
 988 0 l 1,4,-1
 73 0 l 1,5,-1
 291 1456 l 1,6,-1
 1199 1456 l 1,7,-1
 1170 1261 l 1,8,-1
 504 1261 l 1,9,-1
 443 850 l 1,10,-1
 1014 850 l 1,11,-1
 984 655 l 1,0,-1
EndSplineSet
Validated: 1
Substitution2: "'smcp' Lowercase to Small Capitals lookup 0 subtable" E.smcp
EndChar

StartChar: F
Encoding: 70 70 41
Width: 1134
GlyphClass: 1
Flags: W
LayerCount: 2
Fore
SplineSet
996 621 m 1,0,-1
 409 621 l 1,1,-1
 316 0 l 1,2,-1
 73 0 l 1,3,-1
 291 1456 l 1,4,-1
 1223 1456 l 1,5,-1
 1194 1261 l 1,6,-1
 504 1261 l 1,7,-1
 438 816 l 1,8,-1
 1025 816 l 1,9,-1
 996 621 l 1,0,-1
EndSplineSet
Validated: 1
Substitution2: "'smcp' Lowercase to Small Capitals lookup 0 subtable" F.smcp
EndChar

StartChar: G
Encoding: 71 71 42
Width: 1376
GlyphClass: 1
Flags: W
LayerCount: 2
Fore
SplineSet
1182 197 m 1,0,1
 1109 112 1109 112 967.5 45.5 c 128,-1,2
 826 -21 826 -21 618 -21 c 0,3,4
 369 -21 369 -21 222.5 147 c 128,-1,5
 76 315 76 315 116 576 c 2,6,-1
 162 880 l 2,7,8
 203 1154 203 1154 387 1315.5 c 128,-1,9
 571 1477 571 1477 827 1477 c 0,10,11
 1072 1477 1072 1477 1199 1347.5 c 128,-1,12
 1326 1218 1326 1218 1290 1015 c 1,13,-1
 1288 1009 l 1,14,-1
 1056 1009 l 1,15,16
 1075 1136 1075 1136 1010.5 1209 c 128,-1,17
 946 1282 946 1282 801 1282 c 256,18,19
 656 1282 656 1282 543.5 1168 c 128,-1,20
 431 1054 431 1054 405 882 c 2,21,-1
 359 576 l 2,22,23
 332 393 332 393 411.5 283 c 128,-1,24
 491 173 491 173 647 173 c 0,25,26
 758 173 758 173 834 200 c 128,-1,27
 910 227 910 227 949 264 c 1,28,-1
 994 565 l 1,29,-1
 689 565 l 1,30,-1
 716 747 l 1,31,-1
 1264 747 l 1,32,-1
 1182 197 l 1,0,1
EndSplineSet
Validated: 33
Substitution2: "'smcp' Lowercase to Small Capitals lookup 0 subtable" G.smcp
EndChar

StartChar: H
Encoding: 72 72 43
Width: 1443
GlyphClass: 1
Flags: W
LayerCount: 2
Fore
SplineSet
1210 0 m 1,0,-1
 967 0 l 1,1,-1
 1060 621 l 1,2,-1
 409 621 l 1,3,-1
 316 0 l 1,4,-1
 73 0 l 1,5,-1
 291 1456 l 1,6,-1
 534 1456 l 1,7,-1
 438 816 l 1,8,-1
 1089 816 l 1,9,-1
 1185 1456 l 1,10,-1
 1428 1456 l 1,11,-1
 1210 0 l 1,0,-1
EndSplineSet
Validated: 1
Substitution2: "'smcp' Lowercase to Small Capitals lookup 0 subtable" H.smcp
EndChar

StartChar: I
Encoding: 73 73 44
Width: 589
GlyphClass: 1
Flags: W
LayerCount: 2
Fore
SplineSet
336 0 m 1,0,-1
 93 0 l 1,1,-1
 311 1456 l 1,2,-1
 554 1456 l 1,3,-1
 336 0 l 1,0,-1
EndSplineSet
Validated: 1
Substitution2: "'smcp' Lowercase to Small Capitals lookup 0 subtable" I.smcp
EndChar

StartChar: J
Encoding: 74 74 45
Width: 1130
GlyphClass: 1
Flags: W
LayerCount: 2
Fore
SplineSet
875 1456 m 1,0,-1
 1117 1456 l 1,1,-1
 965 437 l 2,2,3
 932 219 932 219 787.5 99 c 128,-1,4
 643 -21 643 -21 438 -21 c 0,5,6
 231 -21 231 -21 117.5 90.5 c 128,-1,7
 4 202 4 202 40 411 c 1,8,-1
 42 416 l 1,9,-1
 278 416 l 1,10,11
 259 288 259 288 309 230.5 c 128,-1,12
 359 173 359 173 467 173 c 0,13,14
 558 173 558 173 631 245.5 c 128,-1,15
 704 318 704 318 723 437 c 2,16,-1
 875 1456 l 1,0,-1
EndSplineSet
Validated: 33
Substitution2: "'smcp' Lowercase to Small Capitals lookup 0 subtable" J.smcp
EndChar

StartChar: K
Encoding: 75 75 46
Width: 1240
GlyphClass: 1
Flags: W
LayerCount: 2
Fore
SplineSet
511 628 m 1,0,-1
 399 628 l 1,1,-1
 305 0 l 1,2,-1
 62 0 l 1,3,-1
 280 1456 l 1,4,-1
 523 1456 l 1,5,-1
 431 844 l 1,6,-1
 546 844 l 1,7,-1
 1026 1456 l 1,8,-1
 1332 1456 l 1,9,-1
 1334 1451 l 1,10,-1
 723 725 l 1,11,-1
 1141 0 l 1,12,-1
 863 0 l 1,13,-1
 511 628 l 1,0,-1
EndSplineSet
Validated: 1
Substitution2: "'smcp' Lowercase to Small Capitals lookup 0 subtable" K.smcp
EndChar

StartChar: L
Encoding: 76 76 47
Width: 1131
GlyphClass: 1
Flags: W
LayerCount: 2
Fore
SplineSet
345 194 m 1,0,-1
 1027 194 l 1,1,-1
 998 0 l 1,2,-1
 73 0 l 1,3,-1
 291 1456 l 1,4,-1
 534 1456 l 1,5,-1
 345 194 l 1,0,-1
EndSplineSet
Validated: 1
Substitution2: "'smcp' Lowercase to Small Capitals lookup 0 subtable" L.smcp
EndChar

StartChar: M
Encoding: 77 77 48
Width: 1781
GlyphClass: 1
Flags: W
LayerCount: 2
Fore
SplineSet
860 336 m 1,0,-1
 866 336 l 1,1,-1
 1455 1456 l 1,2,-1
 1765 1456 l 1,3,-1
 1547 0 l 1,4,-1
 1304 0 l 1,5,-1
 1460 1045 l 1,6,-1
 1455 1046 l 1,7,-1
 897 0 l 1,8,-1
 730 0 l 1,9,-1
 482 1066 l 1,10,-1
 476 1066 l 1,11,-1
 316 0 l 1,12,-1
 73 0 l 1,13,-1
 291 1456 l 1,14,-1
 610 1456 l 1,15,-1
 860 336 l 1,0,-1
EndSplineSet
Validated: 1
Substitution2: "'smcp' Lowercase to Small Capitals lookup 0 subtable" M.smcp
EndChar

StartChar: N
Encoding: 78 78 49
Width: 1443
GlyphClass: 1
Flags: W
LayerCount: 2
Fore
SplineSet
1210 0 m 1,0,-1
 967 0 l 1,1,-1
 478 1049 l 1,2,-1
 472 1048 l 1,3,-1
 316 0 l 1,4,-1
 73 0 l 1,5,-1
 291 1456 l 1,6,-1
 534 1456 l 1,7,-1
 1022 407 l 1,8,-1
 1028 408 l 1,9,-1
 1185 1456 l 1,10,-1
 1428 1456 l 1,11,-1
 1210 0 l 1,0,-1
EndSplineSet
Validated: 1
Substitution2: "'smcp' Lowercase to Small Capitals lookup 0 subtable" N.smcp
EndChar

StartChar: O
Encoding: 79 79 50
Width: 1402
GlyphClass: 1
Flags: W
LayerCount: 2
Fore
SplineSet
1307 597 m 2,0,1
 1264 319 1264 319 1073 149 c 128,-1,2
 882 -21 882 -21 611 -21 c 0,3,4
 360 -21 360 -21 217.5 156 c 128,-1,5
 75 333 75 333 115 597 c 2,6,-1
 154 859 l 2,7,8
 195 1135 195 1135 383 1306 c 128,-1,9
 571 1477 571 1477 836 1477 c 0,10,11
 1092 1477 1092 1477 1238.5 1299 c 128,-1,12
 1385 1121 1385 1121 1346 859 c 2,13,-1
 1307 597 l 2,0,1
1103 861 m 2,14,15
 1131 1050 1131 1050 1052.5 1163.5 c 128,-1,16
 974 1277 974 1277 806 1277 c 0,17,18
 651 1277 651 1277 537.5 1159 c 128,-1,19
 424 1041 424 1041 397 861 c 2,20,-1
 358 597 l 2,21,22
 329 406 329 406 404 292 c 128,-1,23
 479 178 479 178 641 178 c 0,24,25
 802 178 802 178 919 296.5 c 128,-1,26
 1036 415 1036 415 1064 597 c 2,27,-1
 1103 861 l 2,14,15
EndSplineSet
Validated: 33
Substitution2: "'smcp' Lowercase to Small Capitals lookup 0 subtable" O.smcp
EndChar

StartChar: P
Encoding: 80 80 51
Width: 1304
GlyphClass: 1
Flags: W
LayerCount: 2
Fore
SplineSet
398 552 m 1,0,-1
 316 0 l 1,1,-1
 73 0 l 1,2,-1
 291 1456 l 1,3,-1
 849 1456 l 2,4,5
 1081 1456 1081 1456 1203.5 1330 c 128,-1,6
 1326 1204 1326 1204 1296 1004 c 0,7,8
 1264 792 1264 792 1111 672 c 128,-1,9
 958 552 958 552 714 552 c 2,10,-1
 398 552 l 1,0,-1
428 747 m 1,11,-1
 743 747 l 2,12,13
 872 747 872 747 953.5 820 c 128,-1,14
 1035 893 1035 893 1052 1002 c 0,15,16
 1069 1117 1069 1117 1012.5 1189 c 128,-1,17
 956 1261 956 1261 820 1261 c 2,18,-1
 505 1261 l 1,19,-1
 428 747 l 1,11,-1
EndSplineSet
Validated: 33
Substitution2: "'smcp' Lowercase to Small Capitals lookup 0 subtable" P.smcp
EndChar

StartChar: Q
Encoding: 81 81 52
Width: 1434
GlyphClass: 1
Flags: W
LayerCount: 2
Fore
SplineSet
1307 597 m 2,0,1
 1289 481 1289 481 1243.5 381.5 c 128,-1,2
 1198 282 1198 282 1129 205 c 1,3,-1
 1309 -6 l 1,4,-1
 1125 -151 l 1,5,-1
 943 59 l 1,6,7
 869 19 869 19 785 -1 c 128,-1,8
 701 -21 701 -21 611 -21 c 0,9,10
 360 -21 360 -21 217.5 156 c 128,-1,11
 75 333 75 333 115 597 c 2,12,-1
 154 859 l 2,13,14
 195 1135 195 1135 383 1306 c 128,-1,15
 571 1477 571 1477 836 1477 c 0,16,17
 1092 1477 1092 1477 1238.5 1299 c 128,-1,18
 1385 1121 1385 1121 1346 859 c 2,19,-1
 1307 597 l 2,0,1
1103 861 m 2,20,21
 1131 1050 1131 1050 1052.5 1163.5 c 128,-1,22
 974 1277 974 1277 806 1277 c 0,23,24
 651 1277 651 1277 537.5 1159 c 128,-1,25
 424 1041 424 1041 397 861 c 2,26,-1
 358 597 l 2,27,28
 329 406 329 406 404 292 c 128,-1,29
 479 178 479 178 641 178 c 0,30,31
 802 178 802 178 919 296.5 c 128,-1,32
 1036 415 1036 415 1064 597 c 2,33,-1
 1103 861 l 2,20,21
EndSplineSet
Validated: 33
Substitution2: "'smcp' Lowercase to Small Capitals lookup 0 subtable" Q.smcp
EndChar

StartChar: R
Encoding: 82 82 53
Width: 1303
GlyphClass: 1
Flags: W
LayerCount: 2
Fore
SplineSet
406 604 m 1,0,-1
 316 0 l 1,1,-1
 73 0 l 1,2,-1
 291 1456 l 1,3,-1
 792 1456 l 2,4,5
 1026 1456 1026 1456 1147 1344.5 c 128,-1,6
 1268 1233 1268 1233 1238 1032 c 0,7,8
 1220 915 1220 915 1150 834.5 c 128,-1,9
 1080 754 1080 754 959 705 c 1,10,11
 1073 665 1073 665 1115.5 576.5 c 128,-1,12
 1158 488 1158 488 1140 362 c 2,13,-1
 1122 241 l 2,14,15
 1112 176 1112 176 1119 115.5 c 128,-1,16
 1126 55 1126 55 1158 23 c 1,17,-1
 1155 0 l 1,18,-1
 905 0 l 1,19,20
 871 33 871 33 870 100.5 c 128,-1,21
 869 168 869 168 879 243 c 2,22,-1
 897 360 l 2,23,24
 914 476 914 476 860.5 540 c 128,-1,25
 807 604 807 604 694 604 c 2,26,-1
 406 604 l 1,0,-1
435 799 m 1,27,-1
 681 799 l 2,28,29
 821 799 821 799 899.5 856 c 128,-1,30
 978 913 978 913 995 1026 c 0,31,32
 1011 1140 1011 1140 955 1200.5 c 128,-1,33
 899 1261 899 1261 763 1261 c 2,34,-1
 505 1261 l 1,35,-1
 435 799 l 1,27,-1
EndSplineSet
Validated: 33
Substitution2: "'smcp' Lowercase to Small Capitals lookup 0 subtable" R.smcp
EndChar

StartChar: S
Encoding: 83 83 54
Width: 1251
GlyphClass: 1
Flags: W
LayerCount: 2
Fore
SplineSet
920 345 m 0,0,1
 935 448 935 448 872.5 507.5 c 128,-1,2
 810 567 810 567 635 625 c 0,3,4
 396 701 396 701 284 810 c 128,-1,5
 172 919 172 919 201 1109 c 0,6,7
 227 1282 227 1282 373 1379.5 c 128,-1,8
 519 1477 519 1477 730 1477 c 0,9,10
 970 1477 970 1477 1104 1358 c 128,-1,11
 1238 1239 1238 1239 1202 1031 c 1,12,-1
 1200 1025 l 1,13,-1
 966 1025 l 1,14,15
 982 1138 982 1138 909 1210 c 128,-1,16
 836 1282 836 1282 700 1282 c 0,17,18
 600 1282 600 1282 527.5 1233 c 128,-1,19
 455 1184 455 1184 445 1111 c 0,20,21
 428 1005 428 1005 488 951.5 c 128,-1,22
 548 898 548 898 743 831 c 0,23,24
 978 755 978 755 1084 647 c 128,-1,25
 1190 539 1190 539 1162 347 c 0,26,27
 1135 166 1135 166 988 72.5 c 128,-1,28
 841 -21 841 -21 621 -21 c 0,29,30
 385 -21 385 -21 224 87.5 c 128,-1,31
 63 196 63 196 103 425 c 1,32,-1
 105 431 l 1,33,-1
 338 431 l 1,34,35
 317 290 317 290 412.5 231.5 c 128,-1,36
 508 173 508 173 650 173 c 0,37,38
 752 173 752 173 830 221.5 c 128,-1,39
 908 270 908 270 920 345 c 0,0,1
EndSplineSet
Validated: 33
Substitution2: "'smcp' Lowercase to Small Capitals lookup 0 subtable" S.smcp
EndChar

StartChar: T
Encoding: 84 84 55
Width: 1202
GlyphClass: 1
Flags: W
LayerCount: 2
Fore
SplineSet
1279 1261 m 1,0,-1
 829 1261 l 1,1,-1
 640 0 l 1,2,-1
 397 0 l 1,3,-1
 586 1261 l 1,4,-1
 143 1261 l 1,5,-1
 172 1456 l 1,6,-1
 1308 1456 l 1,7,-1
 1279 1261 l 1,0,-1
EndSplineSet
Validated: 1
Substitution2: "'smcp' Lowercase to Small Capitals lookup 0 subtable" T.smcp
EndChar

StartChar: U
Encoding: 85 85 56
Width: 1396
GlyphClass: 1
Flags: W
LayerCount: 2
Fore
SplineSet
1403 1456 m 1,0,-1
 1260 497 l 2,1,2
 1221 244 1221 244 1044 111.5 c 128,-1,3
 867 -21 867 -21 611 -21 c 0,4,5
 372 -21 372 -21 232 117.5 c 128,-1,6
 92 256 92 256 129 497 c 2,7,-1
 272 1456 l 1,8,-1
 515 1456 l 1,9,-1
 372 497 l 2,10,11
 347 336 347 336 421 254.5 c 128,-1,12
 495 173 495 173 640 173 c 0,13,14
 782 173 782 173 887.5 258 c 128,-1,15
 993 343 993 343 1017 497 c 2,16,-1
 1160 1456 l 1,17,-1
 1403 1456 l 1,0,-1
EndSplineSet
Validated: 33
Substitution2: "'smcp' Lowercase to Small Capitals lookup 0 subtable" U.smcp
EndChar

StartChar: V
Encoding: 86 86 57
Width: 1300
GlyphClass: 1
Flags: W
LayerCount: 2
Fore
SplineSet
600 395 m 1,0,-1
 610 290 l 1,1,-1
 616 289 l 1,2,-1
 657 393 l 1,3,-1
 1164 1456 l 1,4,-1
 1423 1456 l 1,5,-1
 685 0 l 1,6,-1
 454 0 l 1,7,-1
 153 1456 l 1,8,-1
 412 1456 l 1,9,-1
 600 395 l 1,0,-1
EndSplineSet
Validated: 1
Substitution2: "'smcp' Lowercase to Small Capitals lookup 0 subtable" V.smcp
EndChar

StartChar: W
Encoding: 87 87 58
Width: 1781
GlyphClass: 1
Flags: W
LayerCount: 2
Fore
SplineSet
1256 405 m 1,0,-1
 1262 405 l 1,1,-1
 1634 1456 l 1,2,-1
 1890 1456 l 1,3,-1
 1326 0 l 1,4,-1
 1105 0 l 1,5,-1
 970 1036 l 1,6,-1
 965 1037 l 1,7,-1
 516 0 l 1,8,-1
 294 0 l 1,9,-1
 167 1456 l 1,10,-1
 422 1456 l 1,11,-1
 480 406 l 1,12,-1
 486 405 l 1,13,-1
 921 1456 l 1,14,-1
 1135 1456 l 1,15,-1
 1256 405 l 1,0,-1
EndSplineSet
Validated: 1
Substitution2: "'smcp' Lowercase to Small Capitals lookup 0 subtable" W.smcp
EndChar

StartChar: X
Encoding: 88 88 59
Width: 1300
GlyphClass: 1
Flags: W
LayerCount: 2
Fore
SplineSet
708 918 m 1,0,-1
 1095 1456 l 1,1,-1
 1383 1456 l 1,2,-1
 827 734 l 1,3,-1
 1182 0 l 1,4,-1
 890 0 l 1,5,-1
 656 547 l 1,6,-1
 258 0 l 1,7,-1
 -30 0 l 1,8,-1
 538 734 l 1,9,-1
 198 1456 l 1,10,-1
 484 1456 l 1,11,-1
 708 918 l 1,0,-1
EndSplineSet
Validated: 1
Substitution2: "'smcp' Lowercase to Small Capitals lookup 0 subtable" X.smcp
EndChar

StartChar: Y
Encoding: 89 89 60
Width: 1300
GlyphClass: 1
Flags: W
LayerCount: 2
Fore
SplineSet
681 748 m 1,0,-1
 1137 1456 l 1,1,-1
 1408 1456 l 1,2,-1
 761 509 l 1,3,-1
 685 0 l 1,4,-1
 443 0 l 1,5,-1
 521 523 l 1,6,-1
 164 1456 l 1,7,-1
 435 1456 l 1,8,-1
 681 748 l 1,0,-1
EndSplineSet
Validated: 1
Substitution2: "'smcp' Lowercase to Small Capitals lookup 0 subtable" Y.smcp
EndChar

StartChar: Z
Encoding: 90 90 61
Width: 1150
GlyphClass: 1
Flags: W
LayerCount: 2
Fore
SplineSet
331 194 m 1,0,-1
 1031 194 l 1,1,-1
 1002 0 l 1,2,-1
 33 0 l 1,3,-1
 29 152 l 1,4,-1
 805 1261 l 1,5,-1
 186 1261 l 1,6,-1
 215 1456 l 1,7,-1
 1133 1456 l 1,8,-1
 1112 1310 l 1,9,-1
 331 194 l 1,0,-1
EndSplineSet
Validated: 1
Substitution2: "'smcp' Lowercase to Small Capitals lookup 0 subtable" Z.smcp
EndChar

StartChar: bracketleft
Encoding: 91 91 62
Width: 561
GlyphClass: 1
Flags: W
LayerCount: 2
Fore
SplineSet
673 1488 m 1,0,-1
 508 1488 l 1,1,-1
 281 -135 l 1,2,-1
 446 -135 l 1,3,-1
 420 -324 l 1,4,-1
 12 -324 l 1,5,-1
 292 1678 l 1,6,-1
 700 1678 l 1,7,-1
 673 1488 l 1,0,-1
EndSplineSet
Validated: 1
EndChar

StartChar: backslash
Encoding: 92 92 63
Width: 855
GlyphClass: 1
Flags: W
LayerCount: 2
Fore
SplineSet
159 1456 m 1,0,-1
 395 1456 l 1,1,-1
 766 -125 l 1,2,-1
 530 -125 l 1,3,-1
 159 1456 l 1,0,-1
EndSplineSet
Validated: 1
EndChar

StartChar: bracketright
Encoding: 93 93 64
Width: 561
GlyphClass: 1
Flags: W
LayerCount: 2
Fore
SplineSet
172 1678 m 1,0,-1
 582 1678 l 1,1,-1
 302 -324 l 1,2,-1
 -108 -324 l 1,3,-1
 -82 -135 l 1,4,-1
 85 -135 l 1,5,-1
 312 1488 l 1,6,-1
 145 1488 l 1,7,-1
 172 1678 l 1,0,-1
EndSplineSet
Validated: 1
EndChar

StartChar: asciicircum
Encoding: 94 94 65
Width: 875
GlyphClass: 1
Flags: W
LayerCount: 2
Fore
SplineSet
288 729 m 1,0,-1
 82 729 l 1,1,-1
 490 1456 l 1,2,-1
 661 1456 l 1,3,-1
 850 729 l 1,4,-1
 645 729 l 1,5,-1
 542 1142 l 1,6,-1
 538 1195 l 1,7,-1
 532 1196 l 1,8,-1
 512 1142 l 1,9,-1
 288 729 l 1,0,-1
EndSplineSet
Validated: 1
EndChar

StartChar: underscore
Encoding: 95 95 66
Width: 924
GlyphClass: 1
Flags: W
LayerCount: 2
Fore
SplineSet
811 -191 m 1,0,-1
 -106 -191 l 1,1,-1
 -77 0 l 1,2,-1
 840 0 l 1,3,-1
 811 -191 l 1,0,-1
EndSplineSet
Validated: 1
EndChar

StartChar: grave
Encoding: 96 96 67
Width: 660
GlyphClass: 1
Flags: W
LayerCount: 2
Fore
SplineSet
631 1252 m 1,0,-1
 429 1252 l 1,1,-1
 206 1513 l 1,2,-1
 208 1518 l 1,3,-1
 485 1518 l 1,4,-1
 631 1252 l 1,0,-1
EndSplineSet
Validated: 1
EndChar

StartChar: a
Encoding: 97 97 68
Width: 1114
GlyphClass: 1
Flags: W
LayerCount: 2
Fore
SplineSet
700 0 m 1,0,1
 693 39 693 39 690.5 78.5 c 128,-1,2
 688 118 688 118 691 158 c 1,3,4
 630 82 630 82 540.5 30.5 c 128,-1,5
 451 -21 451 -21 350 -21 c 0,6,7
 187 -21 187 -21 106.5 67 c 128,-1,8
 26 155 26 155 49 305 c 0,9,10
 73 468 73 468 208.5 552.5 c 128,-1,11
 344 637 344 637 572 637 c 2,12,-1
 761 637 l 1,13,-1
 775 732 l 2,14,15
 788 820 788 820 746 866.5 c 128,-1,16
 704 913 704 913 609 913 c 0,17,18
 529 913 529 913 472 873 c 128,-1,19
 415 833 415 833 407 771 c 1,20,-1
 174 770 l 1,21,-1
 172 776 l 1,22,23
 185 909 185 909 320 1005.5 c 128,-1,24
 455 1102 455 1102 652 1102 c 0,25,26
 835 1102 835 1102 939.5 1005 c 128,-1,27
 1044 908 1044 908 1018 730 c 2,28,-1
 945 249 l 2,29,30
 935 179 935 179 935 119 c 128,-1,31
 935 59 935 59 946 0 c 1,32,-1
 700 0 l 1,0,1
429 174 m 0,33,34
 517 174 517 174 599 221 c 128,-1,35
 681 268 681 268 714 327 c 1,36,-1
 738 485 l 1,37,-1
 545 485 l 2,38,39
 443 485 443 485 373 432 c 128,-1,40
 303 379 303 379 292 309 c 0,41,42
 282 245 282 245 317 209.5 c 128,-1,43
 352 174 352 174 429 174 c 0,33,34
EndSplineSet
Validated: 33
Substitution2: "'smcp' Lowercase to Small Capitals lookup 0 subtable" A.smcp
EndChar

StartChar: b
Encoding: 98 98 69
Width: 1160
GlyphClass: 1
Flags: W
LayerCount: 2
Fore
SplineSet
1074 505 m 2,0,1
 1036 259 1036 259 906 119 c 128,-1,2
 776 -21 776 -21 573 -21 c 0,3,4
 474 -21 474 -21 405 22.5 c 128,-1,5
 336 66 336 66 297 149 c 1,6,-1
 245 0 l 1,7,-1
 48 0 l 1,8,-1
 282 1560 l 1,9,-1
 525 1560 l 1,10,-1
 434 959 l 1,11,12
 494 1028 494 1028 570 1065 c 128,-1,13
 646 1102 646 1102 739 1102 c 0,14,15
 934 1102 934 1102 1024.5 942.5 c 128,-1,16
 1115 783 1115 783 1077 526 c 2,17,-1
 1074 505 l 2,0,1
834 526 m 2,18,19
 859 701 859 701 817 802 c 128,-1,20
 775 903 775 903 648 903 c 0,21,22
 570 903 570 903 509 866 c 128,-1,23
 448 829 448 829 405 764 c 1,24,-1
 338 314 l 1,25,26
 360 248 360 248 409.5 212.5 c 128,-1,27
 459 177 459 177 542 177 c 0,28,29
 663 177 663 177 735.5 266.5 c 128,-1,30
 808 356 808 356 831 505 c 2,31,-1
 834 526 l 2,18,19
EndSplineSet
Validated: 33
Substitution2: "'smcp' Lowercase to Small Capitals lookup 0 subtable" B.smcp
EndChar

StartChar: c
Encoding: 99 99 70
Width: 1065
GlyphClass: 1
Flags: W
LayerCount: 2
Fore
SplineSet
515 173 m 0,0,1
 595 173 595 173 662 225.5 c 128,-1,2
 729 278 729 278 741 357 c 1,3,-1
 960 357 l 1,4,-1
 962 351 l 1,5,6
 942 193 942 193 802.5 86 c 128,-1,7
 663 -21 663 -21 486 -21 c 0,8,9
 261 -21 261 -21 152.5 135 c 128,-1,10
 44 291 44 291 79 523 c 1,11,-1
 85 558 l 1,12,13
 121 801 121 801 269.5 951.5 c 128,-1,14
 418 1102 418 1102 653 1102 c 0,15,16
 835 1102 835 1102 939.5 987 c 128,-1,17
 1044 872 1044 872 1014 699 c 1,18,-1
 1012 694 l 1,19,-1
 791 694 l 1,20,21
 804 787 804 787 759 847 c 128,-1,22
 714 907 714 907 624 907 c 0,23,24
 500 907 500 907 424.5 805 c 128,-1,25
 349 703 349 703 328 558 c 2,26,-1
 322 523 l 2,27,28
 299 366 299 366 340.5 269.5 c 128,-1,29
 382 173 382 173 515 173 c 0,0,1
EndSplineSet
Validated: 33
Substitution2: "'smcp' Lowercase to Small Capitals lookup 0 subtable" C.smcp
EndChar

StartChar: d
Encoding: 100 100 71
Width: 1160
GlyphClass: 1
Flags: W
LayerCount: 2
Fore
SplineSet
82 526 m 2,0,1
 122 794 122 794 255 948 c 128,-1,2
 388 1102 388 1102 591 1102 c 0,3,4
 677 1102 677 1102 741 1064.5 c 128,-1,5
 805 1027 805 1027 847 958 c 1,6,-1
 938 1560 l 1,7,-1
 1181 1560 l 1,8,-1
 947 0 l 1,9,-1
 750 0 l 1,10,-1
 742 137 l 1,11,12
 678 60 678 60 598 19.5 c 128,-1,13
 518 -21 518 -21 421 -21 c 0,14,15
 230 -21 230 -21 137 125.5 c 128,-1,16
 44 272 44 272 79 505 c 2,17,-1
 82 526 l 2,0,1
322 505 m 2,18,19
 298 350 298 350 342.5 263.5 c 128,-1,20
 387 177 387 177 513 177 c 0,21,22
 587 177 587 177 646 210.5 c 128,-1,23
 705 244 705 244 749 306 c 1,24,-1
 820 776 l 1,25,26
 795 836 795 836 746 869.5 c 128,-1,27
 697 903 697 903 623 903 c 0,28,29
 504 903 504 903 426.5 797 c 128,-1,30
 349 691 349 691 325 526 c 2,31,-1
 322 505 l 2,18,19
EndSplineSet
Validated: 33
Substitution2: "'smcp' Lowercase to Small Capitals lookup 0 subtable" D.smcp
EndChar

StartChar: e
Encoding: 101 101 72
Width: 1072
GlyphClass: 1
Flags: W
LayerCount: 2
Fore
SplineSet
504 -21 m 0,0,1
 276 -21 276 -21 160 130 c 128,-1,2
 44 281 44 281 80 516 c 2,3,-1
 86 556 l 2,4,5
 123 803 123 803 278 953 c 128,-1,6
 433 1103 433 1103 646 1102 c 0,7,8
 855 1102 855 1102 951 966 c 128,-1,9
 1047 830 1047 830 1014 608 c 2,10,-1
 995 477 l 1,11,-1
 318 477 l 1,12,13
 305 336 305 336 359 254.5 c 128,-1,14
 413 173 413 173 547 173 c 0,15,16
 642 173 642 173 721 197.5 c 128,-1,17
 800 222 800 222 867 266 c 1,18,-1
 922 107 l 1,19,20
 852 53 852 53 744.5 16 c 128,-1,21
 637 -21 637 -21 504 -21 c 0,0,1
617 907 m 0,22,23
 527 907 527 907 458 838 c 128,-1,24
 389 769 389 769 358 661 c 1,25,-1
 360 655 l 1,26,-1
 781 655 l 1,27,-1
 784 674 l 2,28,29
 800 782 800 782 761 844.5 c 128,-1,30
 722 907 722 907 617 907 c 0,22,23
EndSplineSet
Validated: 33
Substitution2: "'smcp' Lowercase to Small Capitals lookup 0 subtable" E.smcp
EndChar

StartChar: f
Encoding: 102 102 73
Width: 693
GlyphClass: 1
Flags: W
LayerCount: 2
Fore
SplineSet
127 0 m 1,0,-1
 262 902 l 1,1,-1
 97 902 l 1,2,-1
 124 1082 l 1,3,-1
 289 1082 l 1,4,-1
 308 1208 l 2,5,6
 335 1394 335 1394 446 1487.5 c 128,-1,7
 557 1581 557 1581 735 1581 c 0,8,9
 768 1581 768 1581 805 1575 c 128,-1,10
 842 1569 842 1569 884 1560 c 1,11,-1
 831 1372 l 1,12,13
 812 1376 812 1376 787.5 1379 c 128,-1,14
 763 1382 763 1382 735 1382 c 0,15,16
 659 1382 659 1382 611 1336.5 c 128,-1,17
 563 1291 563 1291 551 1208 c 2,18,-1
 532 1082 l 1,19,-1
 733 1082 l 1,20,-1
 706 902 l 1,21,-1
 505 902 l 1,22,-1
 370 0 l 1,23,-1
 127 0 l 1,0,-1
EndSplineSet
Validated: 1
Substitution2: "'smcp' Lowercase to Small Capitals lookup 0 subtable" F.smcp
EndChar

StartChar: g
Encoding: 103 103 74
Width: 1160
GlyphClass: 1
Flags: W
LayerCount: 2
Fore
SplineSet
89 526 m 2,0,1
 129 794 129 794 262 948 c 128,-1,2
 395 1102 395 1102 598 1102 c 0,3,4
 692 1102 692 1102 759.5 1058.5 c 128,-1,5
 827 1015 827 1015 868 935 c 1,6,-1
 914 1082 l 1,7,-1
 1116 1082 l 1,8,-1
 954 0 l 2,9,10
 921 -217 921 -217 777 -327 c 128,-1,11
 633 -437 633 -437 393 -437 c 0,12,13
 316 -437 316 -437 226.5 -414.5 c 128,-1,14
 137 -392 137 -392 70 -355 c 1,15,-1
 137 -164 l 1,16,17
 194 -195 194 -195 268.5 -212.5 c 128,-1,18
 343 -230 343 -230 423 -230 c 0,19,20
 550 -230 550 -230 621.5 -172.5 c 128,-1,21
 693 -115 693 -115 711 0 c 2,22,-1
 727 111 l 1,23,24
 667 46 667 46 592.5 12.5 c 128,-1,25
 518 -21 518 -21 428 -21 c 0,26,27
 237 -21 237 -21 144 125.5 c 128,-1,28
 51 272 51 272 86 505 c 2,29,-1
 89 526 l 2,0,1
328 505 m 2,30,31
 304 350 304 350 349 263.5 c 128,-1,32
 394 177 394 177 520 177 c 0,33,34
 595 177 595 177 654 210.5 c 128,-1,35
 713 244 713 244 757 306 c 1,36,-1
 828 776 l 1,37,38
 804 836 804 836 755 869.5 c 128,-1,39
 706 903 706 903 630 903 c 0,40,41
 510 903 510 903 432.5 797 c 128,-1,42
 355 691 355 691 331 526 c 2,43,-1
 328 505 l 2,30,31
EndSplineSet
Validated: 33
Substitution2: "'smcp' Lowercase to Small Capitals lookup 0 subtable" G.smcp
EndChar

StartChar: h
Encoding: 104 104 75
Width: 1160
GlyphClass: 1
Flags: W
LayerCount: 2
Fore
SplineSet
430 948 m 1,0,1
 495 1022 495 1022 578 1062 c 128,-1,2
 661 1102 661 1102 756 1102 c 0,3,4
 922 1102 922 1102 1005 992.5 c 128,-1,5
 1088 883 1088 883 1055 659 c 2,6,-1
 956 0 l 1,7,-1
 713 0 l 1,8,-1
 812 661 l 2,9,10
 832 793 832 793 791.5 848 c 128,-1,11
 751 903 751 903 651 903 c 0,12,13
 575 903 575 903 513 874 c 128,-1,14
 451 845 451 845 407 794 c 1,15,-1
 288 0 l 1,16,-1
 45 0 l 1,17,-1
 279 1560 l 1,18,-1
 522 1560 l 1,19,-1
 430 948 l 1,0,1
EndSplineSet
Validated: 33
Substitution2: "'smcp' Lowercase to Small Capitals lookup 0 subtable" H.smcp
EndChar

StartChar: i
Encoding: 105 105 76
Width: 531
GlyphClass: 1
Flags: W
LayerCount: 2
Fore
SplineSet
307 0 m 1,0,-1
 64 0 l 1,1,-1
 226 1082 l 1,2,-1
 469 1082 l 1,3,-1
 307 0 l 1,0,-1
509 1347 m 1,4,-1
 266 1347 l 1,5,-1
 298 1560 l 1,6,-1
 541 1560 l 1,7,-1
 509 1347 l 1,4,-1
EndSplineSet
Validated: 1
Substitution2: "'smcp' Lowercase to Small Capitals lookup 0 subtable" I.smcp
EndChar

StartChar: j
Encoding: 106 106 77
Width: 537
GlyphClass: 1
Flags: W
LayerCount: 2
Fore
SplineSet
480 1082 m 1,0,-1
 309 -63 l 2,1,2
 281 -249 281 -249 174.5 -343 c 128,-1,3
 68 -437 68 -437 -100 -437 c 0,4,5
 -134 -437 -134 -437 -163 -433 c 128,-1,6
 -192 -429 -192 -429 -223 -420 c 1,7,-1
 -180 -226 l 1,8,9
 -163 -231 -163 -231 -138.5 -234.5 c 128,-1,10
 -114 -238 -114 -238 -94 -238 c 0,11,12
 -33 -238 -33 -238 9.5 -195.5 c 128,-1,13
 52 -153 52 -153 66 -63 c 2,14,-1
 237 1082 l 1,15,-1
 480 1082 l 1,0,-1
515 1350 m 1,16,-1
 272 1350 l 1,17,-1
 303 1560 l 1,18,-1
 546 1560 l 1,19,-1
 515 1350 l 1,16,-1
EndSplineSet
Validated: 1
Substitution2: "'smcp' Lowercase to Small Capitals lookup 0 subtable" J.smcp
EndChar

StartChar: k
Encoding: 107 107 78
Width: 1072
GlyphClass: 1
Flags: W
LayerCount: 2
Fore
SplineSet
452 473 m 1,0,-1
 362 473 l 1,1,-1
 291 0 l 1,2,-1
 49 0 l 1,3,-1
 283 1560 l 1,4,-1
 525 1560 l 1,5,-1
 391 668 l 1,6,-1
 474 668 l 1,7,-1
 829 1082 l 1,8,-1
 1107 1082 l 1,9,-1
 1109 1077 l 1,10,-1
 669 584 l 1,11,-1
 993 0 l 1,12,-1
 710 0 l 1,13,-1
 452 473 l 1,0,-1
EndSplineSet
Validated: 1
Substitution2: "'smcp' Lowercase to Small Capitals lookup 0 subtable" K.smcp
EndChar

StartChar: l
Encoding: 108 108 79
Width: 531
GlyphClass: 1
Flags: W
LayerCount: 2
Fore
SplineSet
307 0 m 1,0,-1
 64 0 l 1,1,-1
 298 1560 l 1,2,-1
 541 1560 l 1,3,-1
 307 0 l 1,0,-1
EndSplineSet
Validated: 1
Substitution2: "'smcp' Lowercase to Small Capitals lookup 0 subtable" L.smcp
EndChar

StartChar: m
Encoding: 109 109 80
Width: 1781
GlyphClass: 1
Flags: W
LayerCount: 2
Fore
SplineSet
424 946 m 1,0,1
 488 1021 488 1021 574 1061.5 c 128,-1,2
 660 1102 660 1102 766 1102 c 0,3,4
 867 1102 867 1102 936.5 1054.5 c 128,-1,5
 1006 1007 1006 1007 1032 912 c 1,6,7
 1095 1001 1095 1001 1185 1051.5 c 128,-1,8
 1275 1102 1275 1102 1386 1102 c 0,9,10
 1544 1102 1544 1102 1624 987.5 c 128,-1,11
 1704 873 1704 873 1670 645 c 2,12,-1
 1573 0 l 1,13,-1
 1330 0 l 1,14,-1
 1427 646 l 2,15,16
 1448 794 1448 794 1409.5 848.5 c 128,-1,17
 1371 903 1371 903 1275 903 c 0,18,19
 1199 903 1199 903 1138.5 859.5 c 128,-1,20
 1078 816 1078 816 1042 744 c 1,21,-1
 1037 701 l 1,22,-1
 932 0 l 1,23,-1
 689 0 l 1,24,-1
 786 646 l 2,25,26
 807 788 807 788 767.5 845.5 c 128,-1,27
 728 903 728 903 633 903 c 0,28,29
 561 903 561 903 504.5 872.5 c 128,-1,30
 448 842 448 842 409 788 c 1,31,-1
 291 0 l 1,32,-1
 48 0 l 1,33,-1
 210 1082 l 1,34,-1
 432 1082 l 1,35,-1
 424 946 l 1,0,1
EndSplineSet
Validated: 33
Substitution2: "'smcp' Lowercase to Small Capitals lookup 0 subtable" M.smcp
EndChar

StartChar: n
Encoding: 110 110 81
Width: 1160
GlyphClass: 1
Flags: W
LayerCount: 2
Fore
SplineSet
421 932 m 1,0,1
 487 1013 487 1013 574 1057.5 c 128,-1,2
 661 1102 661 1102 762 1102 c 0,3,4
 925 1102 925 1102 1006.5 997 c 128,-1,5
 1088 892 1088 892 1056 673 c 2,6,-1
 955 0 l 1,7,-1
 712 0 l 1,8,-1
 813 671 l 2,9,10
 832 802 832 802 791.5 852.5 c 128,-1,11
 751 903 751 903 650 903 c 0,12,13
 574 903 574 903 513 872.5 c 128,-1,14
 452 842 452 842 407 787 c 1,15,-1
 289 0 l 1,16,-1
 46 0 l 1,17,-1
 208 1082 l 1,18,-1
 430 1082 l 1,19,-1
 421 932 l 1,0,1
EndSplineSet
Validated: 33
Substitution2: "'smcp' Lowercase to Small Capitals lookup 0 subtable" N.smcp
EndChar

StartChar: o
Encoding: 111 111 82
Width: 1160
GlyphClass: 1
Flags: W
LayerCount: 2
Fore
SplineSet
86 551 m 2,0,1
 123 802 123 802 276.5 952 c 128,-1,2
 430 1102 430 1102 663 1102 c 0,3,4
 886 1102 886 1102 1000 946 c 128,-1,5
 1114 790 1114 790 1079 551 c 2,6,-1
 1076 530 l 2,7,8
 1037 277 1037 277 884 128 c 128,-1,9
 731 -21 731 -21 497 -21 c 0,10,11
 274 -21 274 -21 160 134.5 c 128,-1,12
 46 290 46 290 83 530 c 2,13,-1
 86 551 l 2,0,1
326 530 m 2,14,15
 301 366 301 366 348 269.5 c 128,-1,16
 395 173 395 173 526 173 c 0,17,18
 648 173 648 173 729 274 c 128,-1,19
 810 375 810 375 834 530 c 2,20,-1
 837 551 l 2,21,22
 861 712 861 712 812.5 809.5 c 128,-1,23
 764 907 764 907 634 907 c 0,24,25
 512 907 512 907 431.5 805 c 128,-1,26
 351 703 351 703 329 551 c 2,27,-1
 326 530 l 2,14,15
EndSplineSet
Validated: 33
Substitution2: "'smcp' Lowercase to Small Capitals lookup 0 subtable" O.smcp
EndChar

StartChar: p
Encoding: 112 112 83
Width: 1160
GlyphClass: 1
Flags: W
LayerCount: 2
Fore
SplineSet
1072 505 m 2,0,1
 1034 260 1034 260 903.5 119.5 c 128,-1,2
 773 -21 773 -21 573 -21 c 0,3,4
 483 -21 483 -21 416.5 13.5 c 128,-1,5
 350 48 350 48 308 115 c 1,6,-1
 229 -416 l 1,7,-1
 -14 -416 l 1,8,-1
 210 1082 l 1,9,-1
 415 1082 l 1,10,-1
 419 946 l 1,11,12
 482 1022 482 1022 561.5 1062 c 128,-1,13
 641 1102 641 1102 738 1102 c 0,14,15
 930 1102 930 1102 1021 941.5 c 128,-1,16
 1112 781 1112 781 1075 526 c 2,17,-1
 1072 505 l 2,0,1
833 526 m 2,18,19
 858 698 858 698 811.5 800.5 c 128,-1,20
 765 903 765 903 640 903 c 0,21,22
 567 903 567 903 508.5 869.5 c 128,-1,23
 450 836 450 836 407 777 c 1,24,-1
 334 291 l 1,25,26
 358 234 358 234 407 203.5 c 128,-1,27
 456 173 456 173 533 173 c 0,28,29
 652 173 652 173 729.5 266 c 128,-1,30
 807 359 807 359 830 505 c 2,31,-1
 833 526 l 2,18,19
EndSplineSet
Validated: 33
Substitution2: "'smcp' Lowercase to Small Capitals lookup 0 subtable" P.smcp
EndChar

StartChar: q
Encoding: 113 113 84
Width: 1160
GlyphClass: 1
Flags: W
LayerCount: 2
Fore
SplineSet
82 526 m 2,0,1
 122 794 122 794 255 948 c 128,-1,2
 388 1102 388 1102 591 1102 c 0,3,4
 682 1102 682 1102 748 1061.5 c 128,-1,5
 814 1021 814 1021 855 945 c 1,6,-1
 905 1082 l 1,7,-1
 1102 1082 l 1,8,-1
 878 -416 l 1,9,-1
 635 -416 l 1,10,-1
 712 103 l 1,11,12
 652 42 652 42 580 10.5 c 128,-1,13
 508 -21 508 -21 421 -21 c 0,14,15
 230 -21 230 -21 137 125.5 c 128,-1,16
 44 272 44 272 79 505 c 2,17,-1
 82 526 l 2,0,1
322 505 m 2,18,19
 298 349 298 349 342 261 c 128,-1,20
 386 173 386 173 512 173 c 0,21,22
 584 173 584 173 641 204 c 128,-1,23
 698 235 698 235 741 292 c 1,24,-1
 816 792 l 1,25,26
 790 846 790 846 742.5 876.5 c 128,-1,27
 695 907 695 907 624 907 c 0,28,29
 505 907 505 907 427 799 c 128,-1,30
 349 691 349 691 325 526 c 2,31,-1
 322 505 l 2,18,19
EndSplineSet
Validated: 33
Substitution2: "'smcp' Lowercase to Small Capitals lookup 0 subtable" Q.smcp
EndChar

StartChar: r
Encoding: 114 114 85
Width: 719
GlyphClass: 1
Flags: W
LayerCount: 2
Fore
SplineSet
716 863 m 1,0,-1
 613 867 l 2,1,2
 544 867 544 867 491.5 835.5 c 128,-1,3
 439 804 439 804 403 747 c 1,4,-1
 291 0 l 1,5,-1
 48 0 l 1,6,-1
 210 1082 l 1,7,-1
 432 1082 l 1,8,-1
 425 929 l 1,9,10
 478 1011 478 1011 549 1056.5 c 128,-1,11
 620 1102 620 1102 705 1102 c 0,12,13
 726 1102 726 1102 745.5 1098.5 c 128,-1,14
 765 1095 765 1095 780 1090 c 1,15,-1
 716 863 l 1,0,-1
EndSplineSet
Validated: 1
Substitution2: "'smcp' Lowercase to Small Capitals lookup 0 subtable" R.smcp
EndChar

StartChar: s
Encoding: 115 115 86
Width: 1065
GlyphClass: 1
Flags: W
LayerCount: 2
Fore
SplineSet
702 296 m 0,0,1
 710 353 710 353 668.5 389 c 128,-1,2
 627 425 627 425 498 454 c 0,3,4
 313 493 313 493 222 569 c 128,-1,5
 131 645 131 645 149 773 c 0,6,7
 168 914 168 914 296 1008 c 128,-1,8
 424 1102 424 1102 613 1102 c 0,9,10
 800 1102 800 1102 908 1002 c 128,-1,11
 1016 902 1016 902 992 763 c 1,12,-1
 990 757 l 1,13,-1
 756 757 l 1,14,15
 765 826 765 826 720.5 873 c 128,-1,16
 676 920 676 920 588 920 c 0,17,18
 504 920 504 920 450 879.5 c 128,-1,19
 396 839 396 839 388 782 c 256,20,21
 380 725 380 725 418.5 693 c 128,-1,22
 457 661 457 661 588 635 c 0,23,24
 782 595 782 595 871.5 517.5 c 128,-1,25
 961 440 961 440 943 310 c 0,26,27
 922 158 922 158 790 68.5 c 128,-1,28
 658 -21 658 -21 459 -21 c 0,29,30
 257 -21 257 -21 146 88.5 c 128,-1,31
 35 198 35 198 60 335 c 1,32,-1
 62 341 l 1,33,-1
 289 341 l 1,34,35
 280 247 280 247 338 204 c 128,-1,36
 396 161 396 161 488 161 c 0,37,38
 578 161 578 161 636 198.5 c 128,-1,39
 694 236 694 236 702 296 c 0,0,1
EndSplineSet
Validated: 33
Substitution2: "'smcp' Lowercase to Small Capitals lookup 0 subtable" S.smcp
EndChar

StartChar: t
Encoding: 116 116 87
Width: 701
GlyphClass: 1
Flags: W
LayerCount: 2
Fore
SplineSet
561 1345 m 1,0,-1
 521 1082 l 1,1,-1
 715 1082 l 1,2,-1
 688 902 l 1,3,-1
 494 902 l 1,4,-1
 405 304 l 2,5,6
 393 234 393 234 418 207 c 128,-1,7
 443 180 443 180 492 180 c 0,8,9
 511 180 511 180 531 183.5 c 128,-1,10
 551 187 551 187 569 193 c 1,11,-1
 568 15 l 1,12,13
 535 -2 535 -2 491 -11.5 c 128,-1,14
 447 -21 447 -21 401 -21 c 0,15,16
 271 -21 271 -21 204.5 58.5 c 128,-1,17
 138 138 138 138 163 304 c 2,18,-1
 252 902 l 1,19,-1
 87 902 l 1,20,-1
 114 1082 l 1,21,-1
 279 1082 l 1,22,-1
 319 1345 l 1,23,-1
 561 1345 l 1,0,-1
EndSplineSet
Validated: 33
Substitution2: "'smcp' Lowercase to Small Capitals lookup 0 subtable" T.smcp
EndChar

StartChar: u
Encoding: 117 117 88
Width: 1160
GlyphClass: 1
Flags: W
LayerCount: 2
Fore
SplineSet
745 0 m 1,0,-1
 747 155 l 1,1,2
 684 69 684 69 599 24 c 128,-1,3
 514 -21 514 -21 410 -21 c 0,4,5
 242 -21 242 -21 158 94.5 c 128,-1,6
 74 210 74 210 110 449 c 2,7,-1
 205 1082 l 1,8,-1
 447 1082 l 1,9,-1
 352 447 l 2,10,11
 328 286 328 286 364 231.5 c 128,-1,12
 400 177 400 177 497 177 c 0,13,14
 582 177 582 177 647 210 c 128,-1,15
 712 243 712 243 756 305 c 1,16,-1
 873 1082 l 1,17,-1
 1116 1082 l 1,18,-1
 954 0 l 1,19,-1
 745 0 l 1,0,-1
EndSplineSet
Validated: 33
Substitution2: "'smcp' Lowercase to Small Capitals lookup 0 subtable" U.smcp
EndChar

StartChar: v
Encoding: 118 118 89
Width: 1038
GlyphClass: 1
Flags: W
LayerCount: 2
Fore
SplineSet
479 366 m 1,0,-1
 483 279 l 1,1,-1
 489 278 l 1,2,-1
 522 366 l 1,3,-1
 844 1082 l 1,4,-1
 1095 1082 l 1,5,-1
 549 0 l 1,6,-1
 338 0 l 1,7,-1
 114 1082 l 1,8,-1
 365 1082 l 1,9,-1
 479 366 l 1,0,-1
EndSplineSet
Validated: 1
Substitution2: "'smcp' Lowercase to Small Capitals lookup 0 subtable" V.smcp
EndChar

StartChar: w
Encoding: 119 119 90
Width: 1530
GlyphClass: 1
Flags: W
LayerCount: 2
Fore
SplineSet
1049 320 m 1,0,-1
 1055 320 l 1,1,-1
 1327 1082 l 1,2,-1
 1570 1082 l 1,3,-1
 1112 0 l 1,4,-1
 913 0 l 1,5,-1
 792 715 l 1,6,-1
 786 716 l 1,7,-1
 452 0 l 1,8,-1
 253 0 l 1,9,-1
 119 1082 l 1,10,-1
 362 1082 l 1,11,-1
 411 329 l 1,12,-1
 417 328 l 1,13,-1
 756 1082 l 1,14,-1
 933 1082 l 1,15,-1
 1049 320 l 1,0,-1
EndSplineSet
Validated: 1
Substitution2: "'smcp' Lowercase to Small Capitals lookup 0 subtable" W.smcp
EndChar

StartChar: x
Encoding: 120 120 91
Width: 1038
GlyphClass: 1
Flags: W
LayerCount: 2
Fore
SplineSet
543 711 m 1,0,-1
 798 1082 l 1,1,-1
 1077 1082 l 1,2,-1
 657 547 l 1,3,-1
 925 0 l 1,4,-1
 649 0 l 1,5,-1
 497 380 l 1,6,-1
 231 0 l 1,7,-1
 -47 0 l 1,8,-1
 385 547 l 1,9,-1
 125 1082 l 1,10,-1
 401 1082 l 1,11,-1
 543 711 l 1,0,-1
EndSplineSet
Validated: 1
Substitution2: "'smcp' Lowercase to Small Capitals lookup 0 subtable" X.smcp
EndChar

StartChar: y
Encoding: 121 121 92
Width: 1038
GlyphClass: 1
Flags: W
LayerCount: 2
Fore
SplineSet
472 434 m 1,0,-1
 479 326 l 1,1,-1
 485 325 l 1,2,-1
 836 1082 l 1,3,-1
 1102 1082 l 1,4,-1
 467 -164 l 2,5,6
 407 -277 407 -277 317 -357 c 128,-1,7
 227 -437 227 -437 84 -437 c 0,8,9
 56 -437 56 -437 21.5 -431 c 128,-1,10
 -13 -425 -13 -425 -44 -417 c 1,11,-1
 12 -229 l 1,12,13
 24 -230 24 -230 47.5 -232 c 128,-1,14
 71 -234 71 -234 84 -234 c 0,15,16
 147 -234 147 -234 196 -187.5 c 128,-1,17
 245 -141 245 -141 276 -85 c 2,18,-1
 331 12 l 1,19,-1
 98 1082 l 1,20,-1
 363 1082 l 1,21,-1
 472 434 l 1,0,-1
EndSplineSet
Validated: 1
Substitution2: "'smcp' Lowercase to Small Capitals lookup 0 subtable" Y.smcp
EndChar

StartChar: z
Encoding: 122 122 93
Width: 1038
GlyphClass: 1
Flags: W
LayerCount: 2
Fore
SplineSet
341 199 m 1,0,-1
 343 194 l 1,1,-1
 913 194 l 1,2,-1
 884 0 l 1,3,-1
 5 0 l 1,4,-1
 29 159 l 1,5,-1
 678 881 l 1,6,-1
 676 886 l 1,7,-1
 149 886 l 1,8,-1
 178 1082 l 1,9,-1
 1020 1082 l 1,10,-1
 997 928 l 1,11,-1
 341 199 l 1,0,-1
EndSplineSet
Validated: 1
Substitution2: "'smcp' Lowercase to Small Capitals lookup 0 subtable" Z.smcp
EndChar

StartChar: braceleft
Encoding: 123 123 94
Width: 687
GlyphClass: 1
Flags: W
LayerCount: 2
Fore
SplineSet
484 -360 m 1,0,1
 296 -305 296 -305 230 -185 c 128,-1,2
 164 -65 164 -65 189 106 c 2,3,-1
 217 309 l 2,4,5
 232 416 232 416 193 472.5 c 128,-1,6
 154 529 154 529 55 529 c 1,7,-1
 60 566 l 1,8,-1
 75 672 l 1,9,-1
 80 707 l 1,10,11
 174 707 174 707 231.5 766 c 128,-1,12
 289 825 289 825 304 929 c 2,13,-1
 332 1132 l 2,14,15
 356 1309 356 1309 454.5 1425.5 c 128,-1,16
 553 1542 553 1542 758 1597 c 1,17,-1
 786 1457 l 1,18,19
 684 1424 684 1424 631.5 1340 c 128,-1,20
 579 1256 579 1256 561 1132 c 2,21,-1
 533 929 l 2,22,23
 517 820 517 820 463 740 c 128,-1,24
 409 660 409 660 315 616 c 1,25,26
 394 569 394 569 426.5 488.5 c 128,-1,27
 459 408 459 408 446 309 c 2,28,-1
 418 106 l 2,29,30
 399 -22 399 -22 428 -104 c 128,-1,31
 457 -186 457 -186 551 -219 c 1,32,-1
 484 -360 l 1,0,1
EndSplineSet
Validated: 33
EndChar

StartChar: bar
Encoding: 124 124 95
Width: 514
GlyphClass: 1
Flags: W
LayerCount: 2
Fore
SplineSet
238 -270 m 1,0,-1
 24 -270 l 1,1,-1
 282 1456 l 1,2,-1
 496 1456 l 1,3,-1
 238 -270 l 1,0,-1
EndSplineSet
Validated: 1
EndChar

StartChar: braceright
Encoding: 125 125 96
Width: 687
GlyphClass: 1
Flags: W
LayerCount: 2
Fore
SplineSet
-79 -219 m 1,0,1
 23 -186 23 -186 76 -102 c 128,-1,2
 129 -18 129 -18 147 106 c 2,3,-1
 175 309 l 2,4,5
 190 419 190 419 246 498.5 c 128,-1,6
 302 578 302 578 402 621 c 1,7,8
 318 665 318 665 282.5 745.5 c 128,-1,9
 247 826 247 826 262 929 c 2,10,-1
 290 1132 l 2,11,12
 308 1261 308 1261 279 1342.5 c 128,-1,13
 250 1424 250 1424 156 1457 c 1,14,-1
 224 1597 l 1,15,16
 411 1542 411 1542 476.5 1422.5 c 128,-1,17
 542 1303 542 1303 518 1132 c 2,18,-1
 490 929 l 2,19,20
 474 819 474 819 513 763 c 128,-1,21
 552 707 552 707 653 707 c 1,22,-1
 647 664 l 1,23,-1
 634 572 l 1,24,-1
 628 529 l 1,25,26
 532 529 532 529 474.5 470 c 128,-1,27
 417 411 417 411 403 309 c 2,28,-1
 375 106 l 2,29,30
 350 -71 350 -71 251.5 -188 c 128,-1,31
 153 -305 153 -305 -50 -360 c 1,32,-1
 -79 -219 l 1,0,1
EndSplineSet
Validated: 33
EndChar

StartChar: asciitilde
Encoding: 126 126 97
Width: 1361
GlyphClass: 1
Flags: W
LayerCount: 2
Fore
SplineSet
1274 750 m 1,0,1
 1252 593 1252 593 1150 490 c 128,-1,2
 1048 387 1048 387 914 387 c 0,3,4
 830 387 830 387 760 420 c 128,-1,5
 690 453 690 453 618 523 c 0,6,7
 569 569 569 569 528.5 591 c 128,-1,8
 488 613 488 613 442 613 c 0,9,10
 384 613 384 613 333.5 561 c 128,-1,11
 283 509 283 509 273 438 c 1,12,-1
 106 460 l 1,13,14
 128 616 128 616 227.5 715.5 c 128,-1,15
 327 815 327 815 463 815 c 0,16,17
 545 815 545 815 618 781 c 128,-1,18
 691 747 691 747 761 680 c 0,19,20
 808 632 808 632 848.5 611 c 128,-1,21
 889 590 889 590 936 590 c 0,22,23
 992 590 992 590 1044 645 c 128,-1,24
 1096 700 1096 700 1106 773 c 1,25,-1
 1274 750 l 1,0,1
EndSplineSet
Validated: 1
EndChar

StartChar: exclamdown
Encoding: 161 161 99
Width: 542
GlyphClass: 1
Flags: W
LayerCount: 2
Fore
SplineSet
250 -374 m 1,0,-1
 7 -374 l 1,1,-1
 152 590 l 1,2,-1
 395 590 l 1,3,-1
 250 -374 l 1,0,-1
433 847 m 1,4,-1
 190 847 l 1,5,-1
 225 1082 l 1,6,-1
 468 1082 l 1,7,-1
 433 847 l 1,4,-1
EndSplineSet
Validated: 1
EndChar

StartChar: cent
Encoding: 162 162 100
Width: 1149
GlyphClass: 1
Flags: W
LayerCount: 2
Fore
SplineSet
515 173 m 0,0,1
 595 173 595 173 662 225.5 c 128,-1,2
 729 278 729 278 741 357 c 1,3,-1
 961 357 l 1,4,-1
 963 351 l 1,5,6
 947 222 947 222 846.5 123.5 c 128,-1,7
 746 25 746 25 606 -7 c 1,8,-1
 570 -245 l 1,9,-1
 370 -245 l 1,10,-1
 405 -15 l 1,11,12
 220 14 220 14 134 164 c 128,-1,13
 48 314 48 314 79 523 c 1,14,-1
 85 558 l 1,15,16
 118 778 118 778 244 923.5 c 128,-1,17
 370 1069 370 1069 571 1096 c 1,18,-1
 605 1318 l 1,19,-1
 805 1318 l 1,20,-1
 770 1087 l 1,21,22
 902 1051 902 1051 971.5 945 c 128,-1,23
 1041 839 1041 839 1019 694 c 1,24,-1
 791 694 l 1,25,26
 804 787 804 787 759 847 c 128,-1,27
 714 907 714 907 624 907 c 0,28,29
 500 907 500 907 424.5 805 c 128,-1,30
 349 703 349 703 328 558 c 2,31,-1
 322 523 l 2,32,33
 299 366 299 366 340.5 269.5 c 128,-1,34
 382 173 382 173 515 173 c 0,0,1
EndSplineSet
Validated: 33
EndChar

StartChar: sterling
Encoding: 163 163 101
Width: 1205
GlyphClass: 1
Flags: W
LayerCount: 2
Fore
SplineSet
497 599 m 1,0,-1
 485 486 l 2,1,2
 472 401 472 401 438.5 326 c 128,-1,3
 405 251 405 251 355 194 c 1,4,-1
 1080 194 l 1,5,-1
 1050 0 l 1,6,-1
 64 0 l 1,7,-1
 93 194 l 1,8,-1
 103 194 l 1,9,10
 152 207 152 207 188.5 295.5 c 128,-1,11
 225 384 225 384 240 478 c 1,12,-1
 253 599 l 1,13,-1
 91 599 l 1,14,-1
 120 795 l 1,15,-1
 275 795 l 1,16,-1
 302 1033 l 1,17,18
 334 1248 334 1248 466 1362.5 c 128,-1,19
 598 1477 598 1477 796 1477 c 0,20,21
 995 1477 995 1477 1096 1367.5 c 128,-1,22
 1197 1258 1197 1258 1167 1082 c 1,23,-1
 1164 1076 l 1,24,-1
 929 1076 l 1,25,26
 945 1186 945 1186 899 1234 c 128,-1,27
 853 1282 853 1282 766 1282 c 0,28,29
 684 1282 684 1282 623 1216 c 128,-1,30
 562 1150 562 1150 545 1033 c 1,31,-1
 519 795 l 1,32,-1
 907 795 l 1,33,-1
 878 599 l 1,34,-1
 497 599 l 1,0,-1
EndSplineSet
Validated: 33
EndChar

StartChar: currency
Encoding: 164 164 102
Width: 1437
GlyphClass: 1
Flags: W
LayerCount: 2
Fore
SplineSet
1024 104 m 1,0,1
 938 44 938 44 840 12 c 128,-1,2
 742 -20 742 -20 640 -20 c 0,3,4
 543 -20 543 -20 456.5 13 c 128,-1,5
 370 46 370 46 302 109 c 1,6,-1
 150 -26 l 1,7,-1
 31 118 l 1,8,-1
 189 258 l 1,9,10
 151 334 151 334 137.5 423 c 128,-1,11
 124 512 124 512 139 608 c 0,12,13
 154 713 154 713 195.5 806 c 128,-1,14
 237 899 237 899 300 976 c 1,15,-1
 181 1120 l 1,16,-1
 344 1264 l 1,17,-1
 461 1122 l 1,18,19
 543 1176 543 1176 636.5 1205 c 128,-1,20
 730 1234 730 1234 828 1234 c 0,21,22
 921 1234 921 1234 1005 1202.5 c 128,-1,23
 1089 1171 1089 1171 1156 1114 c 1,24,-1
 1327 1265 l 1,25,-1
 1447 1120 l 1,26,-1
 1274 967 l 1,27,28
 1314 889 1314 889 1328.5 798 c 128,-1,29
 1343 707 1343 707 1329 608 c 0,30,31
 1313 508 1313 508 1275 419.5 c 128,-1,32
 1237 331 1237 331 1181 256 c 1,33,-1
 1297 118 l 1,34,-1
 1133 -27 l 1,35,-1
 1024 104 l 1,0,1
324 608 m 0,36,37
 295 416 295 416 395 290.5 c 128,-1,38
 495 165 495 165 668 165 c 0,39,40
 831 165 831 165 973 295 c 128,-1,41
 1115 425 1115 425 1143 608 c 0,42,43
 1171 799 1171 799 1071.5 923.5 c 128,-1,44
 972 1048 972 1048 800 1048 c 0,45,46
 635 1048 635 1048 493 919 c 128,-1,47
 351 790 351 790 324 608 c 0,36,37
EndSplineSet
Validated: 33
EndChar

StartChar: yen
Encoding: 165 165 103
Width: 1248
GlyphClass: 1
Flags: W
LayerCount: 2
Fore
SplineSet
662 815 m 1,0,-1
 1081 1456 l 1,1,-1
 1352 1456 l 1,2,-1
 848 742 l 1,3,-1
 1124 742 l 1,4,-1
 1102 595 l 1,5,-1
 747 595 l 1,6,-1
 726 452 l 1,7,-1
 1081 452 l 1,8,-1
 1059 306 l 1,9,-1
 704 306 l 1,10,-1
 658 0 l 1,11,-1
 415 0 l 1,12,-1
 461 306 l 1,13,-1
 104 306 l 1,14,-1
 126 452 l 1,15,-1
 483 452 l 1,16,-1
 504 595 l 1,17,-1
 147 595 l 1,18,-1
 169 742 l 1,19,-1
 456 742 l 1,20,-1
 164 1456 l 1,21,-1
 436 1456 l 1,22,-1
 662 815 l 1,0,-1
EndSplineSet
Validated: 1
EndChar

StartChar: brokenbar
Encoding: 166 166 104
Width: 508
GlyphClass: 1
Flags: W
LayerCount: 2
Fore
SplineSet
16 -270 m 1,0,-1
 135 525 l 1,1,-1
 364 525 l 1,2,-1
 245 -270 l 1,3,-1
 16 -270 l 1,0,-1
390 698 m 1,4,-1
 161 698 l 1,5,-1
 274 1456 l 1,6,-1
 503 1456 l 1,7,-1
 390 698 l 1,4,-1
EndSplineSet
Validated: 1
EndChar

StartChar: section
Encoding: 167 167 105
Width: 1272
GlyphClass: 1
Flags: W
LayerCount: 2
Fore
SplineSet
1152 455 m 0,0,1
 1137 359 1137 359 1083.5 290 c 128,-1,2
 1030 221 1030 221 943 180 c 1,3,4
 1001 130 1001 130 1023.5 62 c 128,-1,5
 1046 -6 1046 -6 1033 -103 c 0,6,7
 1005 -285 1005 -285 856 -380.5 c 128,-1,8
 707 -476 707 -476 473 -476 c 0,9,10
 254 -476 254 -476 113 -374.5 c 128,-1,11
 -28 -273 -28 -273 9 -56 c 1,12,-1
 11 -50 l 1,13,-1
 245 -49 l 1,14,15
 225 -176 225 -176 301 -228.5 c 128,-1,16
 377 -281 377 -281 502 -281 c 0,17,18
 620 -281 620 -281 699 -231 c 128,-1,19
 778 -181 778 -181 790 -105 c 0,20,21
 802 -25 802 -25 743.5 18 c 128,-1,22
 685 61 685 61 503 118 c 1,23,24
 271 182 271 182 169.5 275 c 128,-1,25
 68 368 68 368 95 542 c 0,26,27
 109 635 109 635 162.5 705 c 128,-1,28
 216 775 216 775 303 817 c 1,29,30
 245 867 245 867 222.5 936.5 c 128,-1,31
 200 1006 200 1006 215 1102 c 0,32,33
 241 1278 241 1278 392.5 1377.5 c 128,-1,34
 544 1477 544 1477 777 1477 c 0,35,36
 1006 1477 1006 1477 1127.5 1364.5 c 128,-1,37
 1249 1252 1249 1252 1214 1053 c 1,38,-1
 1212 1047 l 1,39,-1
 977 1047 l 1,40,41
 993 1152 993 1152 933 1217 c 128,-1,42
 873 1282 873 1282 747 1282 c 0,43,44
 622 1282 622 1282 546 1231 c 128,-1,45
 470 1180 470 1180 459 1104 c 0,46,47
 445 1015 445 1015 498.5 974 c 128,-1,48
 552 933 552 933 743 880 c 0,49,50
 978 814 978 814 1078 721.5 c 128,-1,51
 1178 629 1178 629 1152 455 c 0,0,1
622 673 m 0,52,53
 579 684 579 684 542 696.5 c 128,-1,54
 505 709 505 709 474 722 c 1,55,56
 416 700 416 700 381.5 657 c 128,-1,57
 347 614 347 614 340 558 c 0,58,59
 326 466 326 466 380 422.5 c 128,-1,60
 434 379 434 379 622 323 c 0,61,62
 661 311 661 311 698 299.5 c 128,-1,63
 735 288 735 288 769 276 c 1,64,65
 827 298 827 298 864 340.5 c 128,-1,66
 901 383 901 383 910 439 c 0,67,68
 922 521 922 521 862.5 568 c 128,-1,69
 803 615 803 615 622 673 c 0,52,53
EndSplineSet
Validated: 33
EndChar

StartChar: dieresis
Encoding: 168 168 106
Width: 1054
GlyphClass: 1
Flags: W
LayerCount: 2
Fore
SplineSet
989 1252 m 1,0,-1
 747 1252 l 1,1,-1
 776 1456 l 1,2,-1
 1018 1456 l 1,3,-1
 989 1252 l 1,0,-1
505 1252 m 1,4,-1
 264 1252 l 1,5,-1
 293 1456 l 1,6,-1
 534 1456 l 1,7,-1
 505 1252 l 1,4,-1
EndSplineSet
Validated: 1
EndChar

StartChar: copyright
Encoding: 169 169 107
Width: 1604
GlyphClass: 1
Flags: W
LayerCount: 2
Fore
SplineSet
1118 596 m 1,0,-1
 1120 590 l 1,1,2
 1101 434 1101 434 1002.5 358 c 128,-1,3
 904 282 904 282 745 282 c 0,4,5
 591 282 591 282 509.5 389.5 c 128,-1,6
 428 497 428 497 454 669 c 2,7,-1
 472 788 l 2,8,9
 498 967 498 967 607.5 1071 c 128,-1,10
 717 1175 717 1175 879 1175 c 0,11,12
 1031 1175 1031 1175 1110 1094.5 c 128,-1,13
 1189 1014 1189 1014 1163 866 c 1,14,-1
 1161 861 l 1,15,-1
 1012 861 l 1,16,17
 1026 958 1026 958 988 999 c 128,-1,18
 950 1040 950 1040 859 1040 c 256,19,20
 768 1040 768 1040 705 970.5 c 128,-1,21
 642 901 642 901 626 789 c 2,22,-1
 608 669 l 2,23,24
 590 550 590 550 630.5 483.5 c 128,-1,25
 671 417 671 417 766 417 c 0,26,27
 853 417 853 417 905 459 c 128,-1,28
 957 501 957 501 971 596 c 1,29,-1
 1118 596 l 1,0,-1
238 729 m 0,30,31
 197 455 197 455 341 279.5 c 128,-1,32
 485 104 485 104 733 104 c 0,33,34
 968 104 968 104 1170.5 286 c 128,-1,35
 1373 468 1373 468 1413 729 c 0,36,37
 1454 1002 1454 1002 1310.5 1176.5 c 128,-1,38
 1167 1351 1167 1351 920 1351 c 0,39,40
 683 1351 683 1351 480 1170 c 128,-1,41
 277 989 277 989 238 729 c 0,30,31
116 729 m 0,42,43
 165 1056 165 1056 401.5 1266 c 128,-1,44
 638 1476 638 1476 938 1476 c 0,45,46
 1221 1476 1221 1476 1401.5 1258 c 128,-1,47
 1582 1040 1582 1040 1535 729 c 0,48,49
 1486 401 1486 401 1249 190 c 128,-1,50
 1012 -21 1012 -21 714 -21 c 0,51,52
 430 -21 430 -21 249.5 197.5 c 128,-1,53
 69 416 69 416 116 729 c 0,42,43
EndSplineSet
Validated: 33
EndChar

StartChar: ordfeminine
Encoding: 170 170 108
Width: 913
GlyphClass: 1
Flags: W
LayerCount: 2
Fore
SplineSet
634 706 m 1,0,1
 630 728 630 728 628 752 c 128,-1,2
 626 776 626 776 627 800 c 1,3,4
 587 753 587 753 526.5 722.5 c 128,-1,5
 466 692 466 692 389 692 c 0,6,7
 275 692 275 692 216.5 754 c 128,-1,8
 158 816 158 816 174 920 c 0,9,10
 191 1034 191 1034 283.5 1092.5 c 128,-1,11
 376 1151 376 1151 540 1151 c 2,12,-1
 676 1151 l 1,13,-1
 684 1202 l 2,14,15
 693 1266 693 1266 669 1297.5 c 128,-1,16
 645 1329 645 1329 587 1329 c 0,17,18
 524 1329 524 1329 482.5 1303 c 128,-1,19
 441 1277 441 1277 435 1230 c 1,20,-1
 273 1243 l 1,21,-1
 272 1249 l 1,22,23
 281 1351 281 1351 374.5 1414 c 128,-1,24
 468 1477 468 1477 610 1477 c 0,25,26
 739 1477 739 1477 809 1405 c 128,-1,27
 879 1333 879 1333 859 1201 c 2,28,-1
 812 887 l 2,29,30
 804 835 804 835 803.5 791.5 c 128,-1,31
 803 748 803 748 811 706 c 1,32,-1
 634 706 l 1,0,1
453 836 m 0,33,34
 501 836 501 836 560 865 c 128,-1,35
 619 894 619 894 643 928 c 1,36,-1
 659 1034 l 1,37,-1
 523 1034 l 2,38,39
 452 1034 452 1034 404 1001.5 c 128,-1,40
 356 969 356 969 350 924 c 0,41,42
 343 880 343 880 368 858 c 128,-1,43
 393 836 393 836 453 836 c 0,33,34
EndSplineSet
Validated: 33
EndChar

StartChar: logicalnot
Encoding: 172 172 110
Width: 1133
GlyphClass: 1
Flags: W
LayerCount: 2
Fore
SplineSet
977 634 m 1,0,-1
 938 374 l 1,1,-1
 738 374 l 1,2,-1
 777 634 l 1,3,-1
 142 634 l 1,4,-1
 168 805 l 1,5,-1
 1003 805 l 1,6,-1
 977 634 l 1,0,-1
EndSplineSet
Validated: 1
EndChar

StartChar: registered
Encoding: 174 174 112
Width: 1604
GlyphClass: 1
Flags: W
LayerCount: 2
Fore
SplineSet
116 729 m 0,0,1
 165 1056 165 1056 401.5 1266 c 128,-1,2
 638 1476 638 1476 938 1476 c 0,3,4
 1221 1476 1221 1476 1401.5 1258 c 128,-1,5
 1582 1040 1582 1040 1535 729 c 0,6,7
 1486 401 1486 401 1249 190 c 128,-1,8
 1012 -21 1012 -21 714 -21 c 0,9,10
 430 -21 430 -21 249.5 197.5 c 128,-1,11
 69 416 69 416 116 729 c 0,0,1
238 729 m 0,12,13
 197 455 197 455 341 279.5 c 128,-1,14
 485 104 485 104 733 104 c 0,15,16
 968 104 968 104 1170.5 286 c 128,-1,17
 1373 468 1373 468 1413 729 c 0,18,19
 1454 1002 1454 1002 1310.5 1176.5 c 128,-1,20
 1167 1351 1167 1351 920 1351 c 0,21,22
 683 1351 683 1351 480 1170 c 128,-1,23
 277 989 277 989 238 729 c 0,12,13
671 653 m 1,24,-1
 620 316 l 1,25,-1
 469 316 l 1,26,-1
 597 1166 l 1,27,-1
 878 1166 l 2,28,29
 1024 1166 1024 1166 1103 1098.5 c 128,-1,30
 1182 1031 1182 1031 1164 906 c 0,31,32
 1154 844 1154 844 1116.5 799 c 128,-1,33
 1079 754 1079 754 1016 724 c 1,34,35
 1071 695 1071 695 1091.5 641 c 128,-1,36
 1112 587 1112 587 1102 515 c 2,37,-1
 1094 459 l 2,38,39
 1087 416 1087 416 1086 384.5 c 128,-1,40
 1085 353 1085 353 1092 332 c 1,41,-1
 1089 316 l 1,42,-1
 934 316 l 1,43,44
 929 337 929 337 932.5 375 c 128,-1,45
 936 413 936 413 943 460 c 2,46,-1
 951 514 l 2,47,48
 962 588 962 588 934 620.5 c 128,-1,49
 906 653 906 653 829 653 c 2,50,-1
 671 653 l 1,24,-1
691 787 m 1,51,-1
 834 787 l 2,52,53
 902 787 902 787 953.5 817.5 c 128,-1,54
 1005 848 1005 848 1013 903 c 0,55,56
 1024 978 1024 978 990.5 1005.5 c 128,-1,57
 957 1033 957 1033 858 1033 c 2,58,-1
 728 1033 l 1,59,-1
 691 787 l 1,51,-1
EndSplineSet
Validated: 33
EndChar

StartChar: macron
Encoding: 175 175 113
AltUni2: 0002c9.ffffffff.0 0002c9.ffffffff.0
Width: 987
GlyphClass: 1
Flags: W
LayerCount: 2
Fore
SplineSet
969 1298 m 1,0,-1
 242 1298 l 1,1,-1
 264 1456 l 1,2,-1
 991 1456 l 1,3,-1
 969 1298 l 1,0,-1
EndSplineSet
Validated: 1
EndChar

StartChar: degree
Encoding: 176 176 114
Width: 778
GlyphClass: 1
Flags: W
LayerCount: 2
Fore
SplineSet
228 1208 m 0,0,1
 245 1322 245 1322 334 1399.5 c 128,-1,2
 423 1477 423 1477 533 1477 c 0,3,4
 635 1477 635 1477 701.5 1397 c 128,-1,5
 768 1317 768 1317 752 1208 c 0,6,7
 734 1093 734 1093 647.5 1018.5 c 128,-1,8
 561 944 561 944 453 944 c 0,9,10
 348 944 348 944 279.5 1021.5 c 128,-1,11
 211 1099 211 1099 228 1208 c 0,0,1
367 1208 m 0,12,13
 358 1153 358 1153 389.5 1118.5 c 128,-1,14
 421 1084 421 1084 474 1084 c 0,15,16
 524 1084 524 1084 565 1119.5 c 128,-1,17
 606 1155 606 1155 614 1208 c 0,18,19
 622 1264 622 1264 592.5 1300 c 128,-1,20
 563 1336 563 1336 511 1336 c 0,21,22
 461 1336 461 1336 418 1298.5 c 128,-1,23
 375 1261 375 1261 367 1208 c 0,12,13
EndSplineSet
Validated: 33
EndChar

StartChar: plusminus
Encoding: 177 177 115
Width: 1099
GlyphClass: 1
Flags: W
LayerCount: 2
Fore
SplineSet
720 906 m 1,0,-1
 1063 906 l 1,1,-1
 1035 707 l 1,2,-1
 692 707 l 1,3,-1
 637 312 l 1,4,-1
 422 312 l 1,5,-1
 477 707 l 1,6,-1
 119 707 l 1,7,-1
 147 906 l 1,8,-1
 505 906 l 1,9,-1
 559 1290 l 1,10,-1
 774 1290 l 1,11,-1
 720 906 l 1,0,-1
884 -23 m 1,12,-1
 49 -23 l 1,13,-1
 79 173 l 1,14,-1
 914 173 l 1,15,-1
 884 -23 l 1,12,-1
EndSplineSet
Validated: 1
EndChar

StartChar: twosuperior
Encoding: 178 178 116
Width: 865
GlyphClass: 1
Flags: W
LayerCount: 2
Fore
SplineSet
745 667 m 1,0,-1
 138 667 l 1,1,-1
 160 812 l 1,2,-1
 503 1068 l 2,3,4
 576 1122 576 1122 600.5 1157 c 128,-1,5
 625 1192 625 1192 632 1233 c 0,6,7
 639 1278 639 1278 617.5 1305.5 c 128,-1,8
 596 1333 596 1333 542 1333 c 0,9,10
 483 1333 483 1333 445 1302.5 c 128,-1,11
 407 1272 407 1272 401 1225 c 1,12,-1
 221 1225 l 1,13,-1
 219 1231 l 1,14,15
 229 1338 229 1338 325 1408.5 c 128,-1,16
 421 1479 421 1479 567 1479 c 0,17,18
 701 1479 701 1479 771 1413.5 c 128,-1,19
 841 1348 841 1348 824 1232 c 0,20,21
 811 1147 811 1147 756.5 1091.5 c 128,-1,22
 702 1036 702 1036 561 928 c 2,23,-1
 415 818 l 1,24,-1
 416 812 l 1,25,-1
 767 812 l 1,26,-1
 745 667 l 1,0,-1
EndSplineSet
Validated: 33
EndChar

StartChar: threesuperior
Encoding: 179 179 117
Width: 867
GlyphClass: 1
Flags: W
LayerCount: 2
Fore
SplineSet
385 1139 m 1,0,-1
 508 1139 l 2,1,2
 570 1139 570 1139 606 1165.5 c 128,-1,3
 642 1192 642 1192 649 1240 c 0,4,5
 655 1280 655 1280 626.5 1306 c 128,-1,6
 598 1332 598 1332 536 1332 c 0,7,8
 485 1332 485 1332 449 1309.5 c 128,-1,9
 413 1287 413 1287 408 1254 c 1,10,-1
 227 1254 l 1,11,-1
 226 1260 l 1,12,13
 235 1362 235 1362 329 1420 c 128,-1,14
 423 1478 423 1478 555 1478 c 0,15,16
 698 1478 698 1478 777.5 1418 c 128,-1,17
 857 1358 857 1358 841 1249 c 0,18,19
 832 1192 832 1192 790.5 1146.5 c 128,-1,20
 749 1101 749 1101 684 1076 c 1,21,22
 748 1052 748 1052 779 1004.5 c 128,-1,23
 810 957 810 957 801 891 c 0,24,25
 783 775 783 775 685 715 c 128,-1,26
 587 655 587 655 436 655 c 0,27,28
 305 655 305 655 220 715.5 c 128,-1,29
 135 776 135 776 157 888 c 1,30,-1
 159 894 l 1,31,-1
 341 894 l 1,32,33
 334 849 334 849 364.5 824.5 c 128,-1,34
 395 800 395 800 457 800 c 256,35,36
 519 800 519 800 562 826.5 c 128,-1,37
 605 853 605 853 612 897 c 0,38,39
 620 955 620 955 589 981.5 c 128,-1,40
 558 1008 558 1008 488 1008 c 2,41,-1
 365 1008 l 1,42,-1
 379 1099 l 1,43,-1
 385 1139 l 1,0,-1
EndSplineSet
Validated: 33
EndChar

StartChar: acute
Encoding: 180 180 118
Width: 689
GlyphClass: 1
Flags: W
LayerCount: 2
Fore
SplineSet
453 1518 m 1,0,-1
 727 1518 l 1,1,-1
 729 1512 l 1,2,-1
 419 1252 l 1,3,-1
 231 1252 l 1,4,-1
 229 1257 l 1,5,-1
 453 1518 l 1,0,-1
EndSplineSet
Validated: 1
EndChar

StartChar: mu
Encoding: 181 181 119
Width: 1211
GlyphClass: 1
Flags: W
LayerCount: 2
Fore
SplineSet
470 1082 m 1,0,-1
 375 445 l 1,1,-1
 314 45 l 1,2,-1
 308 44 l 1,3,4
 282 62 282 62 262 95.5 c 128,-1,5
 242 129 242 129 231 175 c 1,6,-1
 377 462 l 1,7,8
 351 288 351 288 391.5 231.5 c 128,-1,9
 432 175 432 175 531 175 c 0,10,11
 617 175 617 175 678 207.5 c 128,-1,12
 739 240 739 240 778 303 c 1,13,-1
 894 1082 l 1,14,-1
 1137 1082 l 1,15,-1
 975 0 l 1,16,-1
 752 0 l 1,17,-1
 758 81 l 1,18,19
 707 30 707 30 643 4.5 c 128,-1,20
 579 -21 579 -21 503 -21 c 0,21,22
 443 -21 443 -21 395.5 -7 c 128,-1,23
 348 7 348 7 313 36 c 1,24,-1
 246 -416 l 1,25,-1
 4 -416 l 1,26,-1
 228 1082 l 1,27,-1
 470 1082 l 1,0,-1
EndSplineSet
Validated: 37
EndChar

StartChar: paragraph
Encoding: 182 182 120
Width: 1040
GlyphClass: 1
Flags: W
LayerCount: 2
Fore
SplineSet
557 0 m 1,0,-1
 635 520 l 1,1,-1
 552 520 l 2,2,3
 328 520 328 520 213.5 651 c 128,-1,4
 99 782 99 782 130 988 c 0,5,6
 162 1202 162 1202 309.5 1329 c 128,-1,7
 457 1456 457 1456 692 1456 c 2,8,-1
 1018 1456 l 1,9,-1
 800 0 l 1,10,-1
 557 0 l 1,0,-1
EndSplineSet
Validated: 33
EndChar

StartChar: periodcentered
Encoding: 183 183 121
Width: 578
GlyphClass: 1
Flags: W
LayerCount: 2
Fore
SplineSet
411 594 m 1,0,-1
 169 594 l 1,1,-1
 205 834 l 1,2,-1
 447 834 l 1,3,-1
 411 594 l 1,0,-1
EndSplineSet
Validated: 1
EndChar

StartChar: cedilla
Encoding: 184 184 122
Width: 528
GlyphClass: 1
Flags: W
LayerCount: 2
Fore
SplineSet
238 3 m 1,0,-1
 219 -51 l 1,1,2
 281 -62 281 -62 318 -103 c 128,-1,3
 355 -144 355 -144 343 -224 c 0,4,5
 327 -330 327 -330 234.5 -388.5 c 128,-1,6
 142 -447 142 -447 -17 -447 c 1,7,-1
 -4 -310 l 1,8,9
 56 -310 56 -310 97.5 -287.5 c 128,-1,10
 139 -265 139 -265 147 -221 c 0,11,12
 153 -175 153 -175 122.5 -158 c 128,-1,13
 92 -141 92 -141 9 -136 c 1,14,-1
 61 3 l 1,15,-1
 238 3 l 1,0,-1
EndSplineSet
Validated: 33
EndChar

StartChar: onesuperior
Encoding: 185 185 123
Width: 565
GlyphClass: 1
Flags: W
LayerCount: 2
Fore
SplineSet
426 665 m 1,0,-1
 234 665 l 1,1,-1
 330 1304 l 1,2,-1
 203 1304 l 1,3,-1
 225 1454 l 1,4,-1
 548 1477 l 1,5,-1
 426 665 l 1,0,-1
EndSplineSet
Validated: 1
EndChar

StartChar: ordmasculine
Encoding: 186 186 124
Width: 935
GlyphClass: 1
Flags: W
LayerCount: 2
Fore
SplineSet
210 1142 m 2,0,1
 233 1295 233 1295 340.5 1386 c 128,-1,2
 448 1477 448 1477 607 1477 c 0,3,4
 759 1477 759 1477 842 1382.5 c 128,-1,5
 925 1288 925 1288 903 1142 c 2,6,-1
 886 1025 l 2,7,8
 862 870 862 870 756 780.5 c 128,-1,9
 650 691 650 691 491 691 c 0,10,11
 338 691 338 691 254.5 784.5 c 128,-1,12
 171 878 171 878 193 1025 c 2,13,-1
 210 1142 l 2,0,1
368 1025 m 2,14,15
 354 937 354 937 390.5 887 c 128,-1,16
 427 837 427 837 513 837 c 0,17,18
 592 837 592 837 645 889 c 128,-1,19
 698 941 698 941 711 1025 c 2,20,-1
 728 1142 l 2,21,22
 741 1228 741 1228 704.5 1278.5 c 128,-1,23
 668 1329 668 1329 584 1329 c 0,24,25
 504 1329 504 1329 450.5 1276 c 128,-1,26
 397 1223 397 1223 385 1142 c 2,27,-1
 368 1025 l 2,14,15
EndSplineSet
Validated: 33
EndChar

StartChar: questiondown
Encoding: 191 191 129
Width: 1025
GlyphClass: 1
Flags: W
LayerCount: 2
Fore
SplineSet
704 669 m 1,0,1
 681 525 681 525 640 464 c 128,-1,2
 599 403 599 403 476 311 c 1,3,4
 384 232 384 232 328.5 163.5 c 128,-1,5
 273 95 273 95 261 12 c 0,6,7
 246 -88 246 -88 289.5 -140 c 128,-1,8
 333 -192 333 -192 433 -192 c 0,9,10
 512 -192 512 -192 578 -146 c 128,-1,11
 644 -100 644 -100 659 -11 c 1,12,-1
 893 -11 l 1,13,-1
 895 -17 l 1,14,15
 870 -195 870 -195 732.5 -294.5 c 128,-1,16
 595 -394 595 -394 403 -394 c 0,17,18
 200 -394 200 -394 95 -286 c 128,-1,19
 -10 -178 -10 -178 17 8 c 0,20,21
 36 140 36 140 123.5 245 c 128,-1,22
 211 350 211 350 341 442 c 0,23,24
 405 491 405 491 427 536.5 c 128,-1,25
 449 582 449 582 462 669 c 1,26,-1
 704 669 l 1,0,1
520 1082 m 1,27,-1
 768 1082 l 1,28,-1
 733 849 l 1,29,-1
 485 849 l 1,30,-1
 520 1082 l 1,27,-1
EndSplineSet
Validated: 33
EndChar

StartChar: AE
Encoding: 198 198 136
Width: 1976
GlyphClass: 1
Flags: W
LayerCount: 2
Fore
SplineSet
1822 0 m 1,0,-1
 925 0 l 1,1,-1
 961 340 l 1,2,-1
 458 340 l 1,3,-1
 223 0 l 1,4,-1
 -67 0 l 1,5,-1
 986 1456 l 1,6,-1
 1979 1456 l 1,7,-1
 1950 1259 l 1,8,-1
 1302 1259 l 1,9,-1
 1258 851 l 1,10,-1
 1808 851 l 1,11,-1
 1778 654 l 1,12,-1
 1237 654 l 1,13,-1
 1188 196 l 1,14,-1
 1851 196 l 1,15,-1
 1822 0 l 1,0,-1
984 555 m 1,16,-1
 1053 1191 l 1,17,-1
 1047 1193 l 1,18,-1
 606 555 l 1,19,-1
 984 555 l 1,16,-1
EndSplineSet
Validated: 1
EndChar

StartChar: Eth
Encoding: 208 208 146
Width: 1372
GlyphClass: 1
Flags: W
LayerCount: 2
Fore
SplineSet
73 0 m 1,0,-1
 171 657 l 1,1,-1
 18 657 l 1,2,-1
 43 827 l 1,3,-1
 197 827 l 1,4,-1
 291 1456 l 1,5,-1
 772 1456 l 2,6,7
 1038 1456 1038 1456 1191 1281.5 c 128,-1,8
 1344 1107 1344 1107 1304 838 c 2,9,-1
 1271 617 l 2,10,11
 1228 334 1228 334 1031.5 167 c 128,-1,12
 835 0 835 0 554 0 c 2,13,-1
 73 0 l 1,0,-1
673 657 m 1,14,-1
 414 657 l 1,15,-1
 345 194 l 1,16,-1
 583 194 l 2,17,18
 751 194 751 194 875 314 c 128,-1,19
 999 434 999 434 1028 617 c 2,20,-1
 1061 840 l 2,21,22
 1089 1031 1089 1031 1004.5 1146 c 128,-1,23
 920 1261 920 1261 743 1261 c 2,24,-1
 505 1261 l 1,25,-1
 440 827 l 1,26,-1
 698 827 l 1,27,-1
 673 657 l 1,14,-1
EndSplineSet
Validated: 33
Substitution2: "'smcp' Lowercase to Small Capitals lookup 0 subtable" Eth.smcp
EndChar

StartChar: multiply
Encoding: 215 215 153
Width: 1092
GlyphClass: 1
Flags: W
LayerCount: 2
Fore
SplineSet
52 364 m 1,0,-1
 416 685 l 1,1,-1
 148 1008 l 1,2,-1
 319 1158 l 1,3,-1
 586 836 l 1,4,-1
 950 1158 l 1,5,-1
 1075 1008 l 1,6,-1
 711 686 l 1,7,-1
 979 364 l 1,8,-1
 808 214 l 1,9,-1
 540 535 l 1,10,-1
 177 214 l 1,11,-1
 52 364 l 1,0,-1
EndSplineSet
Validated: 1
EndChar

StartChar: Oslash
Encoding: 216 216 154
Width: 1403
GlyphClass: 1
Flags: W
LayerCount: 2
Fore
SplineSet
1307 597 m 2,0,1
 1264 319 1264 319 1073 149 c 128,-1,2
 882 -21 882 -21 611 -21 c 0,3,4
 531 -21 531 -21 460 -2 c 128,-1,5
 389 17 389 17 331 55 c 1,6,-1
 220 -95 l 1,7,-1
 72 -95 l 1,8,-1
 239 131 l 1,9,10
 160 216 160 216 126.5 336.5 c 128,-1,11
 93 457 93 457 115 597 c 2,12,-1
 154 859 l 2,13,14
 195 1135 195 1135 383 1306 c 128,-1,15
 571 1477 571 1477 836 1477 c 0,16,17
 929 1477 929 1477 1010.5 1450.5 c 128,-1,18
 1092 1424 1092 1424 1157 1376 c 1,19,-1
 1262 1518 l 1,20,-1
 1410 1518 l 1,21,-1
 1244 1293 l 1,22,23
 1310 1208 1310 1208 1337 1096.5 c 128,-1,24
 1364 985 1364 985 1346 859 c 2,25,-1
 1307 597 l 2,0,1
358 597 m 2,26,27
 346 516 346 516 352 449 c 128,-1,28
 358 382 358 382 383 336 c 1,29,-1
 389 335 l 1,30,-1
 1025 1197 l 1,31,32
 985 1235 985 1235 930 1256 c 128,-1,33
 875 1277 875 1277 806 1277 c 0,34,35
 651 1277 651 1277 537.5 1159 c 128,-1,36
 424 1041 424 1041 397 861 c 2,37,-1
 358 597 l 2,26,27
1103 861 m 2,38,39
 1112 924 1112 924 1109 980 c 128,-1,40
 1106 1036 1106 1036 1091 1077 c 1,41,-1
 1086 1079 l 1,42,-1
 461 232 l 1,43,44
 495 205 495 205 540.5 191.5 c 128,-1,45
 586 178 586 178 641 178 c 0,46,47
 802 178 802 178 919 296.5 c 128,-1,48
 1036 415 1036 415 1064 597 c 2,49,-1
 1103 861 l 2,38,39
EndSplineSet
Validated: 33
EndChar

StartChar: Thorn
Encoding: 222 222 160
Width: 1226
GlyphClass: 1
Flags: W
LayerCount: 2
Fore
SplineSet
529 1456 m 1,0,-1
 487 1176 l 1,1,-1
 733 1176 l 2,2,3
 966 1176 966 1176 1087.5 1053.5 c 128,-1,4
 1209 931 1209 931 1181 738 c 0,5,6
 1150 534 1150 534 998.5 417 c 128,-1,7
 847 300 847 300 602 300 c 2,8,-1
 356 300 l 1,9,-1
 311 0 l 1,10,-1
 68 0 l 1,11,-1
 286 1456 l 1,12,-1
 529 1456 l 1,0,-1
458 981 m 1,13,-1
 385 495 l 1,14,-1
 631 495 l 2,15,16
 760 495 760 495 841 565.5 c 128,-1,17
 922 636 922 636 937 736 c 0,18,19
 953 843 953 843 896.5 912 c 128,-1,20
 840 981 840 981 704 981 c 2,21,-1
 458 981 l 1,13,-1
EndSplineSet
Validated: 33
EndChar

StartChar: germandbls
Encoding: 223 223 161
Width: 1255
GlyphClass: 1
Flags: W
LayerCount: 2
Fore
SplineSet
298 0 m 1,0,-1
 56 0 l 1,1,-1
 220 1093 l 2,2,3
 254 1326 254 1326 394 1446.5 c 128,-1,4
 534 1567 534 1567 739 1567 c 0,5,6
 903 1567 903 1567 1001.5 1474.5 c 128,-1,7
 1100 1382 1100 1382 1075 1211 c 0,8,9
 1057 1091 1057 1091 982.5 990.5 c 128,-1,10
 908 890 908 890 899 829 c 0,11,12
 888 756 888 756 1029 616 c 128,-1,13
 1170 476 1170 476 1150 339 c 0,14,15
 1121 152 1121 152 1001 65.5 c 128,-1,16
 881 -21 881 -21 681 -21 c 0,17,18
 602 -21 602 -21 518.5 -3.5 c 128,-1,19
 435 14 435 14 401 41 c 1,20,-1
 480 238 l 1,21,22
 518 213 518 213 576 193 c 128,-1,23
 634 173 634 173 696 173 c 0,24,25
 786 173 786 173 840.5 215 c 128,-1,26
 895 257 895 257 906 327 c 0,27,28
 918 408 918 408 776 544.5 c 128,-1,29
 634 681 634 681 656 825 c 0,30,31
 669 915 669 915 747 1018 c 128,-1,32
 825 1121 825 1121 837 1195 c 0,33,34
 849 1278 849 1278 809.5 1325 c 128,-1,35
 770 1372 770 1372 706 1372 c 0,36,37
 619 1372 619 1372 550 1297 c 128,-1,38
 481 1222 481 1222 462 1091 c 2,39,-1
 298 0 l 1,0,-1
EndSplineSet
Validated: 33
Substitution2: "'smcp' Lowercase to Small Capitals lookup 0 subtable" germandbls.smcp
EndChar

StartChar: ae
Encoding: 230 230 168
Width: 1780
GlyphClass: 1
Flags: W
LayerCount: 2
Fore
SplineSet
1203 -21 m 0,0,1
 1076 -21 1076 -21 980 25 c 128,-1,2
 884 71 884 71 829 155 c 1,3,4
 759 80 759 80 644 29.5 c 128,-1,5
 529 -21 529 -21 378 -21 c 0,6,7
 205 -21 205 -21 116.5 69.5 c 128,-1,8
 28 160 28 160 51 312 c 0,9,10
 75 476 75 476 206.5 559 c 128,-1,11
 338 642 338 642 572 642 c 2,12,-1
 778 642 l 1,13,-1
 789 713 l 2,14,15
 803 807 803 807 764.5 857 c 128,-1,16
 726 907 726 907 639 907 c 0,17,18
 550 907 550 907 487.5 861.5 c 128,-1,19
 425 816 425 816 416 752 c 1,20,-1
 186 770 l 1,21,-1
 185 776 l 1,22,23
 201 923 201 923 334 1012.5 c 128,-1,24
 467 1102 467 1102 670 1102 c 0,25,26
 772 1102 772 1102 852.5 1069 c 128,-1,27
 933 1036 933 1036 981 973 c 1,28,29
 1053 1036 1053 1036 1143 1069 c 128,-1,30
 1233 1102 1233 1102 1335 1102 c 0,31,32
 1541 1102 1541 1102 1643 969.5 c 128,-1,33
 1745 837 1745 837 1712 612 c 2,34,-1
 1691 471 l 1,35,-1
 1009 471 l 1,36,-1
 1006 466 l 1,37,38
 990 330 990 330 1048 251.5 c 128,-1,39
 1106 173 1106 173 1247 173 c 0,40,41
 1341 173 1341 173 1410.5 197 c 128,-1,42
 1480 221 1480 221 1566 265 c 1,43,-1
 1613 100 l 1,44,45
 1550 55 1550 55 1443.5 17 c 128,-1,46
 1337 -21 1337 -21 1203 -21 c 0,0,1
453 164 m 0,47,48
 518 164 518 164 597.5 201 c 128,-1,49
 677 238 677 238 724 287 c 1,50,-1
 753 475 l 1,51,-1
 549 475 l 2,52,53
 445 475 445 475 374 425.5 c 128,-1,54
 303 376 303 376 293 308 c 0,55,56
 282 241 282 241 322 202.5 c 128,-1,57
 362 164 362 164 453 164 c 0,47,48
1306 907 m 0,58,59
 1206 907 1206 907 1136 835 c 128,-1,60
 1066 763 1066 763 1038 648 c 1,61,-1
 1040 642 l 1,62,-1
 1476 642 l 1,63,-1
 1481 672 l 2,64,65
 1497 781 1497 781 1456 844 c 128,-1,66
 1415 907 1415 907 1306 907 c 0,58,59
EndSplineSet
Validated: 33
EndChar

StartChar: eth
Encoding: 240 240 178
Width: 1210
GlyphClass: 1
Flags: W
LayerCount: 2
Fore
SplineSet
1011 1292 m 1,0,1
 1093 1188 1093 1188 1125.5 1049.5 c 128,-1,2
 1158 911 1158 911 1134 748 c 2,3,-1
 1103 541 l 2,4,5
 1064 284 1064 284 893 131.5 c 128,-1,6
 722 -21 722 -21 494 -21 c 0,7,8
 275 -21 275 -21 147 121 c 128,-1,9
 19 263 19 263 50 468 c 0,10,11
 85 703 85 703 241 838 c 128,-1,12
 397 973 397 973 621 973 c 0,13,14
 704 973 704 973 776 940 c 128,-1,15
 848 907 848 907 894 852 c 1,16,-1
 899 856 l 1,17,18
 902 957 902 957 873 1037 c 128,-1,19
 844 1117 844 1117 789 1176 c 1,20,-1
 495 1024 l 1,21,-1
 433 1133 l 1,22,-1
 673 1257 l 1,23,-1
 672 1263 l 1,24,25
 643 1279 643 1279 606.5 1294 c 128,-1,26
 570 1309 570 1309 531 1321 c 1,27,-1
 636 1517 l 1,28,29
 717 1498 717 1498 788 1464.5 c 128,-1,30
 859 1431 859 1431 918 1385 c 1,31,-1
 1142 1501 l 1,32,-1
 1204 1392 l 1,33,-1
 1011 1292 l 1,0,1
527 173 m 0,34,35
 647 173 647 173 741.5 278 c 128,-1,36
 836 383 836 383 860 541 c 2,37,-1
 880 675 l 1,38,39
 853 723 853 723 785 754 c 128,-1,40
 717 785 717 785 614 785 c 0,41,42
 494 785 494 785 403.5 694 c 128,-1,43
 313 603 313 603 293 468 c 0,44,45
 274 343 274 343 336 258 c 128,-1,46
 398 173 398 173 527 173 c 0,34,35
EndSplineSet
Validated: 33
Substitution2: "'smcp' Lowercase to Small Capitals lookup 0 subtable" Eth.smcp
EndChar

StartChar: divide
Encoding: 247 247 185
Width: 1169
GlyphClass: 1
Flags: W
LayerCount: 2
Fore
SplineSet
1086 582 m 1,0,-1
 74 582 l 1,1,-1
 106 794 l 1,2,-1
 1118 794 l 1,3,-1
 1086 582 l 1,0,-1
764 985 m 1,4,-1
 521 985 l 1,5,-1
 554 1206 l 1,6,-1
 797 1206 l 1,7,-1
 764 985 l 1,4,-1
642 170 m 1,8,-1
 399 170 l 1,9,-1
 432 391 l 1,10,-1
 675 391 l 1,11,-1
 642 170 l 1,8,-1
EndSplineSet
Validated: 1
EndChar

StartChar: oslash
Encoding: 248 248 186
Width: 1161
GlyphClass: 1
Flags: W
LayerCount: 2
Fore
SplineSet
86 551 m 2,0,1
 123 802 123 802 276.5 952 c 128,-1,2
 430 1102 430 1102 663 1102 c 0,3,4
 715 1102 715 1102 763 1092 c 128,-1,5
 811 1082 811 1082 854 1064 c 1,6,-1
 949 1212 l 1,7,-1
 1093 1212 l 1,8,-1
 955 997 l 1,9,10
 1034 923 1034 923 1066.5 806.5 c 128,-1,11
 1099 690 1099 690 1079 551 c 2,12,-1
 1076 530 l 2,13,14
 1037 277 1037 277 884 128 c 128,-1,15
 731 -21 731 -21 497 -21 c 0,16,17
 449 -21 449 -21 405 -13 c 128,-1,18
 361 -5 361 -5 322 10 c 1,19,-1
 227 -138 l 1,20,-1
 83 -138 l 1,21,-1
 218 73 l 1,22,23
 131 146 131 146 95.5 265 c 128,-1,24
 60 384 60 384 83 530 c 2,25,-1
 86 551 l 2,0,1
326 530 m 2,26,27
 313 450 313 450 318 385.5 c 128,-1,28
 323 321 323 321 346 282 c 1,29,-1
 352 281 l 1,30,-1
 739 884 l 1,31,32
 717 895 717 895 690.5 901 c 128,-1,33
 664 907 664 907 634 907 c 0,34,35
 512 907 512 907 431.5 805 c 128,-1,36
 351 703 351 703 329 551 c 2,37,-1
 326 530 l 2,26,27
837 551 m 2,38,39
 847 621 847 621 843.5 680.5 c 128,-1,40
 840 740 840 740 823 779 c 1,41,-1
 817 781 l 1,42,-1
 437 189 l 1,43,44
 456 181 456 181 478 177 c 128,-1,45
 500 173 500 173 526 173 c 0,46,47
 648 173 648 173 729 274 c 128,-1,48
 810 375 810 375 834 530 c 2,49,-1
 837 551 l 2,38,39
EndSplineSet
Validated: 33
EndChar

StartChar: thorn
Encoding: 254 254 192
Width: 1175
GlyphClass: 1
Flags: W
LayerCount: 2
Fore
SplineSet
1082 505 m 2,0,1
 1044 260 1044 260 913.5 119.5 c 128,-1,2
 783 -21 783 -21 583 -21 c 0,3,4
 493 -21 493 -21 426.5 14 c 128,-1,5
 360 49 360 49 318 116 c 1,6,-1
 301 0 l 1,7,-1
 239 -416 l 1,8,-1
 -4 -416 l 1,9,-1
 58 0 l 1,10,-1
 124 440 l 1,11,-1
 220 1082 l 1,12,-1
 292 1560 l 1,13,-1
 535 1560 l 1,14,-1
 446 966 l 1,15,16
 506 1032 506 1032 581.5 1067 c 128,-1,17
 657 1102 657 1102 748 1102 c 0,18,19
 940 1102 940 1102 1031 941.5 c 128,-1,20
 1122 781 1122 781 1085 526 c 2,21,-1
 1082 505 l 2,0,1
843 526 m 2,22,23
 868 698 868 698 821.5 800.5 c 128,-1,24
 775 903 775 903 650 903 c 0,25,26
 577 903 577 903 518.5 869.5 c 128,-1,27
 460 836 460 836 417 777 c 1,28,-1
 375 495 l 1,29,-1
 344 291 l 1,30,31
 368 234 368 234 417 203.5 c 128,-1,32
 466 173 466 173 543 173 c 0,33,34
 662 173 662 173 739.5 266 c 128,-1,35
 817 359 817 359 840 505 c 2,36,-1
 843 526 l 2,22,23
EndSplineSet
Validated: 33
EndChar

StartChar: Dcroat
Encoding: 272 272 210
Width: 1372
GlyphClass: 1
Flags: W
LayerCount: 2
Fore
SplineSet
73 0 m 1,0,-1
 171 657 l 1,1,-1
 18 657 l 1,2,-1
 43 827 l 1,3,-1
 197 827 l 1,4,-1
 291 1456 l 1,5,-1
 772 1456 l 2,6,7
 1038 1456 1038 1456 1191 1281.5 c 128,-1,8
 1344 1107 1344 1107 1304 838 c 2,9,-1
 1271 617 l 2,10,11
 1228 334 1228 334 1031.5 167 c 128,-1,12
 835 0 835 0 554 0 c 2,13,-1
 73 0 l 1,0,-1
673 657 m 1,14,-1
 414 657 l 1,15,-1
 345 194 l 1,16,-1
 583 194 l 2,17,18
 751 194 751 194 875 314 c 128,-1,19
 999 434 999 434 1028 617 c 2,20,-1
 1061 840 l 2,21,22
 1089 1031 1089 1031 1004.5 1146 c 128,-1,23
 920 1261 920 1261 743 1261 c 2,24,-1
 505 1261 l 1,25,-1
 440 827 l 1,26,-1
 698 827 l 1,27,-1
 673 657 l 1,14,-1
EndSplineSet
Validated: 33
Substitution2: "'smcp' Lowercase to Small Capitals lookup 0 subtable" Dcroat.smcp
EndChar

StartChar: dcroat
Encoding: 273 273 211
Width: 1160
GlyphClass: 1
Flags: W
LayerCount: 2
Fore
SplineSet
1303 1225 m 1,0,-1
 1130 1225 l 1,1,-1
 947 0 l 1,2,-1
 750 0 l 1,3,-1
 742 137 l 1,4,5
 678 60 678 60 598 19.5 c 128,-1,6
 518 -21 518 -21 421 -21 c 0,7,8
 230 -21 230 -21 137 125.5 c 128,-1,9
 44 272 44 272 79 505 c 2,10,-1
 82 526 l 2,11,12
 122 794 122 794 255 948 c 128,-1,13
 388 1102 388 1102 591 1102 c 0,14,15
 677 1102 677 1102 741 1064.5 c 128,-1,16
 805 1027 805 1027 847 958 c 1,17,-1
 887 1225 l 1,18,-1
 648 1225 l 1,19,-1
 673 1395 l 1,20,-1
 913 1395 l 1,21,-1
 938 1560 l 1,22,-1
 1181 1560 l 1,23,-1
 1156 1395 l 1,24,-1
 1328 1395 l 1,25,-1
 1303 1225 l 1,0,-1
322 505 m 2,26,27
 298 350 298 350 342.5 263.5 c 128,-1,28
 387 177 387 177 513 177 c 0,29,30
 587 177 587 177 646 210.5 c 128,-1,31
 705 244 705 244 749 306 c 1,32,-1
 820 776 l 1,33,34
 795 836 795 836 746 869.5 c 128,-1,35
 697 903 697 903 623 903 c 0,36,37
 504 903 504 903 426.5 797 c 128,-1,38
 349 691 349 691 325 526 c 2,39,-1
 322 505 l 2,26,27
EndSplineSet
Validated: 33
Substitution2: "'smcp' Lowercase to Small Capitals lookup 0 subtable" Dcroat.smcp
EndChar

StartChar: Hbar
Encoding: 294 294 232
Width: 1442
GlyphClass: 1
Flags: W
LayerCount: 2
Fore
SplineSet
1396 1188 m 1,0,-1
 1528 1188 l 1,1,-1
 1504 1026 l 1,2,-1
 1371 1026 l 1,3,-1
 1218 0 l 1,4,-1
 975 0 l 1,5,-1
 1068 621 l 1,6,-1
 417 621 l 1,7,-1
 324 0 l 1,8,-1
 81 0 l 1,9,-1
 234 1026 l 1,10,-1
 98 1026 l 1,11,-1
 122 1188 l 1,12,-1
 259 1188 l 1,13,-1
 299 1456 l 1,14,-1
 542 1456 l 1,15,-1
 502 1188 l 1,16,-1
 1153 1188 l 1,17,-1
 1193 1456 l 1,18,-1
 1436 1456 l 1,19,-1
 1396 1188 l 1,0,-1
446 816 m 1,20,-1
 1097 816 l 1,21,-1
 1128 1026 l 1,22,-1
 477 1026 l 1,23,-1
 446 816 l 1,20,-1
EndSplineSet
Validated: 1
EndChar

StartChar: hbar
Encoding: 295 295 233
Width: 1160
GlyphClass: 1
Flags: W
LayerCount: 2
Fore
SplineSet
735 1223 m 1,0,-1
 471 1223 l 1,1,-1
 430 948 l 1,2,3
 495 1022 495 1022 578 1062 c 128,-1,4
 661 1102 661 1102 756 1102 c 0,5,6
 922 1102 922 1102 1005 992.5 c 128,-1,7
 1088 883 1088 883 1055 659 c 2,8,-1
 956 0 l 1,9,-1
 713 0 l 1,10,-1
 812 661 l 2,11,12
 832 793 832 793 791.5 848 c 128,-1,13
 751 903 751 903 651 903 c 0,14,15
 575 903 575 903 513 874 c 128,-1,16
 451 845 451 845 407 794 c 1,17,-1
 288 0 l 1,18,-1
 45 0 l 1,19,-1
 228 1223 l 1,20,-1
 80 1223 l 1,21,-1
 106 1393 l 1,22,-1
 254 1393 l 1,23,-1
 279 1560 l 1,24,-1
 522 1560 l 1,25,-1
 497 1393 l 1,26,-1
 761 1393 l 1,27,-1
 735 1223 l 1,0,-1
EndSplineSet
Validated: 33
EndChar

StartChar: dotlessi
Encoding: 305 305 243
Width: 538
GlyphClass: 1
Flags: W
LayerCount: 2
Fore
SplineSet
306 0 m 1,0,-1
 63 0 l 1,1,-1
 225 1082 l 1,2,-1
 468 1082 l 1,3,-1
 306 0 l 1,0,-1
EndSplineSet
Validated: 1
EndChar

StartChar: kgreenlandic
Encoding: 312 312 250
Width: 1176
GlyphClass: 1
Flags: W
LayerCount: 2
Fore
SplineSet
479 428 m 1,0,-1
 368 428 l 1,1,-1
 304 0 l 1,2,-1
 62 0 l 1,3,-1
 224 1082 l 1,4,-1
 466 1082 l 1,5,-1
 401 650 l 1,6,-1
 487 650 l 1,7,-1
 887 1082 l 1,8,-1
 1179 1082 l 1,9,-1
 1182 1076 l 1,10,-1
 689 565 l 1,11,-1
 1051 0 l 1,12,-1
 742 0 l 1,13,-1
 479 428 l 1,0,-1
EndSplineSet
Validated: 1
EndChar

StartChar: Lslash
Encoding: 321 321 259
Width: 1060
GlyphClass: 1
Flags: W
LayerCount: 2
Fore
SplineSet
438 865 m 1,0,-1
 706 943 l 1,1,-1
 679 759 l 1,2,-1
 411 681 l 1,3,-1
 338 194 l 1,4,-1
 1020 194 l 1,5,-1
 991 0 l 1,6,-1
 66 0 l 1,7,-1
 157 608 l 1,8,-1
 33 572 l 1,9,-1
 60 756 l 1,10,-1
 184 792 l 1,11,-1
 284 1456 l 1,12,-1
 527 1456 l 1,13,-1
 438 865 l 1,0,-1
EndSplineSet
Validated: 1
EndChar

StartChar: lslash
Encoding: 322 322 260
Width: 575
GlyphClass: 1
Flags: W
LayerCount: 2
Fore
SplineSet
460 891 m 1,0,-1
 613 943 l 1,1,-1
 586 759 l 1,2,-1
 433 707 l 1,3,-1
 327 0 l 1,4,-1
 84 0 l 1,5,-1
 177 620 l 1,6,-1
 33 572 l 1,7,-1
 60 756 l 1,8,-1
 204 805 l 1,9,-1
 318 1560 l 1,10,-1
 561 1560 l 1,11,-1
 460 891 l 1,0,-1
EndSplineSet
Validated: 1
EndChar

StartChar: Eng
Encoding: 330 330 268
Width: 1426
GlyphClass: 1
Flags: W
LayerCount: 2
Fore
SplineSet
1422 1456 m 1,0,-1
 1195 -63 l 2,1,2
 1167 -249 1167 -249 1060 -343 c 128,-1,3
 953 -437 953 -437 785 -437 c 0,4,5
 750 -437 750 -437 721 -433 c 128,-1,6
 692 -429 692 -429 661 -420 c 1,7,-1
 704 -229 l 1,8,9
 720 -234 720 -234 750 -238 c 128,-1,10
 780 -242 780 -242 801 -242 c 0,11,12
 857 -242 857 -242 898 -194 c 128,-1,13
 939 -146 939 -146 952 -63 c 2,14,-1
 961 0 l 1,15,-1
 472 1049 l 1,16,-1
 466 1048 l 1,17,-1
 310 0 l 1,18,-1
 67 0 l 1,19,-1
 285 1456 l 1,20,-1
 528 1456 l 1,21,-1
 1017 407 l 1,22,-1
 1023 408 l 1,23,-1
 1179 1456 l 1,24,-1
 1422 1456 l 1,0,-1
EndSplineSet
Validated: 1
EndChar

StartChar: eng
Encoding: 331 331 269
Width: 1160
GlyphClass: 1
Flags: W
LayerCount: 2
Fore
SplineSet
422 938 m 1,0,1
 487 1017 487 1017 572.5 1059.5 c 128,-1,2
 658 1102 658 1102 757 1102 c 0,3,4
 920 1102 920 1102 1001.5 997 c 128,-1,5
 1083 892 1083 892 1051 673 c 2,6,-1
 941 -63 l 2,7,8
 913 -249 913 -249 806 -343 c 128,-1,9
 699 -437 699 -437 531 -437 c 0,10,11
 496 -437 496 -437 466.5 -433 c 128,-1,12
 437 -429 437 -429 407 -420 c 1,13,-1
 451 -222 l 1,14,15
 468 -227 468 -227 497 -230.5 c 128,-1,16
 526 -234 526 -234 548 -234 c 0,17,18
 605 -234 605 -234 645 -189.5 c 128,-1,19
 685 -145 685 -145 698 -63 c 2,20,-1
 808 671 l 2,21,22
 827 802 827 802 786 852.5 c 128,-1,23
 745 903 745 903 644 903 c 0,24,25
 572 903 572 903 512 875 c 128,-1,26
 452 847 452 847 408 796 c 1,27,-1
 289 0 l 1,28,-1
 46 0 l 1,29,-1
 208 1082 l 1,30,-1
 430 1082 l 1,31,-1
 422 938 l 1,0,1
EndSplineSet
Validated: 33
EndChar

StartChar: OE
Encoding: 338 338 276
Width: 1972
GlyphClass: 1
Flags: W
LayerCount: 2
Fore
SplineSet
1723 0 m 1,0,-1
 891 0 l 1,1,2
 799 -10 799 -10 733 -15.5 c 128,-1,3
 667 -21 667 -21 600 -21 c 0,4,5
 350 -21 350 -21 208.5 146.5 c 128,-1,6
 67 314 67 314 107 576 c 2,7,-1
 153 880 l 2,8,9
 194 1155 194 1155 377 1316 c 128,-1,10
 560 1477 560 1477 823 1477 c 0,11,12
 889 1477 889 1477 961.5 1471 c 128,-1,13
 1034 1465 1034 1465 1109 1456 c 1,14,-1
 1934 1456 l 1,15,-1
 1905 1261 l 1,16,-1
 1239 1261 l 1,17,-1
 1178 850 l 1,18,-1
 1749 850 l 1,19,-1
 1719 655 l 1,20,-1
 1149 655 l 1,21,-1
 1080 194 l 1,22,-1
 1752 194 l 1,23,-1
 1723 0 l 1,0,-1
629 174 m 0,24,25
 678 174 678 174 730.5 177.5 c 128,-1,26
 783 181 783 181 836 189 c 1,27,-1
 998 1267 l 1,28,29
 947 1274 947 1274 895.5 1278 c 128,-1,30
 844 1282 844 1282 793 1282 c 0,31,32
 639 1282 639 1282 531.5 1178.5 c 128,-1,33
 424 1075 424 1075 395 882 c 2,34,-1
 349 576 l 2,35,36
 319 372 319 372 393 273 c 128,-1,37
 467 174 467 174 629 174 c 0,24,25
EndSplineSet
Validated: 33
EndChar

StartChar: oe
Encoding: 339 339 277
Width: 1851
GlyphClass: 1
Flags: W
LayerCount: 2
Fore
SplineSet
1284 -21 m 0,0,1
 1158 -21 1158 -21 1064.5 27 c 128,-1,2
 971 75 971 75 918 163 c 1,3,4
 840 74 840 74 733 26.5 c 128,-1,5
 626 -21 626 -21 497 -21 c 0,6,7
 274 -21 274 -21 160 134.5 c 128,-1,8
 46 290 46 290 83 530 c 2,9,-1
 86 551 l 2,10,11
 123 802 123 802 276.5 952 c 128,-1,12
 430 1102 430 1102 663 1102 c 0,13,14
 784 1102 784 1102 876 1052.5 c 128,-1,15
 968 1003 968 1003 1022 914 c 1,16,17
 1099 1004 1099 1004 1203 1053 c 128,-1,18
 1307 1102 1307 1102 1426 1102 c 0,19,20
 1635 1102 1635 1102 1731 966 c 128,-1,21
 1827 830 1827 830 1794 608 c 2,22,-1
 1775 477 l 1,23,-1
 1098 477 l 1,24,25
 1085 336 1085 336 1139 254.5 c 128,-1,26
 1193 173 1193 173 1327 173 c 0,27,28
 1422 173 1422 173 1501 197.5 c 128,-1,29
 1580 222 1580 222 1647 266 c 1,30,-1
 1702 107 l 1,31,32
 1632 53 1632 53 1524.5 16 c 128,-1,33
 1417 -21 1417 -21 1284 -21 c 0,0,1
326 530 m 2,34,35
 301 366 301 366 348 269.5 c 128,-1,36
 395 173 395 173 526 173 c 0,37,38
 648 173 648 173 729 274 c 128,-1,39
 810 375 810 375 834 530 c 2,40,-1
 837 551 l 2,41,42
 861 712 861 712 812.5 809.5 c 128,-1,43
 764 907 764 907 634 907 c 0,44,45
 512 907 512 907 431.5 805 c 128,-1,46
 351 703 351 703 329 551 c 2,47,-1
 326 530 l 2,34,35
1397 907 m 0,48,49
 1307 907 1307 907 1238 838 c 128,-1,50
 1169 769 1169 769 1138 661 c 1,51,-1
 1140 655 l 1,52,-1
 1561 655 l 1,53,-1
 1564 674 l 2,54,55
 1580 782 1580 782 1541 844.5 c 128,-1,56
 1502 907 1502 907 1397 907 c 0,48,49
EndSplineSet
Validated: 33
EndChar

StartChar: Tbar
Encoding: 358 358 296
Width: 1202
GlyphClass: 1
Flags: W
LayerCount: 2
Fore
SplineSet
966 786 m 1,0,-1
 757 786 l 1,1,-1
 640 0 l 1,2,-1
 397 0 l 1,3,-1
 514 786 l 1,4,-1
 311 786 l 1,5,-1
 336 956 l 1,6,-1
 540 956 l 1,7,-1
 585 1261 l 1,8,-1
 143 1261 l 1,9,-1
 172 1456 l 1,10,-1
 1308 1456 l 1,11,-1
 1279 1261 l 1,12,-1
 828 1261 l 1,13,-1
 783 956 l 1,14,-1
 991 956 l 1,15,-1
 966 786 l 1,0,-1
EndSplineSet
Validated: 1
Substitution2: "'smcp' Lowercase to Small Capitals lookup 0 subtable" Tbar.smcp
EndChar

StartChar: tbar
Encoding: 359 359 297
Width: 701
GlyphClass: 1
Flags: W
LayerCount: 2
Fore
SplineSet
561 1345 m 1,0,-1
 521 1082 l 1,1,-1
 715 1082 l 1,2,-1
 688 902 l 1,3,-1
 494 902 l 1,4,-1
 470 737 l 1,5,-1
 683 737 l 1,6,-1
 657 567 l 1,7,-1
 444 567 l 1,8,-1
 405 304 l 2,9,10
 393 234 393 234 418 207 c 128,-1,11
 443 180 443 180 492 180 c 0,12,13
 511 180 511 180 531 183.5 c 128,-1,14
 551 187 551 187 569 193 c 1,15,-1
 568 15 l 1,16,17
 535 -2 535 -2 491 -11.5 c 128,-1,18
 447 -21 447 -21 401 -21 c 0,19,20
 271 -21 271 -21 204.5 58.5 c 128,-1,21
 138 138 138 138 163 304 c 2,22,-1
 202 567 l 1,23,-1
 2 567 l 1,24,-1
 28 737 l 1,25,-1
 228 737 l 1,26,-1
 252 902 l 1,27,-1
 87 902 l 1,28,-1
 114 1082 l 1,29,-1
 279 1082 l 1,30,-1
 319 1345 l 1,31,-1
 561 1345 l 1,0,-1
EndSplineSet
Validated: 33
Substitution2: "'smcp' Lowercase to Small Capitals lookup 0 subtable" Tbar.smcp
EndChar

StartChar: longs
Encoding: 383 383 321
Width: 524
GlyphClass: 1
Flags: W
LayerCount: 2
Fore
SplineSet
59 0 m 1,0,-1
 240 1208 l 2,1,2
 267 1394 267 1394 377.5 1487.5 c 128,-1,3
 488 1581 488 1581 666 1581 c 0,4,5
 700 1581 700 1581 737 1575 c 128,-1,6
 774 1569 774 1569 815 1560 c 1,7,-1
 762 1375 l 1,8,9
 740 1380 740 1380 719.5 1383 c 128,-1,10
 699 1386 699 1386 672 1386 c 0,11,12
 595 1386 595 1386 544.5 1338.5 c 128,-1,13
 494 1291 494 1291 482 1208 c 2,14,-1
 301 0 l 1,15,-1
 59 0 l 1,0,-1
EndSplineSet
Validated: 1
EndChar

StartChar: florin
Encoding: 402 402 322
Width: 720
GlyphClass: 1
Flags: W
LayerCount: 2
Fore
SplineSet
695 902 m 1,0,-1
 494 902 l 1,1,-1
 359 -63 l 2,2,3
 333 -249 333 -249 228 -343 c 128,-1,4
 123 -437 123 -437 -45 -437 c 0,5,6
 -79 -437 -79 -437 -109 -433 c 128,-1,7
 -139 -429 -139 -429 -169 -420 c 1,8,-1
 -127 -229 l 1,9,10
 -111 -234 -111 -234 -82 -238 c 128,-1,11
 -53 -242 -53 -242 -32 -242 c 0,12,13
 24 -242 24 -242 64 -194 c 128,-1,14
 104 -146 104 -146 116 -63 c 2,15,-1
 251 902 l 1,16,-1
 86 902 l 1,17,-1
 111 1082 l 1,18,-1
 276 1082 l 1,19,-1
 294 1208 l 2,20,21
 320 1394 320 1394 429.5 1487.5 c 128,-1,22
 539 1581 539 1581 717 1581 c 0,23,24
 750 1581 750 1581 787 1575 c 128,-1,25
 824 1569 824 1569 866 1560 c 1,26,-1
 815 1372 l 1,27,28
 796 1376 796 1376 771.5 1379 c 128,-1,29
 747 1382 747 1382 719 1382 c 0,30,31
 643 1382 643 1382 595.5 1336.5 c 128,-1,32
 548 1291 548 1291 537 1208 c 2,33,-1
 519 1082 l 1,34,-1
 720 1082 l 1,35,-1
 695 902 l 1,0,-1
EndSplineSet
Validated: 1
EndChar

StartChar: Ohorn
Encoding: 416 416 323
Width: 1417
GlyphClass: 1
Flags: W
LayerCount: 2
Fore
SplineSet
1302 597 m 2,0,1
 1259 319 1259 319 1068 149 c 128,-1,2
 877 -21 877 -21 606 -21 c 0,3,4
 355 -21 355 -21 212.5 156 c 128,-1,5
 70 333 70 333 110 597 c 2,6,-1
 149 859 l 2,7,8
 190 1135 190 1135 378 1306 c 128,-1,9
 566 1477 566 1477 831 1477 c 0,10,11
 952 1477 952 1477 1052.5 1433.5 c 128,-1,12
 1153 1390 1153 1390 1223 1311 c 1,13,14
 1337 1331 1337 1331 1410.5 1415 c 128,-1,15
 1484 1499 1484 1499 1505 1635 c 1,16,-1
 1706 1635 l 1,17,-1
 1709 1630 l 1,18,19
 1682 1434 1682 1434 1581.5 1311.5 c 128,-1,20
 1481 1189 1481 1189 1319 1146 c 1,21,22
 1340 1081 1340 1081 1346 1008.5 c 128,-1,23
 1352 936 1352 936 1341 859 c 2,24,-1
 1302 597 l 2,0,1
1098 861 m 2,25,26
 1126 1050 1126 1050 1047.5 1163.5 c 128,-1,27
 969 1277 969 1277 801 1277 c 0,28,29
 646 1277 646 1277 532.5 1159 c 128,-1,30
 419 1041 419 1041 392 861 c 2,31,-1
 353 597 l 2,32,33
 324 406 324 406 399 292 c 128,-1,34
 474 178 474 178 636 178 c 0,35,36
 797 178 797 178 914 296.5 c 128,-1,37
 1031 415 1031 415 1059 597 c 2,38,-1
 1098 861 l 2,25,26
EndSplineSet
Validated: 33
EndChar

StartChar: ohorn
Encoding: 417 417 324
Width: 1183
GlyphClass: 1
Flags: W
LayerCount: 2
Fore
SplineSet
86 551 m 2,0,1
 123 802 123 802 276.5 952 c 128,-1,2
 430 1102 430 1102 663 1102 c 0,3,4
 767 1102 767 1102 849 1065 c 128,-1,5
 931 1028 931 1028 988 962 c 1,6,7
 1060 990 1060 990 1106 1058.5 c 128,-1,8
 1152 1127 1152 1127 1168 1227 c 1,9,-1
 1363 1227 l 1,10,11
 1339 1074 1339 1074 1262 976.5 c 128,-1,12
 1185 879 1185 879 1057 840 c 1,13,14
 1079 777 1079 777 1084.5 703.5 c 128,-1,15
 1090 630 1090 630 1079 551 c 2,16,-1
 1076 530 l 2,17,18
 1037 277 1037 277 884 128 c 128,-1,19
 731 -21 731 -21 497 -21 c 0,20,21
 274 -21 274 -21 160 134.5 c 128,-1,22
 46 290 46 290 83 530 c 2,23,-1
 86 551 l 2,0,1
326 530 m 2,24,25
 301 366 301 366 348 269.5 c 128,-1,26
 395 173 395 173 526 173 c 0,27,28
 648 173 648 173 729 274 c 128,-1,29
 810 375 810 375 834 530 c 2,30,-1
 837 551 l 2,31,32
 861 712 861 712 812.5 809.5 c 128,-1,33
 764 907 764 907 634 907 c 0,34,35
 512 907 512 907 431.5 805 c 128,-1,36
 351 703 351 703 329 551 c 2,37,-1
 326 530 l 2,24,25
EndSplineSet
Validated: 33
EndChar

StartChar: Uhorn
Encoding: 431 431 325
Width: 1445
GlyphClass: 1
Flags: W
LayerCount: 2
Fore
SplineSet
1403 1456 m 1,0,-1
 1376 1279 l 1,1,-1
 1382 1277 l 1,2,3
 1467 1302 1467 1302 1521.5 1385.5 c 128,-1,4
 1576 1469 1576 1469 1596 1598 c 1,5,-1
 1797 1598 l 1,6,-1
 1799 1593 l 1,7,8
 1769 1374 1769 1374 1656 1250 c 128,-1,9
 1543 1126 1543 1126 1349 1096 c 1,10,-1
 1260 497 l 2,11,12
 1221 244 1221 244 1044 111.5 c 128,-1,13
 867 -21 867 -21 611 -21 c 0,14,15
 372 -21 372 -21 232 117.5 c 128,-1,16
 92 256 92 256 129 497 c 2,17,-1
 272 1456 l 1,18,-1
 515 1456 l 1,19,-1
 372 497 l 2,20,21
 347 336 347 336 421 254.5 c 128,-1,22
 495 173 495 173 640 173 c 0,23,24
 782 173 782 173 887.5 258 c 128,-1,25
 993 343 993 343 1017 497 c 2,26,-1
 1160 1456 l 1,27,-1
 1403 1456 l 1,0,-1
EndSplineSet
Validated: 33
EndChar

StartChar: uhorn
Encoding: 432 432 326
Width: 1187
GlyphClass: 1
Flags: W
LayerCount: 2
Fore
SplineSet
1489 1210 m 1,0,-1
 1491 1204 l 1,1,2
 1466 1019 1466 1019 1366 924 c 128,-1,3
 1266 829 1266 829 1076 813 c 1,4,-1
 954 0 l 1,5,-1
 745 0 l 1,6,-1
 747 155 l 1,7,8
 684 69 684 69 599 24 c 128,-1,9
 514 -21 514 -21 410 -21 c 0,10,11
 242 -21 242 -21 158 94.5 c 128,-1,12
 74 210 74 210 110 449 c 2,13,-1
 205 1082 l 1,14,-1
 447 1082 l 1,15,-1
 352 447 l 2,16,17
 328 286 328 286 364 231.5 c 128,-1,18
 400 177 400 177 497 177 c 0,19,20
 582 177 582 177 647 210 c 128,-1,21
 712 243 712 243 756 305 c 1,22,-1
 873 1082 l 1,23,-1
 1116 1082 l 1,24,-1
 1099 964 l 1,25,-1
 1104 962 l 1,26,27
 1194 972 1194 972 1243.5 1033.5 c 128,-1,28
 1293 1095 1293 1095 1311 1210 c 1,29,-1
 1489 1210 l 1,0,-1
EndSplineSet
Validated: 33
EndChar

StartChar: uni0237
Encoding: 567 567 336
Width: 550
GlyphClass: 1
Flags: W
LayerCount: 2
Fore
SplineSet
485 1082 m 1,0,-1
 314 -63 l 2,1,2
 286 -249 286 -249 179.5 -343 c 128,-1,3
 73 -437 73 -437 -95 -437 c 0,4,5
 -129 -437 -129 -437 -158 -433 c 128,-1,6
 -187 -429 -187 -429 -218 -420 c 1,7,-1
 -174 -229 l 1,8,9
 -158 -234 -158 -234 -129 -238 c 128,-1,10
 -100 -242 -100 -242 -79 -242 c 0,11,12
 -22 -242 -22 -242 18.5 -194 c 128,-1,13
 59 -146 59 -146 72 -63 c 2,14,-1
 243 1082 l 1,15,-1
 485 1082 l 1,0,-1
EndSplineSet
Validated: 1
EndChar

StartChar: circumflex
Encoding: 710 710 338
Width: 998
GlyphClass: 1
Flags: W
LayerCount: 2
Fore
SplineSet
939 1276 m 1,0,-1
 936 1252 l 1,1,-1
 741 1252 l 1,2,-1
 619 1391 l 1,3,-1
 456 1252 l 1,4,-1
 263 1252 l 1,5,-1
 267 1278 l 1,6,-1
 567 1518 l 1,7,-1
 710 1518 l 1,8,-1
 939 1276 l 1,0,-1
EndSplineSet
Validated: 1
EndChar

StartChar: caron
Encoding: 711 711 339
Width: 944
GlyphClass: 1
Flags: W
LayerCount: 2
Fore
SplineSet
594 1385 m 1,0,-1
 746 1521 l 1,1,-1
 961 1521 l 1,2,-1
 959 1504 l 1,3,-1
 653 1252 l 1,4,-1
 496 1252 l 1,5,-1
 266 1502 l 1,6,-1
 269 1521 l 1,7,-1
 482 1521 l 1,8,-1
 594 1385 l 1,0,-1
EndSplineSet
Validated: 1
EndChar

StartChar: breve
Encoding: 728 728 340
Width: 892
GlyphClass: 1
Flags: W
LayerCount: 2
Fore
SplineSet
883 1456 m 1,0,-1
 885 1450 l 1,1,2
 871 1323 871 1323 774.5 1248 c 128,-1,3
 678 1173 678 1173 529 1173 c 0,4,5
 386 1173 386 1173 307.5 1251 c 128,-1,6
 229 1329 229 1329 252 1450 c 1,7,-1
 254 1456 l 1,8,-1
 435 1456 l 1,9,10
 426 1396 426 1396 453.5 1360 c 128,-1,11
 481 1324 481 1324 550 1324 c 0,12,13
 614 1324 614 1324 653.5 1361.5 c 128,-1,14
 693 1399 693 1399 702 1456 c 1,15,-1
 883 1456 l 1,0,-1
EndSplineSet
Validated: 33
EndChar

StartChar: dotaccent
Encoding: 729 729 341
Width: 591
GlyphClass: 1
Flags: W
LayerCount: 2
Fore
SplineSet
526 1239 m 1,0,-1
 256 1239 l 1,1,-1
 289 1462 l 1,2,-1
 559 1462 l 1,3,-1
 526 1239 l 1,0,-1
EndSplineSet
Validated: 1
EndChar

StartChar: ring
Encoding: 730 730 342
Width: 690
GlyphClass: 1
Flags: W
LayerCount: 2
Fore
SplineSet
276 1305 m 0,0,1
 286 1381 286 1381 346.5 1429 c 128,-1,2
 407 1477 407 1477 484 1477 c 0,3,4
 555 1477 555 1477 601 1427 c 128,-1,5
 647 1377 647 1377 636 1305 c 0,6,7
 624 1228 624 1228 566.5 1183 c 128,-1,8
 509 1138 509 1138 433 1138 c 0,9,10
 359 1138 359 1138 312 1185.5 c 128,-1,11
 265 1233 265 1233 276 1305 c 0,0,1
384 1305 m 0,12,13
 378 1273 378 1273 396.5 1253 c 128,-1,14
 415 1233 415 1233 447 1233 c 0,15,16
 475 1233 475 1233 499 1253.5 c 128,-1,17
 523 1274 523 1274 528 1305 c 0,18,19
 533 1338 533 1338 516 1359.5 c 128,-1,20
 499 1381 499 1381 469 1381 c 256,21,22
 439 1381 439 1381 413.5 1359 c 128,-1,23
 388 1337 388 1337 384 1305 c 0,12,13
EndSplineSet
Validated: 33
EndChar

StartChar: ogonek
Encoding: 731 731 343
Width: 589
GlyphClass: 1
Flags: W
LayerCount: 2
Fore
SplineSet
316 0 m 1,0,1
 247 -51 247 -51 207.5 -93.5 c 128,-1,2
 168 -136 168 -136 161 -187 c 0,3,4
 155 -223 155 -223 171.5 -245 c 128,-1,5
 188 -267 188 -267 240 -267 c 0,6,7
 266 -267 266 -267 288.5 -260.5 c 128,-1,8
 311 -254 311 -254 339 -244 c 1,9,-1
 353 -386 l 1,10,11
 314 -405 314 -405 268.5 -417.5 c 128,-1,12
 223 -430 223 -430 162 -430 c 0,13,14
 64 -430 64 -430 5.5 -373 c 128,-1,15
 -53 -316 -53 -316 -38 -216 c 0,16,17
 -26 -135 -26 -135 38.5 -65.5 c 128,-1,18
 103 4 103 4 226 60 c 1,19,-1
 316 0 l 1,0,1
EndSplineSet
Validated: 33
EndChar

StartChar: tilde
Encoding: 732 732 344
Width: 984
GlyphClass: 1
Flags: W
LayerCount: 2
Fore
SplineSet
982 1488 m 1,0,1
 968 1390 968 1390 899.5 1324.5 c 128,-1,2
 831 1259 831 1259 740 1259 c 0,3,4
 673 1259 673 1259 595.5 1303.5 c 128,-1,5
 518 1348 518 1348 466 1348 c 0,6,7
 429 1348 429 1348 396 1315.5 c 128,-1,8
 363 1283 363 1283 357 1238 c 1,9,-1
 231 1273 l 1,10,11
 244 1370 244 1370 313 1438 c 128,-1,12
 382 1506 382 1506 473 1506 c 0,13,14
 526 1506 526 1506 610 1461.5 c 128,-1,15
 694 1417 694 1417 747 1417 c 0,16,17
 783 1417 783 1417 816.5 1449.5 c 128,-1,18
 850 1482 850 1482 857 1527 c 1,19,-1
 982 1488 l 1,0,1
EndSplineSet
Validated: 1
EndChar

StartChar: hungarumlaut
Encoding: 733 733 345
Width: 815
GlyphClass: 1
Flags: W
LayerCount: 2
Fore
SplineSet
812 1518 m 1,0,-1
 1065 1518 l 1,1,-1
 1067 1512 l 1,2,-1
 735 1252 l 1,3,-1
 535 1252 l 1,4,-1
 533 1258 l 1,5,-1
 812 1518 l 1,0,-1
456 1518 m 1,6,-1
 698 1518 l 1,7,-1
 700 1512 l 1,8,-1
 421 1252 l 1,9,-1
 233 1252 l 1,10,-1
 231 1257 l 1,11,-1
 456 1518 l 1,6,-1
EndSplineSet
Validated: 1
EndChar

StartChar: uni02F3
Encoding: 755 755 346
Width: 668
GlyphClass: 1
Flags: W
LayerCount: 2
Fore
SplineSet
56 -231 m 0,0,1
 67 -160 67 -160 122.5 -116 c 128,-1,2
 178 -72 178 -72 250 -72 c 0,3,4
 316 -72 316 -72 358.5 -118 c 128,-1,5
 401 -164 401 -164 391 -231 c 0,6,7
 380 -301 380 -301 327 -343.5 c 128,-1,8
 274 -386 274 -386 203 -386 c 0,9,10
 134 -386 134 -386 90 -342 c 128,-1,11
 46 -298 46 -298 56 -231 c 0,0,1
157 -231 m 0,12,13
 152 -260 152 -260 169 -279 c 128,-1,14
 186 -298 186 -298 216 -298 c 0,15,16
 242 -298 242 -298 264.5 -278 c 128,-1,17
 287 -258 287 -258 291 -231 c 0,18,19
 296 -200 296 -200 280 -180.5 c 128,-1,20
 264 -161 264 -161 237 -161 c 0,21,22
 208 -161 208 -161 184.5 -181 c 128,-1,23
 161 -201 161 -201 157 -231 c 0,12,13
EndSplineSet
Validated: 33
EndChar

StartChar: hook
Encoding: 777 777 350
Width: 0
GlyphClass: 1
Flags: W
LayerCount: 2
Fore
SplineSet
-579 1254 m 1,0,-1
 -564 1400 l 1,1,2
 -487 1404 -487 1404 -454 1418.5 c 128,-1,3
 -421 1433 -421 1433 -416 1468 c 0,4,5
 -410 1505 -410 1505 -448.5 1522.5 c 128,-1,6
 -487 1540 -487 1540 -555 1540 c 1,7,-1
 -530 1663 l 1,8,9
 -363 1663 -363 1663 -283.5 1613 c 128,-1,10
 -204 1563 -204 1563 -218 1471 c 0,11,12
 -228 1403 -228 1403 -276.5 1367 c 128,-1,13
 -325 1331 -325 1331 -391 1323 c 1,14,-1
 -401 1254 l 1,15,-1
 -579 1254 l 1,0,-1
EndSplineSet
Validated: 33
EndChar

StartChar: uni030F
Encoding: 783 783 351
Width: 0
GlyphClass: 1
Flags: W
LayerCount: 2
Fore
SplineSet
-397 1252 m 1,0,-1
 -605 1252 l 1,1,-1
 -859 1512 l 1,2,-1
 -856 1518 l 1,3,-1
 -602 1518 l 1,4,-1
 -397 1252 l 1,0,-1
-96 1252 m 1,5,-1
 -291 1252 l 1,6,-1
 -496 1518 l 1,7,-1
 -246 1518 l 1,8,-1
 -96 1252 l 1,5,-1
EndSplineSet
Validated: 1
EndChar

StartChar: dotbelow
Encoding: 803 803 352
Width: 0
GlyphClass: 1
Flags: W
LayerCount: 2
Fore
SplineSet
-596 -347 m 1,0,-1
 -866 -347 l 1,1,-1
 -833 -124 l 1,2,-1
 -563 -124 l 1,3,-1
 -596 -347 l 1,0,-1
EndSplineSet
Validated: 1
EndChar

StartChar: tonos
Encoding: 900 900 353
Width: 605
GlyphClass: 1
Flags: W
LayerCount: 2
Fore
SplineSet
418 1549 m 1,0,-1
 660 1549 l 1,1,-1
 444 1270 l 1,2,-1
 333 1270 l 1,3,-1
 418 1549 l 1,0,-1
EndSplineSet
Validated: 1
EndChar

StartChar: dieresistonos
Encoding: 901 901 354
Width: 1084
GlyphClass: 1
Flags: W
LayerCount: 2
Fore
SplineSet
1018 1252 m 1,0,-1
 793 1252 l 1,1,-1
 823 1456 l 1,2,-1
 1048 1456 l 1,3,-1
 1018 1252 l 1,0,-1
490 1252 m 1,4,-1
 265 1252 l 1,5,-1
 295 1456 l 1,6,-1
 520 1456 l 1,7,-1
 490 1252 l 1,4,-1
690 1746 m 1,8,-1
 939 1746 l 1,9,-1
 748 1473 l 1,10,-1
 602 1473 l 1,11,-1
 690 1746 l 1,8,-1
EndSplineSet
Validated: 1
EndChar

StartChar: Gamma
Encoding: 915 915 366
Width: 1130
GlyphClass: 1
Flags: W
LayerCount: 2
Fore
SplineSet
1177 1261 m 1,0,-1
 500 1261 l 1,1,-1
 311 0 l 1,2,-1
 68 0 l 1,3,-1
 286 1456 l 1,4,-1
 1206 1456 l 1,5,-1
 1177 1261 l 1,0,-1
EndSplineSet
Validated: 1
EndChar

StartChar: Delta
Encoding: 916 916 367
AltUni2: 002206.ffffffff.0 002206.ffffffff.0
Width: 1469
GlyphClass: 1
Flags: W
LayerCount: 2
Fore
SplineSet
765 1456 m 1,0,-1
 996 1456 l 1,1,-1
 1352 0 l 1,2,-1
 -54 0 l 1,3,-1
 765 1456 l 1,0,-1
303 194 m 1,4,-1
 1057 194 l 1,5,-1
 837 1160 l 1,6,-1
 831 1161 l 1,7,-1
 303 194 l 1,4,-1
EndSplineSet
Validated: 1
EndChar

StartChar: Theta
Encoding: 920 920 371
Width: 1403
GlyphClass: 1
Flags: W
LayerCount: 2
Fore
SplineSet
946 633 m 1,0,-1
 498 633 l 1,1,-1
 527 828 l 1,2,-1
 975 828 l 1,3,-1
 946 633 l 1,0,-1
1307 597 m 2,4,5
 1264 319 1264 319 1073 149 c 128,-1,6
 882 -21 882 -21 611 -21 c 0,7,8
 360 -21 360 -21 217.5 156 c 128,-1,9
 75 333 75 333 115 597 c 2,10,-1
 154 859 l 2,11,12
 195 1135 195 1135 383 1306 c 128,-1,13
 571 1477 571 1477 836 1477 c 0,14,15
 1092 1477 1092 1477 1238.5 1299 c 128,-1,16
 1385 1121 1385 1121 1346 859 c 2,17,-1
 1307 597 l 2,4,5
1103 861 m 2,18,19
 1131 1050 1131 1050 1052.5 1163.5 c 128,-1,20
 974 1277 974 1277 806 1277 c 0,21,22
 651 1277 651 1277 537.5 1159 c 128,-1,23
 424 1041 424 1041 397 861 c 2,24,-1
 358 597 l 2,25,26
 329 406 329 406 404 292 c 128,-1,27
 479 178 479 178 641 178 c 0,28,29
 802 178 802 178 919 296.5 c 128,-1,30
 1036 415 1036 415 1064 597 c 2,31,-1
 1103 861 l 2,18,19
EndSplineSet
Validated: 33
EndChar

StartChar: Lambda
Encoding: 923 923 374
Width: 1337
GlyphClass: 1
Flags: W
LayerCount: 2
Fore
SplineSet
759 1136 m 1,0,-1
 753 1137 l 1,1,-1
 206 0 l 1,2,-1
 -45 0 l 1,3,-1
 688 1456 l 1,4,-1
 919 1456 l 1,5,-1
 1217 0 l 1,6,-1
 965 0 l 1,7,-1
 759 1136 l 1,0,-1
EndSplineSet
Validated: 1
EndChar

StartChar: Xi
Encoding: 926 926 377
Width: 1169
GlyphClass: 1
Flags: W
LayerCount: 2
Fore
SplineSet
61 194 m 1,0,-1
 1018 194 l 1,1,-1
 989 0 l 1,2,-1
 32 0 l 1,3,-1
 61 194 l 1,0,-1
255 844 m 1,4,-1
 1014 844 l 1,5,-1
 985 653 l 1,6,-1
 226 653 l 1,7,-1
 255 844 l 1,4,-1
260 1456 m 1,8,-1
 1182 1456 l 1,9,-1
 1153 1261 l 1,10,-1
 231 1261 l 1,11,-1
 260 1456 l 1,8,-1
EndSplineSet
Validated: 1
EndChar

StartChar: Pi
Encoding: 928 928 379
Width: 1442
GlyphClass: 1
Flags: W
LayerCount: 2
Fore
SplineSet
1210 0 m 1,0,-1
 967 0 l 1,1,-1
 1156 1261 l 1,2,-1
 503 1261 l 1,3,-1
 314 0 l 1,4,-1
 71 0 l 1,5,-1
 289 1456 l 1,6,-1
 1428 1456 l 1,7,-1
 1210 0 l 1,0,-1
EndSplineSet
Validated: 1
EndChar

StartChar: Sigma
Encoding: 931 931 381
Width: 1169
GlyphClass: 1
Flags: W
LayerCount: 2
Fore
SplineSet
818 719 m 1,0,-1
 342 200 l 1,1,-1
 344 195 l 1,2,-1
 1049 195 l 1,3,-1
 1020 0 l 1,4,-1
 -9 0 l 1,5,-1
 14 152 l 1,6,-1
 562 729 l 1,7,-1
 187 1304 l 1,8,-1
 209 1456 l 1,9,-1
 1200 1456 l 1,10,-1
 1171 1261 l 1,11,-1
 497 1261 l 1,12,-1
 821 739 l 1,13,-1
 818 719 l 1,0,-1
EndSplineSet
Validated: 1
EndChar

StartChar: Phi
Encoding: 934 934 384
Width: 1471
GlyphClass: 1
Flags: W
LayerCount: 2
Fore
SplineSet
968 1244 m 1,0,1
 1197 1233 1197 1233 1332 1088.5 c 128,-1,2
 1467 944 1467 944 1435 722 c 0,3,4
 1399 490 1399 490 1226.5 351.5 c 128,-1,5
 1054 213 1054 213 812 204 c 1,6,-1
 782 0 l 1,7,-1
 539 0 l 1,8,-1
 569 203 l 1,9,10
 338 212 338 212 202 355 c 128,-1,11
 66 498 66 498 100 720 c 0,12,13
 135 954 135 954 308 1094.5 c 128,-1,14
 481 1235 481 1235 725 1244 c 1,15,-1
 757 1456 l 1,16,-1
 1000 1456 l 1,17,-1
 968 1244 l 1,0,1
339 720 m 0,18,19
 316 572 316 572 384 493.5 c 128,-1,20
 452 415 452 415 595 413 c 1,21,-1
 601 414 l 1,22,-1
 694 1032 l 1,23,-1
 688 1035 l 1,24,25
 551 1031 551 1031 455 946.5 c 128,-1,26
 359 862 359 862 339 720 c 0,18,19
1196 722 m 0,27,28
 1218 870 1218 870 1151 950.5 c 128,-1,29
 1084 1031 1084 1031 943 1035 c 1,30,-1
 937 1034 l 1,31,-1
 844 416 l 1,32,-1
 850 413 l 1,33,34
 985 416 985 416 1080 499 c 128,-1,35
 1175 582 1175 582 1196 722 c 0,27,28
EndSplineSet
Validated: 33
EndChar

StartChar: Psi
Encoding: 936 936 386
Width: 1447
GlyphClass: 1
Flags: W
LayerCount: 2
Fore
SplineSet
835 538 m 1,0,-1
 840 536 l 1,1,2
 970 554 970 554 1060 652 c 128,-1,3
 1150 750 1150 750 1175 913 c 2,4,-1
 1256 1456 l 1,5,-1
 1499 1456 l 1,6,-1
 1418 913 l 2,7,8
 1378 650 1378 650 1214 502 c 128,-1,9
 1050 354 1050 354 803 330 c 1,10,-1
 754 0 l 1,11,-1
 512 0 l 1,12,-1
 561 330 l 1,13,14
 334 355 334 355 212.5 508.5 c 128,-1,15
 91 662 91 662 129 913 c 2,16,-1
 210 1456 l 1,17,-1
 452 1456 l 1,18,-1
 371 913 l 2,19,20
 345 743 345 743 403 648 c 128,-1,21
 461 553 461 553 586 536 c 1,22,-1
 592 537 l 1,23,-1
 730 1456 l 1,24,-1
 972 1456 l 1,25,-1
 835 538 l 1,0,-1
EndSplineSet
Validated: 33
EndChar

StartChar: Omega
Encoding: 937 937 387
AltUni2: 002126.ffffffff.0 002126.ffffffff.0
Width: 1371
GlyphClass: 1
Flags: W
LayerCount: 2
Fore
SplineSet
684 196 m 1,0,-1
 685 200 l 1,1,2
 808 228 808 228 894 364.5 c 128,-1,3
 980 501 980 501 1017 745 c 2,4,-1
 1033 850 l 2,5,6
 1065 1068 1065 1068 999.5 1174 c 128,-1,7
 934 1280 934 1280 786 1280 c 0,8,9
 646 1280 646 1280 544.5 1168.5 c 128,-1,10
 443 1057 443 1057 413 850 c 2,11,-1
 397 745 l 2,12,13
 358 491 358 491 405 359.5 c 128,-1,14
 452 228 452 228 571 200 c 1,15,-1
 555 92 l 1,16,-1
 554 92 l 1,17,-1
 541 0 l 1,18,-1
 41 0 l 1,19,-1
 70 196 l 1,20,-1
 319 196 l 1,21,22
 213 288 213 288 163.5 435.5 c 128,-1,23
 114 583 114 583 140 745 c 2,24,-1
 155 848 l 2,25,26
 198 1137 198 1137 379.5 1307 c 128,-1,27
 561 1477 561 1477 816 1477 c 0,28,29
 1058 1477 1058 1477 1194 1300 c 128,-1,30
 1330 1123 1330 1123 1289 848 c 2,31,-1
 1274 745 l 2,32,33
 1248 576 1248 576 1156.5 431 c 128,-1,34
 1065 286 1065 286 935 196 c 1,35,-1
 1185 196 l 1,36,-1
 1156 0 l 1,37,-1
 655 0 l 1,38,-1
 684 196 l 1,0,-1
EndSplineSet
Validated: 33
EndChar

StartChar: alpha
Encoding: 945 945 395
Width: 1156
GlyphClass: 1
Flags: W
LayerCount: 2
Fore
SplineSet
1097 1081 m 1,0,-1
 980 303 l 2,1,2
 970 234 970 234 985 209.5 c 128,-1,3
 1000 185 1000 185 1036 185 c 0,4,5
 1050 185 1050 185 1062 186.5 c 128,-1,6
 1074 188 1074 188 1083 191 c 1,7,-1
 1081 10 l 1,8,9
 1046 -8 1046 -8 1014 -14.5 c 128,-1,10
 982 -21 982 -21 942 -21 c 0,11,12
 863 -21 863 -21 810.5 14.5 c 128,-1,13
 758 50 758 50 740 124 c 1,14,15
 677 53 677 53 599 16 c 128,-1,16
 521 -21 521 -21 425 -21 c 0,17,18
 234 -21 234 -21 140.5 125.5 c 128,-1,19
 47 272 47 272 82 505 c 2,20,-1
 85 526 l 2,21,22
 125 794 125 794 258 948 c 128,-1,23
 391 1102 391 1102 595 1102 c 0,24,25
 686 1102 686 1102 752.5 1062.5 c 128,-1,26
 819 1023 819 1023 861 949 c 1,27,-1
 932 1081 l 1,28,-1
 1097 1081 l 1,0,-1
325 505 m 2,29,30
 301 349 301 349 345 261 c 128,-1,31
 389 173 389 173 515 173 c 0,32,33
 583 173 583 173 638 203 c 128,-1,34
 693 233 693 233 735 288 c 0,35,36
 735 291 735 291 735.5 294.5 c 128,-1,37
 736 298 736 298 737 303 c 2,38,-1
 811 795 l 1,39,40
 786 848 786 848 740.5 877.5 c 128,-1,41
 695 907 695 907 627 907 c 0,42,43
 508 907 508 907 430 799 c 128,-1,44
 352 691 352 691 328 526 c 2,45,-1
 325 505 l 2,29,30
EndSplineSet
Validated: 33
EndChar

StartChar: beta
Encoding: 946 946 396
Width: 1222
GlyphClass: 1
Flags: W
LayerCount: 2
Fore
SplineSet
759 1477 m 0,0,1
 955 1477 955 1477 1064.5 1368.5 c 128,-1,2
 1174 1260 1174 1260 1148 1082 c 0,3,4
 1133 983 1133 983 1072 905 c 128,-1,5
 1011 827 1011 827 916 781 c 1,6,7
 1026 735 1026 735 1078.5 640.5 c 128,-1,8
 1131 546 1131 546 1113 421 c 0,9,10
 1080 204 1080 204 941.5 91.5 c 128,-1,11
 803 -21 803 -21 596 -21 c 0,12,13
 521 -21 521 -21 448.5 0.5 c 128,-1,14
 376 22 376 22 321 65 c 1,15,-1
 253 -393 l 1,16,-1
 11 -393 l 1,17,-1
 228 1055 l 2,18,19
 255 1241 255 1241 408.5 1359 c 128,-1,20
 562 1477 562 1477 759 1477 c 0,0,1
588 861 m 1,21,-1
 662 861 l 2,22,23
 766 861 766 861 827.5 917 c 128,-1,24
 889 973 889 973 904 1073 c 0,25,26
 917 1161 917 1161 872 1221.5 c 128,-1,27
 827 1282 827 1282 729 1282 c 0,28,29
 635 1282 635 1282 559.5 1217.5 c 128,-1,30
 484 1153 484 1153 470 1055 c 2,31,-1
 350 253 l 1,32,33
 385 214 385 214 444.5 193.5 c 128,-1,34
 504 173 504 173 583 173 c 0,35,36
 694 173 694 173 774 242.5 c 128,-1,37
 854 312 854 312 870 420 c 0,38,39
 887 532 887 532 837.5 604 c 128,-1,40
 788 676 788 676 681 676 c 2,41,-1
 560 676 l 1,42,-1
 581 816 l 1,43,-1
 588 861 l 1,21,-1
EndSplineSet
Validated: 33
EndChar

StartChar: gamma
Encoding: 947 947 397
Width: 1039
GlyphClass: 1
Flags: W
LayerCount: 2
Fore
SplineSet
844 1082 m 1,0,-1
 1095 1082 l 1,1,-1
 570 41 l 1,2,-1
 501 -417 l 1,3,-1
 259 -417 l 1,4,-1
 328 46 l 1,5,-1
 114 1082 l 1,6,-1
 365 1082 l 1,7,-1
 479 366 l 1,8,-1
 483 278 l 1,9,-1
 489 277 l 1,10,-1
 522 366 l 1,11,-1
 844 1082 l 1,0,-1
EndSplineSet
Validated: 1
EndChar

StartChar: delta
Encoding: 948 948 398
Width: 1160
GlyphClass: 1
Flags: W
LayerCount: 2
Fore
SplineSet
1095 1456 m 1,0,-1
 1066 1263 l 1,1,-1
 637 1263 l 1,2,-1
 635 1257 l 1,3,-1
 911 1031 l 2,4,5
 1007 950 1007 950 1054 827 c 128,-1,6
 1101 704 1101 704 1079 551 c 2,7,-1
 1076 530 l 2,8,9
 1037 277 1037 277 884 128 c 128,-1,10
 731 -21 731 -21 497 -21 c 0,11,12
 274 -21 274 -21 159.5 130.5 c 128,-1,13
 45 282 45 282 80 516 c 1,14,-1
 84 537 l 1,15,16
 115 752 115 752 241.5 891.5 c 128,-1,17
 368 1031 368 1031 552 1062 c 1,18,-1
 560 1063 l 1,19,-1
 562 1069 l 1,20,-1
 305 1304 l 1,21,-1
 327 1456 l 1,22,-1
 1095 1456 l 1,0,-1
634 907 m 0,23,24
 512 907 512 907 431.5 805 c 128,-1,25
 351 703 351 703 329 551 c 2,26,-1
 326 530 l 2,27,28
 301 366 301 366 348 269.5 c 128,-1,29
 395 173 395 173 526 173 c 0,30,31
 648 173 648 173 729 274 c 128,-1,32
 810 375 810 375 834 530 c 2,33,-1
 837 551 l 2,34,35
 861 712 861 712 812.5 809.5 c 128,-1,36
 764 907 764 907 634 907 c 0,23,24
EndSplineSet
Validated: 33
EndChar

StartChar: epsilon
Encoding: 949 949 399
Width: 1120
GlyphClass: 1
Flags: W
LayerCount: 2
Fore
SplineSet
62 306 m 0,0,1
 76 401 76 401 137 464 c 128,-1,2
 198 527 198 527 303 559 c 1,3,4
 223 595 223 595 182.5 655 c 128,-1,5
 142 715 142 715 153 786 c 0,6,7
 176 942 176 942 310.5 1021.5 c 128,-1,8
 445 1101 445 1101 658 1101 c 0,9,10
 839 1101 839 1101 957 1011.5 c 128,-1,11
 1075 922 1075 922 1048 781 c 1,12,-1
 1046 775 l 1,13,-1
 813 775 l 1,14,15
 822 837 822 837 768 875.5 c 128,-1,16
 714 914 714 914 623 914 c 0,17,18
 525 914 525 914 463.5 872 c 128,-1,19
 402 830 402 830 394 774 c 0,20,21
 384 709 384 709 428.5 674 c 128,-1,22
 473 639 473 639 575 639 c 2,23,-1
 774 639 l 1,24,-1
 766 588 l 1,25,-1
 748 466 l 1,26,-1
 549 466 l 2,27,28
 445 466 445 466 381 429 c 128,-1,29
 317 392 317 392 306 316 c 0,30,31
 296 251 296 251 350 208.5 c 128,-1,32
 404 166 404 166 511 166 c 0,33,34
 609 166 609 166 680.5 212 c 128,-1,35
 752 258 752 258 762 321 c 1,36,-1
 994 321 l 1,37,-1
 995 315 l 1,38,39
 975 145 975 145 828.5 62.5 c 128,-1,40
 682 -20 682 -20 490 -20 c 0,41,42
 288 -20 288 -20 163.5 68.5 c 128,-1,43
 39 157 39 157 62 306 c 0,0,1
EndSplineSet
Validated: 33
EndChar

StartChar: zeta
Encoding: 950 950 400
Width: 1054
GlyphClass: 1
Flags: W
LayerCount: 2
Fore
SplineSet
1108 1456 m 1,0,-1
 1088 1318 l 1,1,-1
 675 890 l 1,2,3
 534 751 534 751 466.5 647 c 128,-1,4
 399 543 399 543 379 407 c 0,5,6
 361 295 361 295 403.5 243.5 c 128,-1,7
 446 192 446 192 548 192 c 2,8,-1
 589 192 l 2,9,10
 738 192 738 192 818.5 123 c 128,-1,11
 899 54 899 54 879 -77 c 0,12,13
 859 -196 859 -196 761.5 -289 c 128,-1,14
 664 -382 664 -382 531 -427 c 1,15,-1
 467 -262 l 1,16,17
 537 -233 537 -233 585.5 -194.5 c 128,-1,18
 634 -156 634 -156 644 -95 c 0,19,20
 650 -48 650 -48 617.5 -24 c 128,-1,21
 585 0 585 0 503 0 c 2,22,-1
 453 0 l 2,23,24
 276 0 276 0 192.5 110 c 128,-1,25
 109 220 109 220 133 383 c 0,26,27
 154 526 154 526 244 673.5 c 128,-1,28
 334 821 334 821 503 991 c 2,29,-1
 772 1255 l 1,30,-1
 770 1261 l 1,31,-1
 206 1261 l 1,32,-1
 235 1456 l 1,33,-1
 1108 1456 l 1,0,-1
EndSplineSet
Validated: 33
EndChar

StartChar: eta
Encoding: 951 951 401
Width: 1160
GlyphClass: 1
Flags: W
LayerCount: 2
Fore
SplineSet
422 938 m 1,0,1
 487 1017 487 1017 572.5 1059.5 c 128,-1,2
 658 1102 658 1102 757 1102 c 0,3,4
 922 1102 922 1102 1003.5 1000 c 128,-1,5
 1085 898 1085 898 1051 673 c 2,6,-1
 888 -415 l 1,7,-1
 645 -415 l 1,8,-1
 808 671 l 2,9,10
 827 802 827 802 786.5 854.5 c 128,-1,11
 746 907 746 907 645 907 c 0,12,13
 573 907 573 907 513 877.5 c 128,-1,14
 453 848 453 848 409 797 c 1,15,-1
 289 0 l 1,16,-1
 46 0 l 1,17,-1
 208 1082 l 1,18,-1
 430 1082 l 1,19,-1
 422 938 l 1,0,1
EndSplineSet
Validated: 33
EndChar

StartChar: theta
Encoding: 952 952 402
Width: 1186
GlyphClass: 1
Flags: W
LayerCount: 2
Fore
SplineSet
1063 521 m 2,0,1
 1024 259 1024 259 874.5 119 c 128,-1,2
 725 -21 725 -21 506 -21 c 0,3,4
 297 -21 297 -21 183.5 125.5 c 128,-1,5
 70 272 70 272 108 521 c 2,6,-1
 170 934 l 2,7,8
 208 1194 208 1194 358.5 1335.5 c 128,-1,9
 509 1477 509 1477 729 1477 c 0,10,11
 938 1477 938 1477 1050 1329.5 c 128,-1,12
 1162 1182 1162 1182 1125 934 c 2,13,-1
 1063 521 l 2,0,1
837 634 m 1,14,-1
 368 634 l 1,15,-1
 346 486 l 2,16,17
 322 333 322 333 372 253 c 128,-1,18
 422 173 422 173 535 173 c 0,19,20
 642 173 642 173 717.5 256 c 128,-1,21
 793 339 793 339 815 486 c 2,22,-1
 837 634 l 1,14,-1
397 824 m 1,23,-1
 866 824 l 1,24,-1
 888 971 l 2,25,26
 910 1123 910 1123 861 1202.5 c 128,-1,27
 812 1282 812 1282 699 1282 c 0,28,29
 591 1282 591 1282 515.5 1198.5 c 128,-1,30
 440 1115 440 1115 419 971 c 2,31,-1
 397 824 l 1,23,-1
EndSplineSet
Validated: 33
EndChar

StartChar: iota
Encoding: 953 953 403
Width: 678
GlyphClass: 1
Flags: W
LayerCount: 2
Fore
SplineSet
494 1081 m 1,0,-1
 376 296 l 2,1,2
 366 227 366 227 386.5 202.5 c 128,-1,3
 407 178 407 178 453 178 c 0,4,5
 478 178 478 178 500.5 183.5 c 128,-1,6
 523 189 523 189 550 200 c 1,7,-1
 561 23 l 1,8,9
 511 -2 511 -2 466 -11.5 c 128,-1,10
 421 -21 421 -21 367 -21 c 0,11,12
 235 -21 235 -21 172 58.5 c 128,-1,13
 109 138 109 138 134 303 c 2,14,-1
 251 1081 l 1,15,-1
 494 1081 l 1,0,-1
EndSplineSet
Validated: 33
EndChar

StartChar: lambda
Encoding: 955 955 405
Width: 1135
GlyphClass: 1
Flags: W
LayerCount: 2
Fore
SplineSet
221 0 m 1,0,-1
 -44 0 l 1,1,-1
 496 1042 l 1,2,-1
 460 1168 l 2,3,4
 442 1236 442 1236 406 1279 c 128,-1,5
 370 1322 370 1322 314 1322 c 0,6,7
 302 1322 302 1322 281 1320 c 128,-1,8
 260 1318 260 1318 247 1317 c 1,9,-1
 271 1499 l 1,10,11
 304 1507 304 1507 336 1512.5 c 128,-1,12
 368 1518 368 1518 398 1518 c 0,13,14
 534 1518 534 1518 603.5 1436 c 128,-1,15
 673 1354 673 1354 699 1246 c 2,16,-1
 922 326 l 2,17,18
 933 266 933 266 960 228.5 c 128,-1,19
 987 191 987 191 1029 187 c 0,20,21
 1044 186 1044 186 1053 186 c 128,-1,22
 1062 186 1062 186 1078 189 c 1,23,-1
 1039 -3 l 1,24,25
 1017 -9 1017 -9 990.5 -12.5 c 128,-1,26
 964 -16 964 -16 944 -14 c 0,27,28
 824 -9 824 -9 762.5 70 c 128,-1,29
 701 149 701 149 672 285 c 2,30,-1
 567 744 l 1,31,-1
 561 744 l 1,32,-1
 523 639 l 1,33,-1
 221 0 l 1,0,-1
EndSplineSet
Validated: 1
EndChar

StartChar: xi
Encoding: 958 958 408
Width: 1068
GlyphClass: 1
Flags: W
LayerCount: 2
Fore
SplineSet
1088 1456 m 1,0,-1
 1059 1257 l 1,1,-1
 759 1257 l 1,2,3
 651 1249 651 1249 585.5 1195.5 c 128,-1,4
 520 1142 520 1142 508 1063 c 0,5,6
 495 977 495 977 551.5 931.5 c 128,-1,7
 608 886 608 886 744 886 c 2,8,-1
 890 886 l 1,9,-1
 881 826 l 1,10,-1
 860 687 l 1,11,-1
 717 687 l 2,12,13
 551 687 551 687 447.5 616 c 128,-1,14
 344 545 344 545 325 410 c 0,15,16
 308 303 308 303 369.5 240 c 128,-1,17
 431 177 431 177 557 177 c 2,18,-1
 647 177 l 2,19,20
 798 177 798 177 879 109 c 128,-1,21
 960 41 960 41 940 -91 c 0,22,23
 919 -219 919 -219 824.5 -309 c 128,-1,24
 730 -399 730 -399 591 -448 c 1,25,-1
 533 -295 l 1,26,27
 600 -266 600 -266 650.5 -226.5 c 128,-1,28
 701 -187 701 -187 711 -123 c 0,29,30
 718 -73 718 -73 689 -47 c 128,-1,31
 660 -21 660 -21 589 -21 c 2,32,-1
 520 -21 l 2,33,34
 302 -21 302 -21 177 95.5 c 128,-1,35
 52 212 52 212 82 414 c 0,36,37
 103 558 103 558 194 652 c 128,-1,38
 285 746 285 746 438 790 c 1,39,40
 343 828 343 828 296 892 c 128,-1,41
 249 956 249 956 262 1038 c 0,42,43
 273 1112 273 1112 312.5 1167 c 128,-1,44
 352 1222 352 1222 418 1257 c 1,45,-1
 211 1257 l 1,46,-1
 240 1456 l 1,47,-1
 1088 1456 l 1,0,-1
EndSplineSet
Validated: 33
EndChar

StartChar: pi
Encoding: 960 960 410
Width: 1267
GlyphClass: 1
Flags: W
LayerCount: 2
Fore
SplineSet
1221 893 m 1,0,-1
 1066 893 l 1,1,-1
 977 296 l 2,2,3
 967 227 967 227 987.5 202.5 c 128,-1,4
 1008 178 1008 178 1054 178 c 0,5,6
 1079 178 1079 178 1101.5 183.5 c 128,-1,7
 1124 189 1124 189 1151 200 c 1,8,-1
 1162 23 l 1,9,10
 1112 -2 1112 -2 1067 -11.5 c 128,-1,11
 1022 -21 1022 -21 968 -21 c 0,12,13
 836 -21 836 -21 773 58.5 c 128,-1,14
 710 138 710 138 735 303 c 2,15,-1
 823 893 l 1,16,-1
 531 893 l 1,17,-1
 398 0 l 1,18,-1
 155 0 l 1,19,-1
 288 893 l 1,20,-1
 133 893 l 1,21,-1
 161 1082 l 1,22,-1
 1249 1082 l 1,23,-1
 1221 893 l 1,0,-1
EndSplineSet
Validated: 33
EndChar

StartChar: rho
Encoding: 961 961 411
Width: 1160
GlyphClass: 1
Flags: W
LayerCount: 2
Fore
SplineSet
1069 505 m 2,0,1
 1031 259 1031 259 901.5 119 c 128,-1,2
 772 -21 772 -21 573 -21 c 0,3,4
 484 -21 484 -21 417.5 11 c 128,-1,5
 351 43 351 43 306 105 c 1,6,-1
 229 -416 l 1,7,-1
 -14 -416 l 1,8,-1
 134 575 l 2,9,10
 171 826 171 826 321.5 964 c 128,-1,11
 472 1102 472 1102 683 1102 c 0,12,13
 902 1102 902 1102 1006 942.5 c 128,-1,14
 1110 783 1110 783 1072 526 c 2,15,-1
 1069 505 l 2,0,1
829 526 m 2,16,17
 854 701 854 701 813 804 c 128,-1,18
 772 907 772 907 648 907 c 0,19,20
 543 907 543 907 469 803 c 128,-1,21
 395 699 395 699 375 563 c 2,22,-1
 334 291 l 1,23,24
 358 234 358 234 406.5 203.5 c 128,-1,25
 455 173 455 173 533 173 c 0,26,27
 652 173 652 173 727.5 265.5 c 128,-1,28
 803 358 803 358 826 505 c 2,29,-1
 829 526 l 2,16,17
EndSplineSet
Validated: 33
EndChar

StartChar: sigma1
Encoding: 962 962 412
Width: 1079
GlyphClass: 1
Flags: W
LayerCount: 2
Fore
SplineSet
653 1102 m 0,0,1
 839 1102 839 1102 945 992.5 c 128,-1,2
 1051 883 1051 883 1019 699 c 1,3,-1
 1017 694 l 1,4,-1
 796 694 l 1,5,6
 810 789 810 789 767 848 c 128,-1,7
 724 907 724 907 624 907 c 0,8,9
 504 907 504 907 426.5 803.5 c 128,-1,10
 349 700 349 700 328 558 c 2,11,-1
 322 523 l 2,12,13
 301 380 301 380 361.5 297 c 128,-1,14
 422 214 422 214 576 192 c 0,15,16
 757 163 757 163 833 104 c 128,-1,17
 909 45 909 45 890 -85 c 0,18,19
 869 -204 869 -204 771.5 -296.5 c 128,-1,20
 674 -389 674 -389 542 -434 c 1,21,-1
 478 -270 l 1,22,23
 548 -239 548 -239 596.5 -201 c 128,-1,24
 645 -163 645 -163 655 -102 c 0,25,26
 661 -57 661 -57 624 -34 c 128,-1,27
 587 -11 587 -11 500 2 c 0,28,29
 256 39 256 39 151.5 172 c 128,-1,30
 47 305 47 305 79 523 c 1,31,-1
 85 558 l 1,32,33
 121 799 121 799 272 950.5 c 128,-1,34
 423 1102 423 1102 653 1102 c 0,0,1
EndSplineSet
Validated: 33
EndChar

StartChar: sigma
Encoding: 963 963 413
Width: 1168
GlyphClass: 1
Flags: W
LayerCount: 2
Fore
SplineSet
1202 886 m 1,0,-1
 936 886 l 1,1,2
 1012 818 1012 818 1047 720 c 128,-1,3
 1082 622 1082 622 1066 510 c 1,4,-1
 1062 489 l 1,5,6
 1028 266 1028 266 875.5 122.5 c 128,-1,7
 723 -21 723 -21 497 -21 c 0,8,9
 274 -21 274 -21 159.5 134.5 c 128,-1,10
 45 290 45 290 82 530 c 2,11,-1
 85 551 l 2,12,13
 120 792 120 792 273 936.5 c 128,-1,14
 426 1081 426 1081 659 1082 c 2,15,-1
 1231 1082 l 1,16,-1
 1202 886 l 1,0,-1
325 530 m 2,17,18
 300 366 300 366 347.5 269.5 c 128,-1,19
 395 173 395 173 526 173 c 0,20,21
 644 173 644 173 723 274 c 128,-1,22
 802 375 802 375 826 530 c 2,23,-1
 829 551 l 2,24,25
 851 702 851 702 804 794 c 128,-1,26
 757 886 757 886 631 886 c 2,27,-1
 630 886 l 2,28,29
 507 885 507 885 428 789.5 c 128,-1,30
 349 694 349 694 328 551 c 2,31,-1
 325 530 l 2,17,18
EndSplineSet
Validated: 33
EndChar

StartChar: tau
Encoding: 964 964 414
Width: 1074
GlyphClass: 1
Flags: W
LayerCount: 2
Fore
SplineSet
1061 889 m 1,0,-1
 710 889 l 1,1,-1
 577 0 l 1,2,-1
 334 0 l 1,3,-1
 467 889 l 1,4,-1
 120 889 l 1,5,-1
 149 1082 l 1,6,-1
 1090 1082 l 1,7,-1
 1061 889 l 1,0,-1
EndSplineSet
Validated: 1
EndChar

StartChar: upsilon
Encoding: 965 965 415
Width: 1160
GlyphClass: 1
Flags: W
LayerCount: 2
Fore
SplineSet
452 1082 m 1,0,-1
 361 470 l 2,1,2
 336 307 336 307 385 240 c 128,-1,3
 434 173 434 173 537 173 c 0,4,5
 654 173 654 173 732 290 c 128,-1,6
 810 407 810 407 834 566 c 0,7,8
 850 691 850 691 839.5 819.5 c 128,-1,9
 829 948 829 948 798 1082 c 1,10,-1
 1039 1082 l 1,11,12
 1074 977 1074 977 1086.5 847.5 c 128,-1,13
 1099 718 1099 718 1077 566 c 0,14,15
 1036 295 1036 295 901 137 c 128,-1,16
 766 -21 766 -21 518 -21 c 0,17,18
 301 -21 301 -21 191.5 102 c 128,-1,19
 82 225 82 225 119 472 c 2,20,-1
 210 1082 l 1,21,-1
 452 1082 l 1,0,-1
EndSplineSet
Validated: 33
EndChar

StartChar: phi
Encoding: 966 966 416
Width: 1488
GlyphClass: 1
Flags: W
LayerCount: 2
Fore
SplineSet
938 1082 m 1,0,-1
 804 191 l 1,1,-1
 810 188 l 1,2,3
 967 211 967 211 1058.5 306.5 c 128,-1,4
 1150 402 1150 402 1170 531 c 0,5,6
 1190 680 1190 680 1123 783 c 128,-1,7
 1056 886 1056 886 909 886 c 1,8,-1
 937 1075 l 1,9,-1
 943 1077 l 1,10,11
 1174 1080 1174 1080 1309.5 915.5 c 128,-1,12
 1445 751 1445 751 1413 531 c 0,13,14
 1378 304 1378 304 1222.5 156.5 c 128,-1,15
 1067 9 1067 9 773 -16 c 1,16,-1
 704 -478 l 1,17,-1
 461 -478 l 1,18,-1
 530 -13 l 1,19,20
 264 19 264 19 152 184.5 c 128,-1,21
 40 350 40 350 75 580 c 0,22,23
 98 735 98 735 149 856 c 128,-1,24
 200 977 200 977 272 1082 c 1,25,-1
 510 1082 l 1,26,27
 437 950 437 950 387.5 825.5 c 128,-1,28
 338 701 338 701 318 580 c 0,29,30
 294 426 294 426 349 321 c 128,-1,31
 404 216 404 216 555 191 c 1,32,-1
 561 193 l 1,33,-1
 695 1082 l 1,34,-1
 938 1082 l 1,0,-1
EndSplineSet
Validated: 33
EndChar

StartChar: chi
Encoding: 967 967 417
Width: 1135
GlyphClass: 1
Flags: W
LayerCount: 2
Fore
SplineSet
271 1098 m 0,0,1
 408 1098 408 1098 477 1016.5 c 128,-1,2
 546 935 546 935 572 826 c 2,3,-1
 621 643 l 1,4,-1
 627 642 l 1,5,-1
 907 1082 l 1,6,-1
 1152 1082 l 1,7,-1
 697 366 l 1,8,-1
 822 -93 l 2,9,10
 839 -156 839 -156 863.5 -191.5 c 128,-1,11
 888 -227 888 -227 929 -231 c 0,12,13
 944 -232 944 -232 953 -232 c 128,-1,14
 962 -232 962 -232 978 -230 c 1,15,-1
 939 -423 l 1,16,17
 919 -429 919 -429 892.5 -432 c 128,-1,18
 866 -435 866 -435 844 -434 c 0,19,20
 732 -429 732 -429 674 -349 c 128,-1,21
 616 -269 616 -269 586 -134 c 1,22,-1
 525 84 l 1,23,-1
 519 85 l 1,24,-1
 201 -416 l 1,25,-1
 -47 -416 l 1,26,-1
 448 361 l 1,27,-1
 340 748 l 2,28,29
 322 816 322 816 283.5 859.5 c 128,-1,30
 245 903 245 903 186 903 c 0,31,32
 176 903 176 903 157.5 901 c 128,-1,33
 139 899 139 899 119 897 c 1,34,-1
 144 1079 l 1,35,36
 172 1087 172 1087 206 1092.5 c 128,-1,37
 240 1098 240 1098 271 1098 c 0,0,1
EndSplineSet
Validated: 1
EndChar

StartChar: psi
Encoding: 968 968 418
Width: 1481
GlyphClass: 1
Flags: W
LayerCount: 2
Fore
SplineSet
932 1082 m 1,0,-1
 798 194 l 1,1,-1
 804 191 l 1,2,3
 961 218 961 218 1055 326 c 128,-1,4
 1149 434 1149 434 1171 580 c 0,5,6
 1186 701 1186 701 1174 825.5 c 128,-1,7
 1162 950 1162 950 1129 1082 c 1,8,-1
 1367 1082 l 1,9,10
 1405 980 1405 980 1420 854 c 128,-1,11
 1435 728 1435 728 1413 580 c 0,12,13
 1376 332 1376 332 1219.5 171 c 128,-1,14
 1063 10 1063 10 767 -16 c 1,15,-1
 698 -478 l 1,16,-1
 455 -478 l 1,17,-1
 524 -13 l 1,18,19
 284 17 284 17 165 168 c 128,-1,20
 46 319 46 319 88 593 c 2,21,-1
 161 1082 l 1,22,-1
 404 1082 l 1,23,-1
 331 591 l 2,24,25
 301 401 301 401 361.5 305.5 c 128,-1,26
 422 210 422 210 549 191 c 1,27,-1
 555 192 l 1,28,-1
 689 1082 l 1,29,-1
 932 1082 l 1,0,-1
EndSplineSet
Validated: 33
EndChar

StartChar: omega
Encoding: 969 969 419
Width: 1750
GlyphClass: 1
Flags: W
LayerCount: 2
Fore
SplineSet
572 1082 m 1,0,1
 483 948 483 948 423.5 819.5 c 128,-1,2
 364 691 364 691 342 566 c 0,3,4
 314 388 314 388 346.5 280.5 c 128,-1,5
 379 173 379 173 487 173 c 0,6,7
 578 173 578 173 647.5 247 c 128,-1,8
 717 321 717 321 741 480 c 2,9,-1
 790 805 l 1,10,-1
 1041 805 l 1,11,-1
 992 480 l 2,12,13
 967 314 967 314 1011.5 243.5 c 128,-1,14
 1056 173 1056 173 1153 173 c 0,15,16
 1255 173 1255 173 1323 284.5 c 128,-1,17
 1391 396 1391 396 1417 566 c 1,18,19
 1431 693 1431 693 1410 822 c 128,-1,20
 1389 951 1389 951 1340 1082 c 1,21,-1
 1582 1082 l 1,22,23
 1635 978 1635 978 1658.5 848.5 c 128,-1,24
 1682 719 1682 719 1659 566 c 0,25,26
 1618 295 1618 295 1491.5 137 c 128,-1,27
 1365 -21 1365 -21 1135 -21 c 0,28,29
 1018 -21 1018 -21 939 37.5 c 128,-1,30
 860 96 860 96 828 208 c 1,31,32
 765 94 765 94 668.5 36.5 c 128,-1,33
 572 -21 572 -21 448 -21 c 0,34,35
 228 -21 228 -21 144.5 143.5 c 128,-1,36
 61 308 61 308 100 566 c 0,37,38
 124 725 124 725 184.5 850.5 c 128,-1,39
 245 976 245 976 331 1082 c 1,40,-1
 572 1082 l 1,0,1
EndSplineSet
Validated: 33
EndChar

StartChar: uni03D1
Encoding: 977 977 425
Width: 1326
GlyphClass: 2
Flags: W
LayerCount: 2
Fore
SplineSet
602 999 m 1,0,-1
 614 1083 l 2,1,2
 641 1260 641 1260 761.5 1368.5 c 128,-1,3
 882 1477 882 1477 1037 1477 c 0,4,5
 1203 1477 1203 1477 1281 1375.5 c 128,-1,6
 1359 1274 1359 1274 1331 1083 c 2,7,-1
 1255 575 l 2,8,9
 1215 309 1215 309 1029 144 c 128,-1,10
 843 -21 843 -21 598 -21 c 0,11,12
 344 -21 344 -21 213.5 143.5 c 128,-1,13
 83 308 83 308 123 575 c 2,14,-1
 225 1252 l 1,15,-1
 475 1254 l 1,16,-1
 373 575 l 2,17,18
 347 404 347 404 418 293 c 128,-1,19
 489 182 489 182 628 182 c 0,20,21
 776 182 776 182 874.5 280 c 128,-1,22
 973 378 973 378 1004 563 c 1,23,24
 797 574 797 574 685 692 c 128,-1,25
 573 810 573 810 602 999 c 1,26,-1
 602 999 l 1,0,-1
1085 1098 m 2,27,28
 1097 1181 1097 1181 1074 1223.5 c 128,-1,29
 1051 1266 1051 1266 997 1266 c 0,30,31
 941 1266 941 1266 903 1225 c 128,-1,32
 865 1184 865 1184 853 1098 c 2,33,-1
 838 997 l 2,34,35
 822 899 822 899 875 832.5 c 128,-1,36
 928 766 928 766 1028 759 c 1,37,-1
 1034 760 l 1,38,-1
 1085 1098 l 2,27,28
EndSplineSet
Validated: 37
EndChar

StartChar: uni03D2
Encoding: 978 978 426
Width: 1141
GlyphClass: 1
Flags: W
LayerCount: 2
Fore
SplineSet
857 1220 m 2,0,1
 933 1359 933 1359 1010 1416.5 c 128,-1,2
 1087 1474 1087 1474 1191 1474 c 0,3,4
 1222 1474 1222 1474 1247.5 1469.5 c 128,-1,5
 1273 1465 1273 1465 1295 1453 c 1,6,-1
 1242 1261 l 1,7,8
 1239 1263 1239 1263 1225.5 1264.5 c 128,-1,9
 1212 1266 1212 1266 1199 1266 c 0,10,11
 1166 1266 1166 1266 1134 1244 c 128,-1,12
 1102 1222 1102 1222 1080 1184 c 2,13,-1
 687 525 l 1,14,-1
 609 0 l 1,15,-1
 367 0 l 1,16,-1
 446 530 l 1,17,-1
 253 1184 l 2,18,19
 240 1223 240 1223 216 1244.5 c 128,-1,20
 192 1266 192 1266 159 1266 c 0,21,22
 145 1266 145 1266 131.5 1264.5 c 128,-1,23
 118 1263 118 1263 114 1261 c 1,24,-1
 120 1453 l 1,25,26
 144 1465 144 1465 170 1469.5 c 128,-1,27
 196 1474 196 1474 229 1474 c 0,28,29
 329 1474 329 1474 390.5 1417 c 128,-1,30
 452 1360 452 1360 486 1223 c 2,31,-1
 593 830 l 1,32,-1
 599 753 l 1,33,-1
 605 752 l 1,34,-1
 635 830 l 1,35,-1
 857 1220 l 2,0,1
EndSplineSet
Validated: 1
EndChar

StartChar: uni03D6
Encoding: 982 982 427
Width: 1649
GlyphClass: 1
Flags: W
LayerCount: 2
Fore
SplineSet
1677 910 m 1,0,-1
 1544 910 l 1,1,2
 1560 832 1560 832 1563 746 c 128,-1,3
 1566 660 1566 660 1552 566 c 0,4,5
 1511 295 1511 295 1395.5 137 c 128,-1,6
 1280 -21 1280 -21 1074 -21 c 0,7,8
 962 -21 962 -21 886.5 37 c 128,-1,9
 811 95 811 95 781 206 c 1,10,11
 720 92 720 92 626.5 35.5 c 128,-1,12
 533 -21 533 -21 414 -21 c 0,13,14
 218 -21 218 -21 146 144 c 128,-1,15
 74 309 74 309 113 566 c 0,16,17
 127 663 127 663 155 748.5 c 128,-1,18
 183 834 183 834 222 910 c 1,19,-1
 108 910 l 1,20,-1
 133 1082 l 1,21,-1
 1702 1082 l 1,22,-1
 1677 910 l 1,0,-1
1310 566 m 0,23,24
 1320 650 1320 650 1315 736.5 c 128,-1,25
 1310 823 1310 823 1293 910 c 1,26,-1
 475 910 l 1,27,28
 430 822 430 822 399.5 736 c 128,-1,29
 369 650 369 650 355 566 c 0,30,31
 328 388 328 388 349.5 280.5 c 128,-1,32
 371 173 371 173 454 173 c 0,33,34
 540 173 540 173 605.5 247 c 128,-1,35
 671 321 671 321 695 480 c 2,36,-1
 729 706 l 1,37,-1
 979 706 l 1,38,-1
 945 480 l 2,39,40
 920 314 920 314 961 243.5 c 128,-1,41
 1002 173 1002 173 1093 173 c 0,42,43
 1171 173 1171 173 1227.5 284.5 c 128,-1,44
 1284 396 1284 396 1310 566 c 0,23,24
EndSplineSet
Validated: 33
EndChar

StartChar: uni0402
Encoding: 1026 1026 430
Width: 1535
GlyphClass: 1
Flags: W
LayerCount: 2
Fore
SplineSet
1299 1261 m 1,0,-1
 849 1261 l 1,1,-1
 795 901 l 1,2,-1
 973 901 l 2,3,4
 1214 901 1214 901 1353 772.5 c 128,-1,5
 1492 644 1492 644 1458 418 c 0,6,7
 1437 277 1437 277 1320 141 c 128,-1,8
 1203 5 1203 5 1009 -41 c 1,9,-1
 950 131 l 1,10,11
 1070 169 1070 169 1134 240.5 c 128,-1,12
 1198 312 1198 312 1215 418 c 0,13,14
 1234 552 1234 552 1160.5 625.5 c 128,-1,15
 1087 699 1087 699 943 699 c 2,16,-1
 764 699 l 1,17,-1
 660 0 l 1,18,-1
 417 0 l 1,19,-1
 606 1261 l 1,20,-1
 163 1261 l 1,21,-1
 192 1456 l 1,22,-1
 1328 1456 l 1,23,-1
 1299 1261 l 1,0,-1
EndSplineSet
Validated: 33
EndChar

StartChar: uni0404
Encoding: 1028 1028 432
Width: 1342
GlyphClass: 1
Flags: W
LayerCount: 2
Fore
SplineSet
1225 477 m 1,0,-1
 1227 471 l 1,1,2
 1197 242 1197 242 1031.5 111 c 128,-1,3
 866 -20 866 -20 613 -20 c 0,4,5
 369 -20 369 -20 232 153 c 128,-1,6
 95 326 95 326 135 590 c 2,7,-1
 176 867 l 2,8,9
 217 1144 217 1144 397 1311 c 128,-1,10
 577 1478 577 1478 831 1478 c 0,11,12
 1078 1478 1078 1478 1210.5 1345.5 c 128,-1,13
 1343 1213 1343 1213 1305 988 c 1,14,-1
 1302 982 l 1,15,-1
 1067 982 l 1,16,17
 1090 1133 1090 1133 1023 1208 c 128,-1,18
 956 1283 956 1283 801 1283 c 0,19,20
 659 1283 659 1283 551.5 1164 c 128,-1,21
 444 1045 444 1045 418 869 c 2,22,-1
 412 831 l 1,23,-1
 914 831 l 1,24,-1
 884 636 l 1,25,-1
 384 636 l 1,26,-1
 377 590 l 2,27,28
 348 403 348 403 418.5 288.5 c 128,-1,29
 489 174 489 174 642 174 c 0,30,31
 785 174 785 174 877 253 c 128,-1,32
 969 332 969 332 992 477 c 1,33,-1
 1225 477 l 1,0,-1
EndSplineSet
Validated: 33
EndChar

StartChar: uni0405
Encoding: 1029 1029 433
Width: 1259
GlyphClass: 1
Flags: W
LayerCount: 2
Fore
SplineSet
896 374 m 0,0,1
 910 468 910 468 855 524.5 c 128,-1,2
 800 581 800 581 641 627 c 0,3,4
 416 692 416 692 304 797.5 c 128,-1,5
 192 903 192 903 218 1073 c 0,6,7
 245 1255 245 1255 400.5 1366 c 128,-1,8
 556 1477 556 1477 779 1477 c 0,9,10
 1005 1477 1005 1477 1132 1349 c 128,-1,11
 1259 1221 1259 1221 1227 1038 c 1,12,-1
 1225 1032 l 1,13,-1
 990 1032 l 1,14,15
 1007 1152 1007 1152 941.5 1217.5 c 128,-1,16
 876 1283 876 1283 747 1283 c 0,17,18
 629 1283 629 1283 551 1224 c 128,-1,19
 473 1165 473 1165 460 1075 c 0,20,21
 446 988 446 988 510 935.5 c 128,-1,22
 574 883 574 883 739 833 c 0,23,24
 959 769 959 769 1062 658.5 c 128,-1,25
 1165 548 1165 548 1139 376 c 0,26,27
 1111 188 1111 188 955 83.5 c 128,-1,28
 799 -21 799 -21 565 -21 c 0,29,30
 350 -21 350 -21 199 97.5 c 128,-1,31
 48 216 48 216 85 430 c 1,32,-1
 87 436 l 1,33,-1
 322 436 l 1,34,35
 301 300 301 300 381.5 236 c 128,-1,36
 462 172 462 172 594 172 c 0,37,38
 717 172 717 172 799.5 227 c 128,-1,39
 882 282 882 282 896 374 c 0,0,1
EndSplineSet
Validated: 33
EndChar

StartChar: uni0409
Encoding: 1033 1033 437
Width: 2186
GlyphClass: 1
Flags: W
LayerCount: 2
Fore
SplineSet
1428 1456 m 1,0,-1
 1348 923 l 1,1,-1
 1656 923 l 2,2,3
 1887 923 1887 923 2010.5 793 c 128,-1,4
 2134 663 2134 663 2104 461 c 0,5,6
 2072 249 2072 249 1916.5 124.5 c 128,-1,7
 1761 0 1761 0 1518 0 c 2,8,-1
 967 0 l 1,9,-1
 1156 1261 l 1,10,-1
 708 1261 l 1,11,-1
 636 781 l 2,12,13
 572 355 572 355 426.5 177.5 c 128,-1,14
 281 0 281 0 14 0 c 2,15,-1
 -34 0 l 1,16,-1
 -5 194 l 1,17,-1
 35 194 l 2,18,19
 179 194 179 194 262.5 329 c 128,-1,20
 346 464 346 464 394 781 c 2,21,-1
 495 1456 l 1,22,-1
 1428 1456 l 1,0,-1
1319 728 m 1,23,-1
 1239 194 l 1,24,-1
 1547 194 l 2,25,26
 1676 194 1676 194 1760.5 273 c 128,-1,27
 1845 352 1845 352 1862 463 c 0,28,29
 1879 577 1879 577 1821 652.5 c 128,-1,30
 1763 728 1763 728 1627 728 c 2,31,-1
 1319 728 l 1,23,-1
EndSplineSet
Validated: 33
EndChar

StartChar: uni040A
Encoding: 1034 1034 438
Width: 2185
GlyphClass: 1
Flags: W
LayerCount: 2
Fore
SplineSet
439 836 m 1,0,-1
 1092 836 l 1,1,-1
 1185 1456 l 1,2,-1
 1427 1456 l 1,3,-1
 1342 889 l 1,4,-1
 1651 889 l 2,5,6
 1883 889 1883 889 2007 765.5 c 128,-1,7
 2131 642 2131 642 2102 448 c 0,8,9
 2070 241 2070 241 1915.5 120.5 c 128,-1,10
 1761 0 1761 0 1518 0 c 2,11,-1
 967 0 l 1,12,-1
 1063 641 l 1,13,-1
 410 641 l 1,14,-1
 314 0 l 1,15,-1
 71 0 l 1,16,-1
 289 1456 l 1,17,-1
 532 1456 l 1,18,-1
 439 836 l 1,0,-1
1313 694 m 1,19,-1
 1239 202 l 1,20,-1
 1548 202 l 2,21,22
 1677 202 1677 202 1760.5 273.5 c 128,-1,23
 1844 345 1844 345 1860 450 c 0,24,25
 1875 557 1875 557 1816.5 625.5 c 128,-1,26
 1758 694 1758 694 1622 694 c 2,27,-1
 1313 694 l 1,19,-1
EndSplineSet
Validated: 33
EndChar

StartChar: uni040B
Encoding: 1035 1035 439
Width: 1654
GlyphClass: 1
Flags: W
LayerCount: 2
Fore
SplineSet
1315 1261 m 1,0,-1
 864 1261 l 1,1,-1
 821 971 l 1,2,-1
 1070 971 l 2,3,4
 1311 971 1311 971 1431 855.5 c 128,-1,5
 1551 740 1551 740 1515 502 c 2,6,-1
 1440 0 l 1,7,-1
 1197 0 l 1,8,-1
 1272 502 l 2,9,10
 1295 660 1295 660 1241 718 c 128,-1,11
 1187 776 1187 776 1040 776 c 2,12,-1
 792 776 l 1,13,-1
 676 0 l 1,14,-1
 433 0 l 1,15,-1
 622 1261 l 1,16,-1
 179 1261 l 1,17,-1
 208 1456 l 1,18,-1
 1344 1456 l 1,19,-1
 1315 1261 l 1,0,-1
EndSplineSet
Validated: 33
EndChar

StartChar: uni040F
Encoding: 1039 1039 443
Width: 1435
GlyphClass: 1
Flags: W
LayerCount: 2
Fore
SplineSet
283 1456 m 1,0,-1
 526 1456 l 1,1,-1
 337 194 l 1,2,-1
 989 194 l 1,3,-1
 1178 1456 l 1,4,-1
 1421 1456 l 1,5,-1
 1203 0 l 1,6,-1
 765 0 l 1,7,-1
 711 -360 l 1,8,-1
 468 -360 l 1,9,-1
 522 0 l 1,10,-1
 65 0 l 1,11,-1
 283 1456 l 1,0,-1
EndSplineSet
Validated: 1
EndChar

StartChar: uni0411
Encoding: 1041 1041 445
Width: 1288
GlyphClass: 1
Flags: W
LayerCount: 2
Fore
SplineSet
1177 1261 m 1,0,-1
 500 1261 l 1,1,-1
 448 916 l 1,2,-1
 756 916 l 2,3,4
 989 916 989 916 1112.5 789 c 128,-1,5
 1236 662 1236 662 1206 461 c 0,6,7
 1174 249 1174 249 1018 124.5 c 128,-1,8
 862 0 862 0 619 0 c 2,9,-1
 68 0 l 1,10,-1
 286 1456 l 1,11,-1
 1206 1456 l 1,12,-1
 1177 1261 l 1,0,-1
419 721 m 1,13,-1
 340 194 l 1,14,-1
 648 194 l 2,15,16
 777 194 777 194 861.5 273 c 128,-1,17
 946 352 946 352 963 463 c 0,18,19
 980 576 980 576 922 648.5 c 128,-1,20
 864 721 864 721 727 721 c 2,21,-1
 419 721 l 1,13,-1
EndSplineSet
Validated: 33
EndChar

StartChar: uni0414
Encoding: 1044 1044 448
Width: 1526
GlyphClass: 1
Flags: W
LayerCount: 2
Fore
SplineSet
1365 -358 m 1,0,-1
 1122 -358 l 1,1,-1
 1176 0 l 1,2,-1
 198 0 l 1,3,-1
 144 -359 l 1,4,-1
 -99 -359 l 1,5,-1
 -16 194 l 1,6,-1
 80 194 l 2,7,8
 199 194 199 194 284.5 361.5 c 128,-1,9
 370 529 370 529 436 860 c 2,10,-1
 558 1456 l 1,11,-1
 1449 1456 l 1,12,-1
 1260 194 l 1,13,-1
 1448 194 l 1,14,-1
 1365 -358 l 1,0,-1
680 860 m 2,15,16
 634 634 634 634 571.5 467.5 c 128,-1,17
 509 301 509 301 427 194 c 1,18,-1
 1017 194 l 1,19,-1
 1177 1261 l 1,20,-1
 760 1261 l 1,21,-1
 680 860 l 2,15,16
EndSplineSet
Validated: 1
EndChar

StartChar: uni0416
Encoding: 1046 1046 450
Width: 1773
GlyphClass: 1
Flags: W
LayerCount: 2
Fore
SplineSet
1101 635 m 1,0,-1
 1027 635 l 1,1,-1
 932 0 l 1,2,-1
 690 0 l 1,3,-1
 785 635 l 1,4,-1
 705 635 l 1,5,-1
 239 0 l 1,6,-1
 -64 0 l 1,7,-1
 529 775 l 1,8,-1
 187 1456 l 1,9,-1
 480 1456 l 1,10,-1
 749 844 l 1,11,-1
 816 844 l 1,12,-1
 908 1456 l 1,13,-1
 1150 1456 l 1,14,-1
 1058 844 l 1,15,-1
 1122 844 l 1,16,-1
 1568 1456 l 1,17,-1
 1854 1456 l 1,18,-1
 1857 1451 l 1,19,-1
 1318 775 l 1,20,-1
 1676 0 l 1,21,-1
 1374 0 l 1,22,-1
 1101 635 l 1,0,-1
EndSplineSet
Validated: 1
EndChar

StartChar: uni0417
Encoding: 1047 1047 451
Width: 1367
GlyphClass: 1
Flags: W
LayerCount: 2
Fore
SplineSet
534 839 m 1,0,-1
 723 839 l 2,1,2
 873 839 873 839 960 898.5 c 128,-1,3
 1047 958 1047 958 1063 1061 c 0,4,5
 1078 1160 1078 1160 1005.5 1221 c 128,-1,6
 933 1282 933 1282 773 1282 c 0,7,8
 652 1282 652 1282 555.5 1221 c 128,-1,9
 459 1160 459 1160 446 1069 c 1,10,-1
 213 1069 l 1,11,-1
 211 1075 l 1,12,13
 234 1261 234 1261 403.5 1369 c 128,-1,14
 573 1477 573 1477 803 1477 c 0,15,16
 1055 1477 1055 1477 1194.5 1368 c 128,-1,17
 1334 1259 1334 1259 1305 1061 c 0,18,19
 1289 956 1289 956 1211.5 873.5 c 128,-1,20
 1134 791 1134 791 1010 745 c 1,21,22
 1132 701 1132 701 1190 615 c 128,-1,23
 1248 529 1248 529 1230 408 c 0,24,25
 1198 199 1198 199 1021 89 c 128,-1,26
 844 -21 844 -21 578 -21 c 0,27,28
 358 -21 358 -21 205.5 87 c 128,-1,29
 53 195 53 195 90 398 c 1,30,-1
 92 404 l 1,31,-1
 326 404 l 1,32,33
 310 303 310 303 388.5 238 c 128,-1,34
 467 173 467 173 607 173 c 0,35,36
 761 173 761 173 866 239 c 128,-1,37
 971 305 971 305 987 407 c 0,38,39
 1005 534 1005 534 932 590 c 128,-1,40
 859 646 859 646 694 646 c 2,41,-1
 505 646 l 1,42,-1
 526 786 l 1,43,-1
 534 839 l 1,0,-1
EndSplineSet
Validated: 33
EndChar

StartChar: uni0418
Encoding: 1048 1048 452
Width: 1435
GlyphClass: 1
Flags: W
LayerCount: 2
Fore
SplineSet
1182 1456 m 1,0,-1
 1425 1456 l 1,1,-1
 1207 0 l 1,2,-1
 964 0 l 1,3,-1
 1120 1043 l 1,4,-1
 1115 1045 l 1,5,-1
 312 0 l 1,6,-1
 70 0 l 1,7,-1
 288 1456 l 1,8,-1
 530 1456 l 1,9,-1
 374 414 l 1,10,-1
 379 411 l 1,11,-1
 1182 1456 l 1,0,-1
EndSplineSet
Validated: 1
EndChar

StartChar: uni041B
Encoding: 1051 1051 455
Width: 1442
GlyphClass: 1
Flags: W
LayerCount: 2
Fore
SplineSet
1428 1456 m 1,0,-1
 1210 0 l 1,1,-1
 967 0 l 1,2,-1
 1156 1261 l 1,3,-1
 684 1261 l 1,4,-1
 612 781 l 2,5,6
 548 355 548 355 408.5 177.5 c 128,-1,7
 269 0 269 0 14 0 c 2,8,-1
 -34 0 l 1,9,-1
 -5 194 l 1,10,-1
 35 194 l 2,11,12
 168 194 168 194 245 328 c 128,-1,13
 322 462 322 462 370 781 c 2,14,-1
 471 1456 l 1,15,-1
 1428 1456 l 1,0,-1
EndSplineSet
Validated: 1
EndChar

StartChar: uni0423
Encoding: 1059 1059 463
Width: 1303
GlyphClass: 1
Flags: W
LayerCount: 2
Fore
SplineSet
640 798 m 1,0,-1
 668 651 l 1,1,-1
 674 650 l 1,2,-1
 1122 1456 l 1,3,-1
 1390 1456 l 1,4,-1
 682 258 l 2,5,6
 604 125 604 125 508 52 c 128,-1,7
 412 -21 412 -21 255 -21 c 0,8,9
 195 -21 195 -21 142.5 -10 c 128,-1,10
 90 1 90 1 49 18 c 1,11,-1
 104 199 l 1,12,13
 141 188 141 188 181.5 180.5 c 128,-1,14
 222 173 222 173 257 173 c 0,15,16
 336 173 336 173 390.5 212 c 128,-1,17
 445 251 445 251 482 317 c 2,18,-1
 522 385 l 1,19,-1
 185 1456 l 1,20,-1
 451 1456 l 1,21,-1
 640 798 l 1,0,-1
EndSplineSet
Validated: 1
EndChar

StartChar: uni0426
Encoding: 1062 1062 466
Width: 1546
GlyphClass: 1
Flags: W
LayerCount: 2
Fore
SplineSet
280 1456 m 1,0,-1
 523 1456 l 1,1,-1
 334 195 l 1,2,-1
 987 195 l 1,3,-1
 1176 1456 l 1,4,-1
 1419 1456 l 1,5,-1
 1230 197 l 1,6,-1
 1423 197 l 1,7,-1
 1339 -359 l 1,8,-1
 1097 -359 l 1,9,-1
 1151 0 l 1,10,-1
 62 0 l 1,11,-1
 280 1456 l 1,0,-1
EndSplineSet
Validated: 1
EndChar

StartChar: uni0427
Encoding: 1063 1063 467
Width: 1409
GlyphClass: 1
Flags: W
LayerCount: 2
Fore
SplineSet
1395 1456 m 1,0,-1
 1177 0 l 1,1,-1
 934 0 l 1,2,-1
 1020 577 l 1,3,4
 938 556 938 556 849.5 545 c 128,-1,5
 761 534 761 534 666 534 c 0,6,7
 422 534 422 534 299.5 646.5 c 128,-1,8
 177 759 177 759 213 997 c 2,9,-1
 281 1456 l 1,10,-1
 524 1456 l 1,11,-1
 456 997 l 2,12,13
 432 840 432 840 489 785 c 128,-1,14
 546 730 546 730 696 730 c 0,15,16
 776 730 776 730 870 741.5 c 128,-1,17
 964 753 964 753 1050 774 c 1,18,-1
 1152 1456 l 1,19,-1
 1395 1456 l 1,0,-1
EndSplineSet
Validated: 33
EndChar

StartChar: uni0428
Encoding: 1064 1064 468
Width: 2098
GlyphClass: 1
Flags: W
LayerCount: 2
Fore
SplineSet
528 1456 m 1,0,-1
 339 194 l 1,1,-1
 885 194 l 1,2,-1
 1074 1456 l 1,3,-1
 1316 1456 l 1,4,-1
 1127 194 l 1,5,-1
 1670 194 l 1,6,-1
 1859 1456 l 1,7,-1
 2102 1456 l 1,8,-1
 1884 0 l 1,9,-1
 67 0 l 1,10,-1
 285 1456 l 1,11,-1
 528 1456 l 1,0,-1
EndSplineSet
Validated: 1
EndChar

StartChar: uni0429
Encoding: 1065 1065 469
Width: 2208
GlyphClass: 1
Flags: W
LayerCount: 2
Fore
SplineSet
528 1456 m 1,0,-1
 339 194 l 1,1,-1
 885 194 l 1,2,-1
 1074 1456 l 1,3,-1
 1316 1456 l 1,4,-1
 1127 194 l 1,5,-1
 1670 194 l 1,6,-1
 1859 1456 l 1,7,-1
 2102 1456 l 1,8,-1
 1912 187 l 1,9,-1
 2109 187 l 1,10,-1
 2028 -354 l 1,11,-1
 1785 -354 l 1,12,-1
 1838 0 l 1,13,-1
 67 0 l 1,14,-1
 285 1456 l 1,15,-1
 528 1456 l 1,0,-1
EndSplineSet
Validated: 1
EndChar

StartChar: uni042A
Encoding: 1066 1066 470
Width: 1464
GlyphClass: 1
Flags: W
LayerCount: 2
Fore
SplineSet
141 1456 m 1,0,-1
 692 1456 l 1,1,-1
 611 916 l 1,2,-1
 919 916 l 2,3,4
 1152 916 1152 916 1275.5 789 c 128,-1,5
 1399 662 1399 662 1369 461 c 0,6,7
 1337 249 1337 249 1181 124.5 c 128,-1,8
 1025 0 1025 0 782 0 c 2,9,-1
 231 0 l 1,10,-1
 420 1261 l 1,11,-1
 112 1261 l 1,12,-1
 141 1456 l 1,0,-1
582 721 m 1,13,-1
 503 194 l 1,14,-1
 811 194 l 2,15,16
 940 194 940 194 1024.5 273 c 128,-1,17
 1109 352 1109 352 1126 463 c 0,18,19
 1143 576 1143 576 1085 648.5 c 128,-1,20
 1027 721 1027 721 890 721 c 2,21,-1
 582 721 l 1,13,-1
EndSplineSet
Validated: 33
EndChar

StartChar: uni042B
Encoding: 1067 1067 471
Width: 1763
GlyphClass: 1
Flags: W
LayerCount: 2
Fore
SplineSet
448 916 m 1,0,-1
 756 916 l 2,1,2
 989 916 989 916 1112.5 789 c 128,-1,3
 1236 662 1236 662 1206 461 c 0,4,5
 1174 249 1174 249 1018 124.5 c 128,-1,6
 862 0 862 0 619 0 c 2,7,-1
 68 0 l 1,8,-1
 286 1456 l 1,9,-1
 529 1456 l 1,10,-1
 448 916 l 1,0,-1
1534 0 m 1,11,-1
 1291 0 l 1,12,-1
 1509 1456 l 1,13,-1
 1752 1456 l 1,14,-1
 1534 0 l 1,11,-1
419 721 m 1,15,-1
 340 194 l 1,16,-1
 648 194 l 2,17,18
 777 194 777 194 861.5 273 c 128,-1,19
 946 352 946 352 963 463 c 0,20,21
 980 576 980 576 922 648.5 c 128,-1,22
 864 721 864 721 727 721 c 2,23,-1
 419 721 l 1,15,-1
EndSplineSet
Validated: 33
EndChar

StartChar: uni042C
Encoding: 1068 1068 472
Width: 1287
GlyphClass: 1
Flags: W
LayerCount: 2
Fore
SplineSet
448 916 m 1,0,-1
 756 916 l 2,1,2
 989 916 989 916 1112.5 789 c 128,-1,3
 1236 662 1236 662 1206 461 c 0,4,5
 1174 249 1174 249 1018 124.5 c 128,-1,6
 862 0 862 0 619 0 c 2,7,-1
 68 0 l 1,8,-1
 286 1456 l 1,9,-1
 529 1456 l 1,10,-1
 448 916 l 1,0,-1
419 721 m 1,11,-1
 340 194 l 1,12,-1
 648 194 l 2,13,14
 777 194 777 194 861.5 273 c 128,-1,15
 946 352 946 352 963 463 c 0,16,17
 980 576 980 576 922 648.5 c 128,-1,18
 864 721 864 721 727 721 c 2,19,-1
 419 721 l 1,11,-1
EndSplineSet
Validated: 33
EndChar

StartChar: uni042D
Encoding: 1069 1069 473
Width: 1340
GlyphClass: 1
Flags: W
LayerCount: 2
Fore
SplineSet
212 980 m 1,0,-1
 210 986 l 1,1,2
 239 1214 239 1214 403 1346 c 128,-1,3
 567 1478 567 1478 820 1478 c 0,4,5
 1060 1478 1060 1478 1194 1304 c 128,-1,6
 1328 1130 1328 1130 1289 867 c 2,7,-1
 1248 590 l 2,8,9
 1206 312 1206 312 1027 146 c 128,-1,10
 848 -20 848 -20 595 -20 c 0,11,12
 351 -20 351 -20 222 111.5 c 128,-1,13
 93 243 93 243 132 469 c 1,14,-1
 135 475 l 1,15,-1
 369 475 l 1,16,17
 346 322 346 322 409.5 248 c 128,-1,18
 473 174 473 174 624 174 c 0,19,20
 766 174 766 174 871 292.5 c 128,-1,21
 976 411 976 411 1003 588 c 2,22,-1
 1012 648 l 1,23,-1
 498 648 l 1,24,-1
 528 844 l 1,25,-1
 1041 844 l 1,26,-1
 1045 867 l 1,27,28
 1073 1054 1073 1054 1006 1168.5 c 128,-1,29
 939 1283 939 1283 790 1283 c 0,30,31
 647 1283 647 1283 557 1204 c 128,-1,32
 467 1125 467 1125 446 980 c 1,33,-1
 212 980 l 1,0,-1
EndSplineSet
Validated: 33
EndChar

StartChar: uni042E
Encoding: 1070 1070 474
Width: 1876
GlyphClass: 1
Flags: W
LayerCount: 2
Fore
SplineSet
1787 597 m 2,0,1
 1744 319 1744 319 1553 149 c 128,-1,2
 1362 -21 1362 -21 1091 -21 c 0,3,4
 840 -21 840 -21 697.5 156 c 128,-1,5
 555 333 555 333 595 597 c 1,6,-1
 597 615 l 1,7,-1
 428 615 l 1,8,-1
 336 0 l 1,9,-1
 93 0 l 1,10,-1
 311 1456 l 1,11,-1
 554 1456 l 1,12,-1
 457 811 l 1,13,-1
 627 811 l 1,14,-1
 634 859 l 2,15,16
 675 1135 675 1135 863 1306 c 128,-1,17
 1051 1477 1051 1477 1316 1477 c 0,18,19
 1572 1477 1572 1477 1718.5 1299 c 128,-1,20
 1865 1121 1865 1121 1826 859 c 2,21,-1
 1787 597 l 2,0,1
1583 861 m 2,22,23
 1611 1050 1611 1050 1532.5 1163.5 c 128,-1,24
 1454 1277 1454 1277 1286 1277 c 0,25,26
 1131 1277 1131 1277 1017.5 1159 c 128,-1,27
 904 1041 904 1041 877 861 c 2,28,-1
 838 597 l 2,29,30
 809 406 809 406 884 292 c 128,-1,31
 959 178 959 178 1121 178 c 0,32,33
 1282 178 1282 178 1399 296.5 c 128,-1,34
 1516 415 1516 415 1544 597 c 2,35,-1
 1583 861 l 2,22,23
EndSplineSet
Validated: 33
EndChar

StartChar: uni042F
Encoding: 1071 1071 475
Width: 1207
GlyphClass: 1
Flags: W
LayerCount: 2
Fore
SplineSet
188 0 m 1,0,-1
 -72 0 l 1,1,-1
 354 651 l 1,2,3
 233 706 233 706 181 798.5 c 128,-1,4
 129 891 129 891 150 1029 c 0,5,6
 180 1230 180 1230 341 1343 c 128,-1,7
 502 1456 502 1456 739 1456 c 2,8,-1
 1223 1456 l 1,9,-1
 1005 0 l 1,10,-1
 762 0 l 1,11,-1
 849 582 l 1,12,-1
 562 582 l 1,13,-1
 188 0 l 1,0,-1
951 1261 m 1,14,-1
 710 1261 l 2,15,16
 570 1261 570 1261 489.5 1200 c 128,-1,17
 409 1139 409 1139 392 1024 c 0,18,19
 375 913 375 913 440 842 c 128,-1,20
 505 771 505 771 637 771 c 2,21,-1
 877 771 l 1,22,-1
 951 1261 l 1,14,-1
EndSplineSet
Validated: 33
EndChar

StartChar: uni0431
Encoding: 1073 1073 477
Width: 1140
GlyphClass: 1
Flags: W
LayerCount: 2
Fore
SplineSet
696 1102 m 0,0,1
 903 1102 903 1102 1008.5 945.5 c 128,-1,2
 1114 789 1114 789 1079 551 c 2,3,-1
 1076 530 l 2,4,5
 1037 278 1037 278 883.5 128.5 c 128,-1,6
 730 -21 730 -21 497 -21 c 0,7,8
 274 -21 274 -21 159.5 134.5 c 128,-1,9
 45 290 45 290 82 530 c 2,10,-1
 85 551 l 2,11,12
 86 558 86 558 86.5 562.5 c 128,-1,13
 87 567 87 567 89 573 c 2,14,-1
 124 804 l 2,15,16
 172 1127 172 1127 316.5 1274 c 128,-1,17
 461 1421 461 1421 712 1432 c 0,18,19
 845 1436 845 1436 919 1463.5 c 128,-1,20
 993 1491 993 1491 1003 1555 c 1,21,-1
 1189 1555 l 1,22,-1
 1190 1549 l 1,23,24
 1168 1364 1168 1364 1048.5 1298 c 128,-1,25
 929 1232 929 1232 701 1228 c 0,26,27
 552 1224 552 1224 459 1155.5 c 128,-1,28
 366 1087 366 1087 350 962 c 1,29,-1
 353 956 l 1,30,31
 418 1020 418 1020 508.5 1061 c 128,-1,32
 599 1102 599 1102 696 1102 c 0,0,1
634 907 m 0,33,34
 511 907 511 907 430.5 805 c 128,-1,35
 350 703 350 703 328 551 c 2,36,-1
 325 530 l 2,37,38
 300 366 300 366 347.5 269.5 c 128,-1,39
 395 173 395 173 526 173 c 0,40,41
 648 173 648 173 728.5 273.5 c 128,-1,42
 809 374 809 374 833 530 c 2,43,-1
 836 551 l 2,44,45
 860 712 860 712 811.5 809.5 c 128,-1,46
 763 907 763 907 634 907 c 0,33,34
EndSplineSet
Validated: 33
EndChar

StartChar: uni0432
Encoding: 1074 1074 478
Width: 1160
GlyphClass: 1
Flags: W
LayerCount: 2
Fore
SplineSet
56 0 m 1,0,-1
 218 1082 l 1,1,-1
 657 1082 l 2,2,3
 864 1082 864 1082 976 1005.5 c 128,-1,4
 1088 929 1088 929 1066 782 c 0,5,6
 1053 703 1053 703 998 644.5 c 128,-1,7
 943 586 943 586 851 556 c 1,8,9
 957 531 957 531 1005.5 464 c 128,-1,10
 1054 397 1054 397 1041 309 c 0,11,12
 1017 151 1017 151 895 75.5 c 128,-1,13
 773 0 773 0 564 0 c 2,14,-1
 56 0 l 1,0,-1
367 461 m 1,15,-1
 326 192 l 1,16,-1
 593 192 l 2,17,18
 683 192 683 192 737 226.5 c 128,-1,19
 791 261 791 261 801 326 c 0,20,21
 810 392 810 392 770 426.5 c 128,-1,22
 730 461 730 461 633 461 c 2,23,-1
 367 461 l 1,15,-1
393 635 m 1,24,-1
 604 635 l 2,25,26
 699 636 699 636 755 667 c 128,-1,27
 811 698 811 698 820 757 c 0,28,29
 830 826 830 826 782.5 857.5 c 128,-1,30
 735 889 735 889 628 889 c 2,31,-1
 431 889 l 1,32,-1
 393 635 l 1,24,-1
EndSplineSet
Validated: 33
EndChar

StartChar: uni0433
Encoding: 1075 1075 479
Width: 852
GlyphClass: 1
Flags: W
LayerCount: 2
Fore
SplineSet
891 886 m 1,0,-1
 421 886 l 1,1,-1
 289 0 l 1,2,-1
 46 0 l 1,3,-1
 208 1082 l 1,4,-1
 920 1082 l 1,5,-1
 891 886 l 1,0,-1
EndSplineSet
Validated: 1
EndChar

StartChar: uni0434
Encoding: 1076 1076 480
Width: 1331
GlyphClass: 1
Flags: W
LayerCount: 2
Fore
SplineSet
87 194 m 1,0,-1
 123 195 l 2,1,2
 198 195 198 195 251 307 c 128,-1,3
 304 419 304 419 353 655 c 2,4,-1
 441 1082 l 1,5,-1
 1199 1082 l 1,6,-1
 1066 194 l 1,7,-1
 1212 194 l 1,8,-1
 1129 -358 l 1,9,-1
 887 -358 l 1,10,-1
 941 0 l 1,11,-1
 234 0 l 1,12,-1
 180 -358 l 1,13,-1
 -63 -358 l 1,14,-1
 20 194 l 1,15,-1
 87 194 l 1,0,-1
595 655 m 2,16,17
 562 497 562 497 526.5 384.5 c 128,-1,18
 491 272 491 272 444 194 c 1,19,-1
 823 194 l 1,20,-1
 925 873 l 1,21,-1
 640 873 l 1,22,-1
 595 655 l 2,16,17
EndSplineSet
Validated: 1
EndChar

StartChar: uni0436
Encoding: 1078 1078 482
Width: 1560
GlyphClass: 1
Flags: W
LayerCount: 2
Fore
SplineSet
956 435 m 1,0,-1
 885 435 l 1,1,-1
 820 0 l 1,2,-1
 578 0 l 1,3,-1
 643 435 l 1,4,-1
 574 435 l 1,5,-1
 250 0 l 1,6,-1
 -51 0 l 1,7,-1
 -54 5 l 1,8,-1
 406 575 l 1,9,-1
 130 1082 l 1,10,-1
 430 1082 l 1,11,-1
 622 657 l 1,12,-1
 676 657 l 1,13,-1
 740 1082 l 1,14,-1
 982 1082 l 1,15,-1
 918 657 l 1,16,-1
 975 657 l 1,17,-1
 1293 1082 l 1,18,-1
 1587 1082 l 1,19,-1
 1589 1077 l 1,20,-1
 1166 575 l 1,21,-1
 1457 0 l 1,22,-1
 1148 0 l 1,23,-1
 956 435 l 1,0,-1
EndSplineSet
Validated: 1
EndChar

StartChar: uni0437
Encoding: 1079 1079 483
Width: 1120
GlyphClass: 1
Flags: W
LayerCount: 2
Fore
SplineSet
388 640 m 1,0,-1
 582 640 l 2,1,2
 678 640 678 640 734.5 676 c 128,-1,3
 791 712 791 712 801 774 c 0,4,5
 809 834 809 834 763.5 874 c 128,-1,6
 718 914 718 914 616 914 c 0,7,8
 529 914 529 914 461.5 874 c 128,-1,9
 394 834 394 834 386 775 c 1,10,-1
 154 775 l 1,11,-1
 153 781 l 1,12,13
 169 929 169 929 307.5 1015 c 128,-1,14
 446 1101 446 1101 637 1101 c 0,15,16
 838 1101 838 1101 952.5 1018 c 128,-1,17
 1067 935 1067 935 1045 786 c 0,18,19
 1033 710 1033 710 976 650 c 128,-1,20
 919 590 919 590 828 555 c 1,21,22
 919 522 919 522 962.5 458.5 c 128,-1,23
 1006 395 1006 395 993 306 c 0,24,25
 969 149 969 149 825 64.5 c 128,-1,26
 681 -20 681 -20 469 -20 c 0,27,28
 287 -20 287 -20 161.5 66.5 c 128,-1,29
 36 153 36 153 66 315 c 1,30,-1
 68 321 l 1,31,-1
 301 321 l 1,32,33
 290 255 290 255 345 210.5 c 128,-1,34
 400 166 400 166 505 166 c 0,35,36
 605 166 605 166 673.5 210 c 128,-1,37
 742 254 742 254 751 316 c 0,38,39
 763 395 763 395 714 430 c 128,-1,40
 665 465 665 465 556 465 c 2,41,-1
 362 465 l 1,42,-1
 369 516 l 1,43,-1
 379 583 l 1,44,-1
 380 588 l 1,45,-1
 388 640 l 1,0,-1
EndSplineSet
Validated: 33
EndChar

StartChar: uni0438
Encoding: 1080 1080 484
Width: 1160
GlyphClass: 1
Flags: W
LayerCount: 2
Fore
SplineSet
874 1082 m 1,0,-1
 1116 1082 l 1,1,-1
 954 0 l 1,2,-1
 712 0 l 1,3,-1
 819 717 l 1,4,-1
 814 719 l 1,5,-1
 288 0 l 1,6,-1
 46 0 l 1,7,-1
 208 1082 l 1,8,-1
 450 1082 l 1,9,-1
 343 364 l 1,10,-1
 348 362 l 1,11,-1
 874 1082 l 1,0,-1
EndSplineSet
Validated: 1
EndChar

StartChar: uni043A
Encoding: 1082 1082 486
Width: 1143
GlyphClass: 1
Flags: W
LayerCount: 2
Fore
SplineSet
478 428 m 1,0,-1
 368 428 l 1,1,-1
 304 0 l 1,2,-1
 62 0 l 1,3,-1
 224 1082 l 1,4,-1
 466 1082 l 1,5,-1
 401 650 l 1,6,-1
 487 650 l 1,7,-1
 872 1082 l 1,8,-1
 1165 1082 l 1,9,-1
 1168 1076 l 1,10,-1
 688 566 l 1,11,-1
 1044 0 l 1,12,-1
 728 0 l 1,13,-1
 478 428 l 1,0,-1
EndSplineSet
Validated: 1
EndChar

StartChar: uni043B
Encoding: 1083 1083 487
Width: 1141
GlyphClass: 1
Flags: W
LayerCount: 2
Fore
SplineSet
1116 1082 m 1,0,-1
 954 0 l 1,1,-1
 712 0 l 1,2,-1
 844 886 l 1,3,-1
 529 886 l 1,4,-1
 490 621 l 2,5,6
 440 289 440 289 328.5 144.5 c 128,-1,7
 217 0 217 0 -6 0 c 2,8,-1
 -58 0 l 1,9,-1
 -26 205 l 1,10,-1
 10 205 l 2,11,12
 109 205 109 205 160.5 298.5 c 128,-1,13
 212 392 212 392 247 621 c 2,14,-1
 316 1082 l 1,15,-1
 1116 1082 l 1,0,-1
EndSplineSet
Validated: 1
EndChar

StartChar: uni043C
Encoding: 1084 1084 488
Width: 1542
GlyphClass: 1
Flags: W
LayerCount: 2
Fore
SplineSet
729 307 m 1,0,-1
 735 306 l 1,1,-1
 1168 1082 l 1,2,-1
 1472 1082 l 1,3,-1
 1310 0 l 1,4,-1
 1067 0 l 1,5,-1
 1172 703 l 1,6,-1
 1166 705 l 1,7,-1
 768 0 l 1,8,-1
 603 0 l 1,9,-1
 416 708 l 1,10,-1
 410 707 l 1,11,-1
 304 0 l 1,12,-1
 62 0 l 1,13,-1
 224 1082 l 1,14,-1
 530 1082 l 1,15,-1
 729 307 l 1,0,-1
EndSplineSet
Validated: 1
EndChar

StartChar: uni043D
Encoding: 1085 1085 489
Width: 1160
GlyphClass: 1
Flags: W
LayerCount: 2
Fore
SplineSet
953 0 m 1,0,-1
 710 0 l 1,1,-1
 775 437 l 1,2,-1
 354 437 l 1,3,-1
 289 0 l 1,4,-1
 46 0 l 1,5,-1
 208 1082 l 1,6,-1
 451 1082 l 1,7,-1
 383 631 l 1,8,-1
 804 631 l 1,9,-1
 872 1082 l 1,10,-1
 1115 1082 l 1,11,-1
 953 0 l 1,0,-1
EndSplineSet
Validated: 1
EndChar

StartChar: uni043F
Encoding: 1087 1087 491
Width: 1160
GlyphClass: 1
Flags: W
LayerCount: 2
Fore
SplineSet
954 0 m 1,0,-1
 711 0 l 1,1,-1
 843 886 l 1,2,-1
 421 886 l 1,3,-1
 289 0 l 1,4,-1
 46 0 l 1,5,-1
 208 1082 l 1,6,-1
 1116 1082 l 1,7,-1
 954 0 l 1,0,-1
EndSplineSet
Validated: 1
EndChar

StartChar: uni0441
Encoding: 1089 1089 493
Width: 1065
GlyphClass: 1
Flags: W
LayerCount: 2
Fore
SplineSet
515 173 m 0,0,1
 595 173 595 173 662 225.5 c 128,-1,2
 729 278 729 278 741 357 c 1,3,-1
 960 357 l 1,4,-1
 962 351 l 1,5,6
 942 193 942 193 802.5 86 c 128,-1,7
 663 -21 663 -21 486 -21 c 0,8,9
 261 -21 261 -21 152.5 135 c 128,-1,10
 44 291 44 291 79 523 c 1,11,-1
 85 558 l 1,12,13
 121 801 121 801 269.5 951.5 c 128,-1,14
 418 1102 418 1102 653 1102 c 0,15,16
 835 1102 835 1102 939.5 987 c 128,-1,17
 1044 872 1044 872 1014 699 c 1,18,-1
 1012 694 l 1,19,-1
 791 694 l 1,20,21
 804 787 804 787 759 847 c 128,-1,22
 714 907 714 907 624 907 c 0,23,24
 500 907 500 907 424.5 805 c 128,-1,25
 349 703 349 703 328 558 c 2,26,-1
 322 523 l 2,27,28
 299 366 299 366 340.5 269.5 c 128,-1,29
 382 173 382 173 515 173 c 0,0,1
EndSplineSet
Validated: 33
EndChar

StartChar: uni0442
Encoding: 1090 1090 494
Width: 1058
GlyphClass: 1
Flags: W
LayerCount: 2
Fore
SplineSet
1054 889 m 1,0,-1
 702 889 l 1,1,-1
 569 0 l 1,2,-1
 326 0 l 1,3,-1
 459 889 l 1,4,-1
 113 889 l 1,5,-1
 142 1082 l 1,6,-1
 1083 1082 l 1,7,-1
 1054 889 l 1,0,-1
EndSplineSet
Validated: 1
EndChar

StartChar: uni0444
Encoding: 1092 1092 496
Width: 1809
GlyphClass: 1
Flags: W
LayerCount: 2
Fore
SplineSet
80 526 m 2,0,1
 120 794 120 794 253 948 c 128,-1,2
 386 1102 386 1102 589 1102 c 0,3,4
 672 1102 672 1102 735.5 1070 c 128,-1,5
 799 1038 799 1038 842 979 c 1,6,-1
 929 1560 l 1,7,-1
 1171 1560 l 1,8,-1
 1083 975 l 1,9,10
 1144 1037 1144 1037 1219.5 1069.5 c 128,-1,11
 1295 1102 1295 1102 1385 1102 c 0,12,13
 1577 1102 1577 1102 1668 941.5 c 128,-1,14
 1759 781 1759 781 1722 526 c 2,15,-1
 1719 505 l 2,16,17
 1681 260 1681 260 1550 119.5 c 128,-1,18
 1419 -21 1419 -21 1219 -21 c 0,19,20
 1130 -21 1130 -21 1063.5 11 c 128,-1,21
 997 43 997 43 953 105 c 1,22,-1
 875 -416 l 1,23,-1
 633 -416 l 1,24,-1
 709 92 l 1,25,26
 649 36 649 36 577 7.5 c 128,-1,27
 505 -21 505 -21 419 -21 c 0,28,29
 228 -21 228 -21 135 125.5 c 128,-1,30
 42 272 42 272 77 505 c 2,31,-1
 80 526 l 2,0,1
1479 526 m 2,32,33
 1504 698 1504 698 1458.5 802.5 c 128,-1,34
 1413 907 1413 907 1288 907 c 0,35,36
 1214 907 1214 907 1155 872.5 c 128,-1,37
 1096 838 1096 838 1053 777 c 1,38,-1
 981 292 l 1,39,40
 1004 235 1004 235 1053 204 c 128,-1,41
 1102 173 1102 173 1180 173 c 0,42,43
 1298 173 1298 173 1375.5 266 c 128,-1,44
 1453 359 1453 359 1476 505 c 2,45,-1
 1479 526 l 2,32,33
320 505 m 2,46,47
 296 349 296 349 340 261 c 128,-1,48
 384 173 384 173 510 173 c 0,49,50
 582 173 582 173 639 204 c 128,-1,51
 696 235 696 235 739 292 c 1,52,-1
 814 792 l 1,53,54
 788 846 788 846 740.5 876.5 c 128,-1,55
 693 907 693 907 622 907 c 0,56,57
 503 907 503 907 425 799 c 128,-1,58
 347 691 347 691 323 526 c 2,59,-1
 320 505 l 2,46,47
EndSplineSet
Validated: 33
EndChar

StartChar: uni0446
Encoding: 1094 1094 498
Width: 1232
GlyphClass: 1
Flags: W
LayerCount: 2
Fore
SplineSet
208 1082 m 1,0,-1
 451 1082 l 1,1,-1
 318 194 l 1,2,-1
 740 194 l 1,3,-1
 873 1082 l 1,4,-1
 1116 1082 l 1,5,-1
 983 194 l 1,6,-1
 1128 194 l 1,7,-1
 1046 -356 l 1,8,-1
 803 -356 l 1,9,-1
 856 0 l 1,10,-1
 46 0 l 1,11,-1
 208 1082 l 1,0,-1
EndSplineSet
Validated: 1
EndChar

StartChar: uni0447
Encoding: 1095 1095 499
Width: 1139
GlyphClass: 1
Flags: W
LayerCount: 2
Fore
SplineSet
933 0 m 1,0,-1
 690 0 l 1,1,-1
 744 361 l 1,2,3
 695 350 695 350 643.5 344.5 c 128,-1,4
 592 339 592 339 542 339 c 0,5,6
 334 339 334 339 226 443 c 128,-1,7
 118 547 118 547 149 751 c 2,8,-1
 198 1083 l 1,9,-1
 440 1083 l 1,10,-1
 391 751 l 2,11,12
 372 631 372 631 416 583 c 128,-1,13
 460 535 460 535 571 535 c 0,14,15
 622 535 622 535 672 540.5 c 128,-1,16
 722 546 722 546 773 558 c 1,17,-1
 852 1082 l 1,18,-1
 1095 1082 l 1,19,-1
 933 0 l 1,0,-1
EndSplineSet
Validated: 33
EndChar

StartChar: uni0448
Encoding: 1096 1096 500
Width: 1667
GlyphClass: 1
Flags: W
LayerCount: 2
Fore
SplineSet
451 1082 m 1,0,-1
 318 194 l 1,1,-1
 656 194 l 1,2,-1
 789 1082 l 1,3,-1
 1032 1082 l 1,4,-1
 899 194 l 1,5,-1
 1238 194 l 1,6,-1
 1371 1082 l 1,7,-1
 1613 1082 l 1,8,-1
 1451 0 l 1,9,-1
 46 0 l 1,10,-1
 208 1082 l 1,11,-1
 451 1082 l 1,0,-1
EndSplineSet
Validated: 1
EndChar

StartChar: uni0449
Encoding: 1097 1097 501
Width: 1791
GlyphClass: 1
Flags: W
LayerCount: 2
Fore
SplineSet
451 1082 m 1,0,-1
 318 194 l 1,1,-1
 656 194 l 1,2,-1
 789 1082 l 1,3,-1
 1032 1082 l 1,4,-1
 899 194 l 1,5,-1
 1238 194 l 1,6,-1
 1371 1082 l 1,7,-1
 1613 1082 l 1,8,-1
 1481 202 l 1,9,-1
 1681 202 l 1,10,-1
 1597 -359 l 1,11,-1
 1355 -359 l 1,12,-1
 1409 0 l 1,13,-1
 46 0 l 1,14,-1
 208 1082 l 1,15,-1
 451 1082 l 1,0,-1
EndSplineSet
Validated: 1
EndChar

StartChar: uni044A
Encoding: 1098 1098 502
Width: 1286
GlyphClass: 1
Flags: W
LayerCount: 2
Fore
SplineSet
113 1082 m 1,0,-1
 665 1082 l 1,1,-1
 608 705 l 1,2,-1
 846 705 l 2,3,4
 1042 705 1042 705 1146.5 607 c 128,-1,5
 1251 509 1251 509 1228 355 c 0,6,7
 1203 192 1203 192 1074.5 96 c 128,-1,8
 946 0 946 0 740 0 c 2,9,-1
 260 0 l 1,10,-1
 393 887 l 1,11,-1
 84 887 l 1,12,-1
 113 1082 l 1,0,-1
579 510 m 1,13,-1
 532 194 l 1,14,-1
 769 194 l 2,15,16
 863 194 863 194 918.5 239 c 128,-1,17
 974 284 974 284 985 351 c 0,18,19
 994 419 994 419 954.5 464.5 c 128,-1,20
 915 510 915 510 817 510 c 2,21,-1
 579 510 l 1,13,-1
EndSplineSet
Validated: 33
EndChar

StartChar: uni044B
Encoding: 1099 1099 503
Width: 1658
GlyphClass: 1
Flags: W
LayerCount: 2
Fore
SplineSet
430 705 m 1,0,-1
 668 705 l 2,1,2
 864 705 864 705 968.5 607 c 128,-1,3
 1073 509 1073 509 1050 355 c 0,4,5
 1025 192 1025 192 896.5 96 c 128,-1,6
 768 0 768 0 562 0 c 2,7,-1
 82 0 l 1,8,-1
 244 1082 l 1,9,-1
 487 1082 l 1,10,-1
 430 705 l 1,0,-1
1388 0 m 1,11,-1
 1145 0 l 1,12,-1
 1307 1082 l 1,13,-1
 1550 1082 l 1,14,-1
 1388 0 l 1,11,-1
401 510 m 1,15,-1
 354 194 l 1,16,-1
 591 194 l 2,17,18
 685 194 685 194 740.5 239 c 128,-1,19
 796 284 796 284 807 351 c 0,20,21
 816 419 816 419 776.5 464.5 c 128,-1,22
 737 510 737 510 639 510 c 2,23,-1
 401 510 l 1,15,-1
EndSplineSet
Validated: 33
EndChar

StartChar: uni044C
Encoding: 1100 1100 504
Width: 1127
GlyphClass: 1
Flags: W
LayerCount: 2
Fore
SplineSet
410 705 m 1,0,-1
 648 705 l 2,1,2
 844 705 844 705 948.5 607 c 128,-1,3
 1053 509 1053 509 1030 355 c 0,4,5
 1005 192 1005 192 876.5 96 c 128,-1,6
 748 0 748 0 542 0 c 2,7,-1
 62 0 l 1,8,-1
 224 1082 l 1,9,-1
 467 1082 l 1,10,-1
 410 705 l 1,0,-1
381 510 m 1,11,-1
 334 194 l 1,12,-1
 571 194 l 2,13,14
 665 194 665 194 720.5 239 c 128,-1,15
 776 284 776 284 787 351 c 0,16,17
 796 419 796 419 756.5 464.5 c 128,-1,18
 717 510 717 510 619 510 c 2,19,-1
 381 510 l 1,11,-1
EndSplineSet
Validated: 33
EndChar

StartChar: uni044D
Encoding: 1101 1101 505
Width: 1084
GlyphClass: 1
Flags: W
LayerCount: 2
Fore
SplineSet
569 907 m 0,0,1
 488 907 488 907 419 854 c 128,-1,2
 350 801 350 801 338 723 c 1,3,-1
 118 723 l 1,4,-1
 116 729 l 1,5,6
 135 886 135 886 277.5 994 c 128,-1,7
 420 1102 420 1102 598 1102 c 0,8,9
 817 1102 817 1102 927.5 944.5 c 128,-1,10
 1038 787 1038 787 1004 558 c 1,11,-1
 998 523 l 1,12,13
 962 281 962 281 811 130 c 128,-1,14
 660 -21 660 -21 431 -21 c 0,15,16
 247 -21 247 -21 140 93 c 128,-1,17
 33 207 33 207 64 381 c 1,18,-1
 66 386 l 1,19,-1
 288 386 l 1,20,21
 274 293 274 293 321.5 233 c 128,-1,22
 369 173 369 173 460 173 c 0,23,24
 565 173 565 173 638 255.5 c 128,-1,25
 711 338 711 338 738 458 c 1,26,-1
 735 464 l 1,27,-1
 404 464 l 1,28,-1
 429 632 l 1,29,-1
 768 632 l 1,30,31
 772 756 772 756 725.5 831.5 c 128,-1,32
 679 907 679 907 569 907 c 0,0,1
EndSplineSet
Validated: 33
EndChar

StartChar: uni044E
Encoding: 1102 1102 506
Width: 1667
GlyphClass: 1
Flags: W
LayerCount: 2
Fore
SplineSet
403 648 m 1,0,-1
 612 648 l 1,1,2
 667 857 667 857 813.5 979.5 c 128,-1,3
 960 1102 960 1102 1169 1102 c 0,4,5
 1392 1102 1392 1102 1506 946 c 128,-1,6
 1620 790 1620 790 1585 551 c 2,7,-1
 1582 530 l 2,8,9
 1543 277 1543 277 1390 128 c 128,-1,10
 1237 -21 1237 -21 1003 -21 c 0,11,12
 799 -21 799 -21 685 110.5 c 128,-1,13
 571 242 571 242 581 452 c 1,14,-1
 373 452 l 1,15,-1
 306 0 l 1,16,-1
 63 0 l 1,17,-1
 225 1082 l 1,18,-1
 468 1082 l 1,19,-1
 403 648 l 1,0,-1
832 530 m 2,20,21
 807 366 807 366 854 269.5 c 128,-1,22
 901 173 901 173 1032 173 c 0,23,24
 1154 173 1154 173 1235 274 c 128,-1,25
 1316 375 1316 375 1340 530 c 2,26,-1
 1343 551 l 2,27,28
 1367 712 1367 712 1318.5 809.5 c 128,-1,29
 1270 907 1270 907 1140 907 c 0,30,31
 1018 907 1018 907 937.5 805 c 128,-1,32
 857 703 857 703 835 551 c 2,33,-1
 832 530 l 2,20,21
EndSplineSet
Validated: 33
EndChar

StartChar: uni044F
Encoding: 1103 1103 507
Width: 1160
GlyphClass: 1
Flags: W
LayerCount: 2
Fore
SplineSet
1099 1082 m 1,0,-1
 937 0 l 1,1,-1
 695 0 l 1,2,-1
 754 397 l 1,3,-1
 528 397 l 1,4,-1
 237 0 l 1,5,-1
 -15 0 l 1,6,-1
 307 439 l 1,7,8
 215 481 215 481 171.5 559 c 128,-1,9
 128 637 128 637 143 736 c 0,10,11
 167 894 167 894 297.5 988 c 128,-1,12
 428 1082 428 1082 633 1082 c 2,13,-1
 1099 1082 l 1,0,-1
386 730 m 0,14,15
 376 665 376 665 415.5 621 c 128,-1,16
 455 577 455 577 545 577 c 2,17,-1
 781 577 l 1,18,-1
 828 889 l 1,19,-1
 604 889 l 2,20,21
 512 889 512 889 453 840.5 c 128,-1,22
 394 792 394 792 386 730 c 0,14,15
EndSplineSet
Validated: 33
EndChar

StartChar: uni0452
Encoding: 1106 1106 510
Width: 1161
GlyphClass: 1
Flags: W
LayerCount: 2
Fore
SplineSet
669 1215 m 1,0,-1
 470 1215 l 1,1,-1
 430 948 l 1,2,3
 495 1022 495 1022 578 1062 c 128,-1,4
 661 1102 661 1102 756 1102 c 0,5,6
 922 1102 922 1102 1005 992.5 c 128,-1,7
 1088 883 1088 883 1055 659 c 2,8,-1
 1025 464 l 1,9,-1
 1026 464 l 1,10,-1
 947 -63 l 2,11,12
 918 -249 918 -249 812 -343 c 128,-1,13
 706 -437 706 -437 539 -437 c 0,14,15
 504 -437 504 -437 474 -433 c 128,-1,16
 444 -429 444 -429 414 -420 c 1,17,-1
 458 -229 l 1,18,19
 473 -234 473 -234 502.5 -238 c 128,-1,20
 532 -242 532 -242 554 -242 c 0,21,22
 610 -242 610 -242 650 -194.5 c 128,-1,23
 690 -147 690 -147 704 -63 c 2,24,-1
 713 0 l 1,25,-1
 812 661 l 2,26,27
 832 793 832 793 791.5 848 c 128,-1,28
 751 903 751 903 651 903 c 0,29,30
 575 903 575 903 513 874 c 128,-1,31
 451 845 451 845 407 794 c 1,32,-1
 288 0 l 1,33,-1
 45 0 l 1,34,-1
 227 1215 l 1,35,-1
 79 1215 l 1,36,-1
 103 1372 l 1,37,-1
 250 1372 l 1,38,-1
 279 1560 l 1,39,-1
 522 1560 l 1,40,-1
 493 1372 l 1,41,-1
 693 1372 l 1,42,-1
 669 1215 l 1,0,-1
EndSplineSet
Validated: 33
EndChar

StartChar: uni0454
Encoding: 1108 1108 512
Width: 1085
GlyphClass: 1
Flags: W
LayerCount: 2
Fore
SplineSet
515 173 m 0,0,1
 595 173 595 173 662 225.5 c 128,-1,2
 729 278 729 278 741 357 c 1,3,-1
 960 357 l 1,4,-1
 962 351 l 1,5,6
 942 193 942 193 802.5 86 c 128,-1,7
 663 -21 663 -21 486 -21 c 0,8,9
 261 -21 261 -21 152.5 135 c 128,-1,10
 44 291 44 291 79 523 c 1,11,-1
 85 558 l 1,12,13
 121 801 121 801 269.5 951.5 c 128,-1,14
 418 1102 418 1102 653 1102 c 0,15,16
 835 1102 835 1102 939.5 987 c 128,-1,17
 1044 872 1044 872 1014 699 c 1,18,-1
 1012 694 l 1,19,-1
 791 694 l 1,20,21
 804 787 804 787 759 847 c 128,-1,22
 714 907 714 907 624 907 c 0,23,24
 514 907 514 907 442.5 825.5 c 128,-1,25
 371 744 371 744 345 625 c 1,26,-1
 348 619 l 1,27,-1
 688 619 l 1,28,-1
 663 451 l 1,29,-1
 314 451 l 1,30,31
 307 324 307 324 353 248.5 c 128,-1,32
 399 173 399 173 515 173 c 0,0,1
EndSplineSet
Validated: 33
EndChar

StartChar: uni0459
Encoding: 1113 1113 517
Width: 1777
GlyphClass: 1
Flags: W
LayerCount: 2
Fore
SplineSet
1117 1082 m 1,0,-1
 1060 705 l 1,1,-1
 1298 705 l 2,2,3
 1494 705 1494 705 1598.5 607 c 128,-1,4
 1703 509 1703 509 1680 355 c 0,5,6
 1655 192 1655 192 1526.5 96 c 128,-1,7
 1398 0 1398 0 1192 0 c 2,8,-1
 712 0 l 1,9,-1
 844 886 l 1,10,-1
 569 886 l 1,11,-1
 530 621 l 2,12,13
 480 292 480 292 362.5 146 c 128,-1,14
 245 0 245 0 20 0 c 2,15,-1
 -32 0 l 1,16,-1
 -1 197 l 1,17,-1
 35 198 l 2,18,19
 130 198 130 198 192 301.5 c 128,-1,20
 254 405 254 405 287 621 c 2,21,-1
 356 1082 l 1,22,-1
 1117 1082 l 1,0,-1
1031 511 m 1,23,-1
 984 192 l 1,24,-1
 1221 192 l 2,25,26
 1314 192 1314 192 1370.5 240.5 c 128,-1,27
 1427 289 1427 289 1438 357 c 0,28,29
 1447 425 1447 425 1407.5 468 c 128,-1,30
 1368 511 1368 511 1269 511 c 2,31,-1
 1031 511 l 1,23,-1
EndSplineSet
Validated: 33
EndChar

StartChar: uni045A
Encoding: 1114 1114 518
Width: 1775
GlyphClass: 1
Flags: W
LayerCount: 2
Fore
SplineSet
389 671 m 1,0,-1
 810 671 l 1,1,-1
 872 1082 l 1,2,-1
 1115 1082 l 1,3,-1
 1058 705 l 1,4,-1
 1296 705 l 2,5,6
 1492 705 1492 705 1596.5 607 c 128,-1,7
 1701 509 1701 509 1678 355 c 0,8,9
 1653 192 1653 192 1524.5 96 c 128,-1,10
 1396 0 1396 0 1190 0 c 2,11,-1
 710 0 l 1,12,-1
 781 477 l 1,13,-1
 360 477 l 1,14,-1
 289 0 l 1,15,-1
 46 0 l 1,16,-1
 208 1082 l 1,17,-1
 451 1082 l 1,18,-1
 389 671 l 1,0,-1
1029 511 m 1,19,-1
 982 192 l 1,20,-1
 1219 192 l 2,21,22
 1312 192 1312 192 1368.5 240.5 c 128,-1,23
 1425 289 1425 289 1436 357 c 0,24,25
 1445 425 1445 425 1405 468 c 128,-1,26
 1365 511 1365 511 1267 511 c 2,27,-1
 1029 511 l 1,19,-1
EndSplineSet
Validated: 33
EndChar

StartChar: uni045B
Encoding: 1115 1115 519
Width: 1161
GlyphClass: 1
Flags: W
LayerCount: 2
Fore
SplineSet
781 1210 m 1,0,-1
 469 1210 l 1,1,-1
 430 948 l 1,2,3
 495 1022 495 1022 578 1062 c 128,-1,4
 661 1102 661 1102 756 1102 c 0,5,6
 922 1102 922 1102 1005 992.5 c 128,-1,7
 1088 883 1088 883 1055 659 c 2,8,-1
 956 0 l 1,9,-1
 713 0 l 1,10,-1
 812 661 l 2,11,12
 832 793 832 793 791.5 848 c 128,-1,13
 751 903 751 903 651 903 c 0,14,15
 575 903 575 903 513 874 c 128,-1,16
 451 845 451 845 407 794 c 1,17,-1
 288 0 l 1,18,-1
 45 0 l 1,19,-1
 226 1210 l 1,20,-1
 126 1210 l 1,21,-1
 151 1380 l 1,22,-1
 252 1380 l 1,23,-1
 279 1560 l 1,24,-1
 522 1560 l 1,25,-1
 495 1380 l 1,26,-1
 806 1380 l 1,27,-1
 781 1210 l 1,0,-1
EndSplineSet
Validated: 33
EndChar

StartChar: uni045F
Encoding: 1119 1119 523
Width: 1160
GlyphClass: 1
Flags: W
LayerCount: 2
Fore
SplineSet
451 1082 m 1,0,-1
 318 194 l 1,1,-1
 740 194 l 1,2,-1
 873 1082 l 1,3,-1
 1116 1082 l 1,4,-1
 954 0 l 1,5,-1
 623 0 l 1,6,-1
 569 -358 l 1,7,-1
 326 -358 l 1,8,-1
 380 0 l 1,9,-1
 46 0 l 1,10,-1
 208 1082 l 1,11,-1
 451 1082 l 1,0,-1
EndSplineSet
Validated: 1
EndChar

StartChar: uni0460
Encoding: 1120 1120 524
Width: 1948
GlyphClass: 1
Flags: W
LayerCount: 2
Fore
SplineSet
1234 1435 m 1,0,1
 1292 1455 1292 1455 1357 1466 c 128,-1,2
 1422 1477 1422 1477 1491 1477 c 0,3,4
 1702 1477 1702 1477 1822 1308.5 c 128,-1,5
 1942 1140 1942 1140 1903 880 c 2,6,-1
 1857 576 l 2,7,8
 1816 302 1816 302 1647.5 140.5 c 128,-1,9
 1479 -21 1479 -21 1250 -21 c 0,10,11
 1141 -21 1141 -21 1057 5 c 128,-1,12
 973 31 973 31 914 76 c 1,13,14
 843 31 843 31 751 5 c 128,-1,15
 659 -21 659 -21 545 -21 c 0,16,17
 327 -21 327 -21 201.5 147 c 128,-1,18
 76 315 76 315 116 576 c 2,19,-1
 162 880 l 2,20,21
 203 1154 203 1154 366.5 1315.5 c 128,-1,22
 530 1477 530 1477 754 1477 c 0,23,24
 820 1477 820 1477 883 1466 c 128,-1,25
 946 1455 946 1455 997 1435 c 1,26,-1
 909 1246 l 1,27,28
 873 1263 873 1263 827 1272.5 c 128,-1,29
 781 1282 781 1282 728 1282 c 0,30,31
 615 1282 615 1282 523 1168 c 128,-1,32
 431 1054 431 1054 405 882 c 2,33,-1
 359 576 l 2,34,35
 332 393 332 393 391.5 283 c 128,-1,36
 451 173 451 173 574 173 c 0,37,38
 665 173 665 173 725.5 200 c 128,-1,39
 786 227 786 227 819 264 c 1,40,-1
 863 561 l 1,41,-1
 671 561 l 1,42,-1
 698 743 l 1,43,-1
 1326 743 l 1,44,-1
 1299 561 l 1,45,-1
 1106 561 l 1,46,-1
 1062 264 l 1,47,48
 1083 226 1083 226 1133 199.5 c 128,-1,49
 1183 173 1183 173 1279 173 c 0,50,51
 1395 173 1395 173 1491 287.5 c 128,-1,52
 1587 402 1587 402 1614 576 c 2,53,-1
 1660 882 l 2,54,55
 1687 1063 1687 1063 1631.5 1172.5 c 128,-1,56
 1576 1282 1576 1282 1457 1282 c 0,57,58
 1405 1282 1405 1282 1355.5 1272 c 128,-1,59
 1306 1262 1306 1262 1266 1246 c 1,60,-1
 1234 1435 l 1,0,1
EndSplineSet
Validated: 33
EndChar

StartChar: uni0461
Encoding: 1121 1121 525
Width: 1434
GlyphClass: 1
Flags: W
LayerCount: 2
Fore
SplineSet
479 366 m 1,0,-1
 485 256 l 1,1,-1
 491 255 l 1,2,-1
 536 366 l 1,3,-1
 694 712 l 1,4,-1
 637 1082 l 1,5,-1
 881 1082 l 1,6,-1
 945 366 l 1,7,-1
 950 267 l 1,8,-1
 956 266 l 1,9,-1
 967 293 l 1,10,11
 1070 440 1070 440 1133 650 c 128,-1,12
 1196 860 1196 860 1221 1082 c 1,13,-1
 1472 1082 l 1,14,15
 1417 782 1417 782 1301 514.5 c 128,-1,16
 1185 247 1185 247 1012 0 c 1,17,-1
 805 0 l 1,18,-1
 744 393 l 1,19,-1
 738 394 l 1,20,-1
 542 0 l 1,21,-1
 338 0 l 1,22,-1
 114 1082 l 1,23,-1
 365 1082 l 1,24,-1
 479 366 l 1,0,-1
EndSplineSet
Validated: 1
EndChar

StartChar: uni0462
Encoding: 1122 1122 526
Width: 1287
GlyphClass: 1
Flags: W
LayerCount: 2
Fore
SplineSet
713 1095 m 1,0,-1
 475 1095 l 1,1,-1
 448 916 l 1,2,-1
 756 916 l 2,3,4
 989 916 989 916 1112.5 789 c 128,-1,5
 1236 662 1236 662 1206 461 c 0,6,7
 1174 249 1174 249 1018 124.5 c 128,-1,8
 862 0 862 0 619 0 c 2,9,-1
 68 0 l 1,10,-1
 232 1095 l 1,11,-1
 58 1095 l 1,12,-1
 84 1265 l 1,13,-1
 257 1265 l 1,14,-1
 286 1456 l 1,15,-1
 529 1456 l 1,16,-1
 500 1265 l 1,17,-1
 739 1265 l 1,18,-1
 713 1095 l 1,0,-1
419 721 m 1,19,-1
 340 194 l 1,20,-1
 648 194 l 2,21,22
 777 194 777 194 861.5 273 c 128,-1,23
 946 352 946 352 963 463 c 0,24,25
 980 576 980 576 922 648.5 c 128,-1,26
 864 721 864 721 727 721 c 2,27,-1
 419 721 l 1,19,-1
EndSplineSet
Validated: 33
EndChar

StartChar: uni0463
Encoding: 1123 1123 527
Width: 1127
GlyphClass: 1
Flags: W
LayerCount: 2
Fore
SplineSet
759 1092 m 1,0,-1
 468 1092 l 1,1,-1
 410 705 l 1,2,-1
 648 705 l 2,3,4
 844 705 844 705 948.5 607 c 128,-1,5
 1053 509 1053 509 1030 355 c 0,6,7
 1005 192 1005 192 876.5 96 c 128,-1,8
 748 0 748 0 542 0 c 2,9,-1
 62 0 l 1,10,-1
 225 1092 l 1,11,-1
 59 1092 l 1,12,-1
 84 1262 l 1,13,-1
 251 1262 l 1,14,-1
 296 1562 l 1,15,-1
 539 1562 l 1,16,-1
 494 1262 l 1,17,-1
 784 1262 l 1,18,-1
 759 1092 l 1,0,-1
381 510 m 1,19,-1
 334 194 l 1,20,-1
 571 194 l 2,21,22
 665 194 665 194 720.5 239 c 128,-1,23
 776 284 776 284 787 351 c 0,24,25
 796 419 796 419 756.5 464.5 c 128,-1,26
 717 510 717 510 619 510 c 2,27,-1
 381 510 l 1,19,-1
EndSplineSet
Validated: 33
EndChar

StartChar: uni0464
Encoding: 1124 1124 528
Width: 1833
GlyphClass: 1
Flags: W
LayerCount: 2
Fore
SplineSet
1260 622 m 1,0,-1
 831 622 l 1,1,-1
 827 590 l 1,2,3
 798 403 798 403 868.5 288.5 c 128,-1,4
 939 174 939 174 1092 174 c 0,5,6
 1235 174 1235 174 1327 253 c 128,-1,7
 1419 332 1419 332 1442 477 c 1,8,-1
 1675 477 l 1,9,-1
 1677 471 l 1,10,11
 1647 242 1647 242 1481.5 111 c 128,-1,12
 1316 -20 1316 -20 1063 -20 c 0,13,14
 819 -20 819 -20 682 153 c 128,-1,15
 545 326 545 326 585 590 c 1,16,-1
 589 622 l 1,17,-1
 430 622 l 1,18,-1
 337 0 l 1,19,-1
 94 0 l 1,20,-1
 312 1456 l 1,21,-1
 555 1456 l 1,22,-1
 459 818 l 1,23,-1
 618 818 l 1,24,-1
 626 867 l 1,25,26
 667 1144 667 1144 847 1311 c 128,-1,27
 1027 1478 1027 1478 1281 1478 c 0,28,29
 1528 1478 1528 1478 1660.5 1345.5 c 128,-1,30
 1793 1213 1793 1213 1755 988 c 1,31,-1
 1752 982 l 1,32,-1
 1517 982 l 1,33,34
 1540 1133 1540 1133 1473 1208 c 128,-1,35
 1406 1283 1406 1283 1251 1283 c 0,36,37
 1109 1283 1109 1283 1001.5 1164 c 128,-1,38
 894 1045 894 1045 868 869 c 2,39,-1
 860 818 l 1,40,-1
 1290 818 l 1,41,-1
 1260 622 l 1,0,-1
EndSplineSet
Validated: 33
EndChar

StartChar: uni0465
Encoding: 1125 1125 529
Width: 1537
GlyphClass: 1
Flags: W
LayerCount: 2
Fore
SplineSet
1061 460 m 1,0,-1
 741 460 l 1,1,2
 731 329 731 329 777 251 c 128,-1,3
 823 173 823 173 941 173 c 0,4,5
 1021 173 1021 173 1088 225.5 c 128,-1,6
 1155 278 1155 278 1167 357 c 1,7,-1
 1386 357 l 1,8,-1
 1388 351 l 1,9,10
 1368 193 1368 193 1228.5 86 c 128,-1,11
 1089 -21 1089 -21 912 -21 c 0,12,13
 703 -21 703 -21 594 114.5 c 128,-1,14
 485 250 485 250 498 460 c 1,15,-1
 373 460 l 1,16,-1
 304 0 l 1,17,-1
 61 0 l 1,18,-1
 223 1082 l 1,19,-1
 466 1082 l 1,20,-1
 398 630 l 1,21,-1
 524 630 l 1,22,23
 574 844 574 844 718 973 c 128,-1,24
 862 1102 862 1102 1079 1102 c 0,25,26
 1261 1102 1261 1102 1365.5 987 c 128,-1,27
 1470 872 1470 872 1440 699 c 1,28,-1
 1438 694 l 1,29,-1
 1217 694 l 1,30,31
 1230 787 1230 787 1185 847 c 128,-1,32
 1140 907 1140 907 1050 907 c 0,33,34
 942 907 942 907 871.5 829 c 128,-1,35
 801 751 801 751 775 636 c 1,36,-1
 777 630 l 1,37,-1
 1087 630 l 1,38,-1
 1061 460 l 1,0,-1
EndSplineSet
Validated: 33
EndChar

StartChar: uni0466
Encoding: 1126 1126 530
Width: 1287
GlyphClass: 1
Flags: W
LayerCount: 2
Fore
SplineSet
888 410 m 1,0,-1
 749 410 l 1,1,-1
 688 0 l 1,2,-1
 467 0 l 1,3,-1
 528 410 l 1,4,-1
 403 410 l 1,5,-1
 203 0 l 1,6,-1
 -48 0 l 1,7,-1
 689 1456 l 1,8,-1
 920 1456 l 1,9,-1
 1214 0 l 1,10,-1
 963 0 l 1,11,-1
 888 410 l 1,0,-1
495 597 m 1,12,-1
 853 597 l 1,13,-1
 757 1121 l 1,14,-1
 751 1121 l 1,15,-1
 495 597 l 1,12,-1
EndSplineSet
Validated: 1
EndChar

StartChar: uni0467
Encoding: 1127 1127 531
Width: 1120
GlyphClass: 1
Flags: W
LayerCount: 2
Fore
SplineSet
701 279 m 1,0,-1
 608 279 l 1,1,-1
 567 0 l 1,2,-1
 372 0 l 1,3,-1
 413 279 l 1,4,-1
 323 279 l 1,5,-1
 177 0 l 1,6,-1
 -70 0 l 1,7,-1
 517 1082 l 1,8,-1
 748 1082 l 1,9,-1
 1013 0 l 1,10,-1
 766 0 l 1,11,-1
 701 279 l 1,0,-1
413 452 m 1,12,-1
 661 452 l 1,13,-1
 601 714 l 1,14,-1
 592 801 l 1,15,-1
 586 802 l 1,16,-1
 551 714 l 1,17,-1
 413 452 l 1,12,-1
EndSplineSet
Validated: 1
EndChar

StartChar: uni0468
Encoding: 1128 1128 532
Width: 1858
GlyphClass: 1
Flags: W
LayerCount: 2
Fore
SplineSet
444 598 m 1,0,-1
 783 598 l 1,1,-1
 1218 1456 l 1,2,-1
 1449 1456 l 1,3,-1
 1743 0 l 1,4,-1
 1492 0 l 1,5,-1
 1417 410 l 1,6,-1
 1278 410 l 1,7,-1
 1217 0 l 1,8,-1
 996 0 l 1,9,-1
 1057 410 l 1,10,-1
 932 410 l 1,11,-1
 732 0 l 1,12,-1
 481 0 l 1,13,-1
 688 410 l 1,14,-1
 416 410 l 1,15,-1
 355 0 l 1,16,-1
 112 0 l 1,17,-1
 330 1456 l 1,18,-1
 573 1456 l 1,19,-1
 444 598 l 1,0,-1
1024 597 m 1,20,-1
 1382 597 l 1,21,-1
 1286 1121 l 1,22,-1
 1280 1121 l 1,23,-1
 1024 597 l 1,20,-1
EndSplineSet
Validated: 1
EndChar

StartChar: uni0469
Encoding: 1129 1129 533
Width: 1590
GlyphClass: 1
Flags: W
LayerCount: 2
Fore
SplineSet
407 452 m 1,0,-1
 622 452 l 1,1,-1
 964 1082 l 1,2,-1
 1195 1082 l 1,3,-1
 1460 0 l 1,4,-1
 1213 0 l 1,5,-1
 1148 279 l 1,6,-1
 1055 279 l 1,7,-1
 1014 0 l 1,8,-1
 819 0 l 1,9,-1
 860 279 l 1,10,-1
 770 279 l 1,11,-1
 624 0 l 1,12,-1
 377 0 l 1,13,-1
 528 279 l 1,14,-1
 381 279 l 1,15,-1
 339 0 l 1,16,-1
 96 0 l 1,17,-1
 258 1082 l 1,18,-1
 501 1082 l 1,19,-1
 407 452 l 1,0,-1
860 452 m 1,20,-1
 1108 452 l 1,21,-1
 1048 714 l 1,22,-1
 1039 801 l 1,23,-1
 1033 802 l 1,24,-1
 998 714 l 1,25,-1
 860 452 l 1,20,-1
EndSplineSet
Validated: 1
EndChar

StartChar: uni046A
Encoding: 1130 1130 534
Width: 1773
GlyphClass: 1
Flags: W
LayerCount: 2
Fore
SplineSet
1182 811 m 1,0,1
 1418 808 1418 808 1533.5 699.5 c 128,-1,2
 1649 591 1649 591 1614 356 c 2,3,-1
 1561 0 l 1,4,-1
 1318 0 l 1,5,-1
 1371 356 l 2,6,7
 1393 507 1393 507 1339 560.5 c 128,-1,8
 1285 614 1285 614 1141 614 c 2,9,-1
 1037 614 l 1,10,-1
 1024 597 l 1,11,-1
 935 0 l 1,12,-1
 693 0 l 1,13,-1
 784 612 l 1,14,-1
 784 614 l 1,15,-1
 655 614 l 2,16,17
 518 614 518 614 444 557 c 128,-1,18
 370 500 370 500 348 356 c 2,19,-1
 295 0 l 1,20,-1
 52 0 l 1,21,-1
 105 356 l 2,22,23
 143 606 143 606 286 708.5 c 128,-1,24
 429 811 429 811 685 811 c 2,25,-1
 697 811 l 1,26,-1
 414 1456 l 1,27,-1
 1658 1456 l 1,28,-1
 1182 811 l 1,0,1
941 822 m 1,29,-1
 1248 1259 l 1,30,-1
 764 1259 l 1,31,-1
 941 822 l 1,29,-1
EndSplineSet
Validated: 33
EndChar

StartChar: uni046B
Encoding: 1131 1131 535
Width: 1510
GlyphClass: 1
Flags: W
LayerCount: 2
Fore
SplineSet
1001 606 m 1,0,1
 1183 589 1183 589 1269.5 483.5 c 128,-1,2
 1356 378 1356 378 1325 169 c 2,3,-1
 1300 0 l 1,4,-1
 1057 0 l 1,5,-1
 1082 169 l 2,6,7
 1104 316 1104 316 1060.5 368 c 128,-1,8
 1017 420 1017 420 900 420 c 2,9,-1
 864 420 l 1,10,-1
 863 418 l 1,11,-1
 800 0 l 1,12,-1
 558 0 l 1,13,-1
 621 420 l 1,14,-1
 576 420 l 2,15,16
 463 420 463 420 401 364.5 c 128,-1,17
 339 309 339 309 318 169 c 2,18,-1
 293 0 l 1,19,-1
 50 0 l 1,20,-1
 75 169 l 2,21,22
 108 394 108 394 224.5 494.5 c 128,-1,23
 341 595 341 595 544 607 c 1,24,-1
 338 1082 l 1,25,-1
 1350 1082 l 1,26,-1
 1001 606 l 1,0,1
774 616 m 1,27,-1
 967 907 l 1,28,-1
 668 907 l 1,29,-1
 774 616 l 1,27,-1
EndSplineSet
Validated: 33
EndChar

StartChar: uni046C
Encoding: 1132 1132 536
Width: 2354
GlyphClass: 1
Flags: W
LayerCount: 2
Fore
SplineSet
1302 615 m 1,0,-1
 361 615 l 1,1,-1
 391 811 l 1,2,-1
 1332 811 l 1,3,-1
 1302 615 l 1,0,-1
336 0 m 1,4,-1
 93 0 l 1,5,-1
 311 1456 l 1,6,-1
 554 1456 l 1,7,-1
 336 0 l 1,4,-1
1749 811 m 1,8,9
 1985 808 1985 808 2100.5 699.5 c 128,-1,10
 2216 591 2216 591 2181 356 c 2,11,-1
 2128 0 l 1,12,-1
 1885 0 l 1,13,-1
 1938 356 l 2,14,15
 1960 507 1960 507 1906 560.5 c 128,-1,16
 1852 614 1852 614 1708 614 c 2,17,-1
 1604 614 l 1,18,-1
 1591 597 l 1,19,-1
 1502 0 l 1,20,-1
 1260 0 l 1,21,-1
 1351 612 l 1,22,-1
 1351 614 l 1,23,-1
 1222 614 l 2,24,25
 1085 614 1085 614 1011 557 c 128,-1,26
 937 500 937 500 915 356 c 2,27,-1
 862 0 l 1,28,-1
 619 0 l 1,29,-1
 672 356 l 2,30,31
 710 606 710 606 853 708.5 c 128,-1,32
 996 811 996 811 1252 811 c 2,33,-1
 1264 811 l 1,34,-1
 981 1456 l 1,35,-1
 2225 1456 l 1,36,-1
 1749 811 l 1,8,9
1508 822 m 1,37,-1
 1815 1259 l 1,38,-1
 1331 1259 l 1,39,-1
 1508 822 l 1,37,-1
EndSplineSet
Validated: 37
EndChar

StartChar: uni046D
Encoding: 1133 1133 537
Width: 2041
GlyphClass: 1
Flags: W
LayerCount: 2
Fore
SplineSet
1239 424 m 1,0,-1
 231 424 l 1,1,-1
 259 610 l 1,2,-1
 1267 610 l 1,3,-1
 1239 424 l 1,0,-1
306 0 m 1,4,-1
 63 0 l 1,5,-1
 225 1082 l 1,6,-1
 468 1082 l 1,7,-1
 306 0 l 1,4,-1
1507 606 m 1,8,9
 1689 589 1689 589 1775.5 483.5 c 128,-1,10
 1862 378 1862 378 1831 169 c 2,11,-1
 1806 0 l 1,12,-1
 1563 0 l 1,13,-1
 1588 169 l 2,14,15
 1610 316 1610 316 1566.5 368 c 128,-1,16
 1523 420 1523 420 1406 420 c 2,17,-1
 1370 420 l 1,18,-1
 1369 418 l 1,19,-1
 1306 0 l 1,20,-1
 1064 0 l 1,21,-1
 1127 420 l 1,22,-1
 1082 420 l 2,23,24
 969 420 969 420 907 364.5 c 128,-1,25
 845 309 845 309 824 169 c 2,26,-1
 799 0 l 1,27,-1
 556 0 l 1,28,-1
 581 169 l 2,29,30
 614 394 614 394 730.5 494.5 c 128,-1,31
 847 595 847 595 1050 607 c 1,32,-1
 844 1082 l 1,33,-1
 1856 1082 l 1,34,-1
 1507 606 l 1,8,9
1280 616 m 1,35,-1
 1473 907 l 1,36,-1
 1174 907 l 1,37,-1
 1280 616 l 1,35,-1
EndSplineSet
Validated: 37
EndChar

StartChar: uni046E
Encoding: 1134 1134 538
Width: 1057
GlyphClass: 1
Flags: W
LayerCount: 2
Fore
SplineSet
300 846 m 1,0,-1
 447 846 l 2,1,2
 575 846 575 846 650.5 903 c 128,-1,3
 726 960 726 960 741 1057 c 0,4,5
 755 1150 755 1150 699 1204 c 128,-1,6
 643 1258 643 1258 516 1258 c 2,7,-1
 233 1258 l 1,8,-1
 262 1456 l 1,9,-1
 545 1456 l 2,10,11
 762 1456 762 1456 887 1354 c 128,-1,12
 1012 1252 1012 1252 985 1068 c 0,13,14
 968 953 968 953 894 871 c 128,-1,15
 820 789 820 789 701 747 c 1,16,17
 823 703 823 703 880 616.5 c 128,-1,18
 937 530 937 530 919 408 c 0,19,20
 887 198 887 198 738 88.5 c 128,-1,21
 589 -21 589 -21 366 -21 c 2,22,-1
 313 -21 l 2,23,24
 248 -21 248 -21 211 -49 c 128,-1,25
 174 -77 174 -77 167 -124 c 0,26,27
 157 -191 157 -191 194 -227.5 c 128,-1,28
 231 -264 231 -264 294 -295 c 1,29,-1
 190 -448 l 1,30,31
 64 -407 64 -407 -3.5 -316.5 c 128,-1,32
 -71 -226 -71 -226 -54 -99 c 0,33,34
 -32 45 -32 45 68.5 111.5 c 128,-1,35
 169 178 169 178 337 178 c 2,36,-1
 388 178 l 2,37,38
 501 178 501 178 580.5 241.5 c 128,-1,39
 660 305 660 305 676 404 c 0,40,41
 694 528 694 528 627.5 587.5 c 128,-1,42
 561 647 561 647 413 647 c 2,43,-1
 270 647 l 1,44,-1
 291 786 l 1,45,-1
 300 846 l 1,0,-1
735 1776 m 1,46,-1
 887 1912 l 1,47,-1
 1102 1912 l 1,48,-1
 1100 1895 l 1,49,-1
 794 1643 l 1,50,-1
 637 1643 l 1,51,-1
 407 1893 l 1,52,-1
 410 1912 l 1,53,-1
 623 1912 l 1,54,-1
 735 1776 l 1,46,-1
EndSplineSet
Validated: 33
EndChar

StartChar: uni046F
Encoding: 1135 1135 539
Width: 1008
GlyphClass: 1
Flags: W
LayerCount: 2
Fore
SplineSet
489 1082 m 2,0,1
 691 1082 691 1082 810 1001.5 c 128,-1,2
 929 921 929 921 908 777 c 0,3,4
 895 694 895 694 838 634 c 128,-1,5
 781 574 781 574 688 540 c 1,6,7
 786 506 786 506 833.5 446 c 128,-1,8
 881 386 881 386 870 304 c 0,9,10
 845 146 845 146 710.5 62.5 c 128,-1,11
 576 -21 576 -21 373 -21 c 2,12,-1
 324 -21 l 2,13,14
 255 -21 255 -21 216.5 -49 c 128,-1,15
 178 -77 178 -77 171 -124 c 0,16,17
 161 -191 161 -191 196 -227.5 c 128,-1,18
 231 -264 231 -264 291 -295 c 1,19,-1
 187 -441 l 1,20,21
 74 -395 74 -395 7 -306.5 c 128,-1,22
 -60 -218 -60 -218 -44 -99 c 0,23,24
 -23 37 -23 37 73.5 100 c 128,-1,25
 170 163 170 163 330 163 c 2,26,-1
 378 163 l 2,27,28
 479 163 479 163 548 203.5 c 128,-1,29
 617 244 617 244 627 307 c 0,30,31
 638 382 638 382 578.5 418 c 128,-1,32
 519 454 519 454 392 454 c 2,33,-1
 241 454 l 1,34,-1
 247 496 l 1,35,-1
 266 623 l 1,36,-1
 420 623 l 2,37,38
 529 623 529 623 591 661.5 c 128,-1,39
 653 700 653 700 664 766 c 0,40,41
 673 827 673 827 622.5 862 c 128,-1,42
 572 897 572 897 462 897 c 2,43,-1
 179 897 l 1,44,-1
 206 1082 l 1,45,-1
 489 1082 l 2,0,1
611 1432 m 1,46,-1
 763 1568 l 1,47,-1
 978 1568 l 1,48,-1
 976 1551 l 1,49,-1
 670 1299 l 1,50,-1
 513 1299 l 1,51,-1
 283 1549 l 1,52,-1
 286 1568 l 1,53,-1
 499 1568 l 1,54,-1
 611 1432 l 1,46,-1
EndSplineSet
Validated: 33
EndChar

